{
copyright = "Copyright (c) 2012-2015, Omnibus-Type (www.omnibus-type.com omnibus.type@gmail.com)";
customParameters = (
{
name = licenseURL;
value = "http://scripts.sil.org/OFL";
},
{
name = description;
value = "Archivo Narrow was designed to be used simultaneously in print and digital platforms. The technical and aesthetic characteristics of the font are both crafted for high performance typography.";
},
{
name = trademark;
value = Archivo;
},
{
name = license;
value = "This Font Software is licensed under the SIL Open Font License, Version 1.1. This license is available with a FAQ at: http://scripts.sil.org/OFL";
},
{
name = openTypeOS2VendorID;
value = OMNI;
},
{
name = fsType;
value = (
);
},
{
name = "Family Alignment Zones";
value = (
"{686, 12}",
"{526, 12}",
"{0, -12}",
);
}
);
date = "2015-02-05 02:37:04 +0000";
designer = "Hector Gatti";
familyName = "Archivo Narrow";
fontMaster = (
{
alignmentZones = (
"{723, 8}",
"{686, 12}",
"{526, 12}",
"{0, -12}",
"{-182, 9}"
);
ascender = 957;
capHeight = 686;
customParameters = (
{
name = typoAscender;
value = "957";
},
{
name = typoDescender;
value = "-303";
},
{
name = typoLineGap;
value = "0";
},
{
name = winAscent;
value = "957";
},
{
name = winDescent;
value = "303";
},
{
name = hheaAscender;
value = "957";
},
{
name = hheaDescender;
value = "-303";
},
{
name = hheaLineGap;
value = "0";
}
);
descender = "-182";
horizontalStems = (
110,
101,
114
);
id = UUID0;
verticalStems = (
120,
128,
125,
132
);
xHeight = 526;
}
);
glyphs = (
{
glyphname = A;
lastChange = "2015-02-05 02:37:04 +0000";
layers = (
{
anchors = (
{
name = ogonek;
position = "{591, 0}";
},
{
name = top;
position = "{296, 686}";
}
);
layerId = UUID0;
name = Regular;
paths = (
{
closed = 1;
nodes = (
"370 686 LINE",
"221 686 LINE",
"0 0 LINE",
"124 0 LINE",
"165 135 LINE",
"418 135 LINE",
"460 0 LINE",
"591 0 LINE"
);
},
{
closed = 1;
nodes = (
"294 571 LINE",
"294 571 OFFCURVE",
"303 514 OFFCURVE",
"314 478 CURVE SMOOTH",
"383 249 LINE",
"200 249 LINE",
"270 478 LINE SMOOTH",
"280 510 OFFCURVE",
"290 571 OFFCURVE",
"290 571 CURVE"
);
}
);
width = 592;
}
);
unicode = 0041;
},
{
glyphname = Aacute;
lastChange = "2015-02-05 02:37:04 +0000";
layers = (
{
layerId = UUID0;
name = Regular;
paths = (
{
closed = 1;
nodes = (
"370 686 LINE",
"221 686 LINE",
"0 0 LINE",
"124 0 LINE",
"165 135 LINE",
"418 135 LINE",
"460 0 LINE",
"591 0 LINE"
);
},
{
closed = 1;
nodes = (
"294 571 LINE",
"294 571 OFFCURVE",
"303 514 OFFCURVE",
"314 478 CURVE SMOOTH",
"383 249 LINE",
"200 249 LINE",
"270 478 LINE SMOOTH",
"280 510 OFFCURVE",
"290 571 OFFCURVE",
"290 571 CURVE"
);
},
{
closed = 1;
nodes = (
"433 883 LINE",
"313 883 LINE",
"227 751 LINE",
"326 751 LINE",
"434 880 LINE"
);
}
);
width = 592;
}
);
unicode = 00C1;
},
{
glyphname = Abreve;
lastChange = "2015-02-05 02:37:04 +0000";
layers = (
{
layerId = UUID0;
name = Regular;
paths = (
{
closed = 1;
nodes = (
"370 686 LINE",
"221 686 LINE",
"0 0 LINE",
"124 0 LINE",
"165 135 LINE",
"418 135 LINE",
"460 0 LINE",
"591 0 LINE"
);
},
{
closed = 1;
nodes = (
"294 571 LINE",
"294 571 OFFCURVE",
"303 514 OFFCURVE",
"314 478 CURVE SMOOTH",
"383 249 LINE",
"200 249 LINE",
"270 478 LINE SMOOTH",
"280 510 OFFCURVE",
"290 571 OFFCURVE",
"290 571 CURVE"
);
},
{
closed = 1;
nodes = (
"355 883 LINE",
"354 869 OFFCURVE",
"330 850 OFFCURVE",
"295 850 CURVE SMOOTH",
"263 850 OFFCURVE",
"240 869 OFFCURVE",
"237 883 CURVE",
"163 883 LINE",
"163 833 OFFCURVE",
"213 776 OFFCURVE",
"295 776 CURVE SMOOTH",
"378 776 OFFCURVE",
"430 833 OFFCURVE",
"430 883 CURVE"
);
}
);
width = 592;
}
);
unicode = 0102;
},
{
glyphname = Acircumflex;
lastChange = "2015-02-05 02:37:04 +0000";
layers = (
{
layerId = UUID0;
name = Regular;
paths = (
{
closed = 1;
nodes = (
"370 686 LINE",
"221 686 LINE",
"0 0 LINE",
"124 0 LINE",
"165 135 LINE",
"418 135 LINE",
"460 0 LINE",
"591 0 LINE"
);
},
{
closed = 1;
nodes = (
"294 571 LINE",
"294 571 OFFCURVE",
"303 514 OFFCURVE",
"314 478 CURVE SMOOTH",
"383 249 LINE",
"200 249 LINE",
"270 478 LINE SMOOTH",
"280 510 OFFCURVE",
"290 571 OFFCURVE",
"290 571 CURVE"
);
},
{
closed = 1;
nodes = (
"346 883 LINE",
"248 883 LINE",
"162 748 LINE",
"251 748 LINE",
"296 817 LINE",
"341 748 LINE",
"431 748 LINE"
);
}
);
width = 592;
}
);
unicode = 00C2;
},
{
glyphname = Adieresis;
lastChange = "2015-02-05 02:37:04 +0000";
layers = (
{
layerId = UUID0;
name = Regular;
paths = (
{
closed = 1;
nodes = (
"370 686 LINE",
"221 686 LINE",
"0 0 LINE",
"124 0 LINE",
"165 135 LINE",
"418 135 LINE",
"460 0 LINE",
"591 0 LINE"
);
},
{
closed = 1;
nodes = (
"294 571 LINE",
"294 571 OFFCURVE",
"303 514 OFFCURVE",
"314 478 CURVE SMOOTH",
"383 249 LINE",
"200 249 LINE",
"270 478 LINE SMOOTH",
"280 510 OFFCURVE",
"290 571 OFFCURVE",
"290 571 CURVE"
);
},
{
closed = 1;
nodes = (
"259 883 LINE",
"159 883 LINE",
"159 774 LINE",
"259 774 LINE"
);
},
{
closed = 1;
nodes = (
"434 883 LINE",
"333 883 LINE",
"333 774 LINE",
"434 774 LINE"
);
}
);
width = 592;
}
);
unicode = 00C4;
},
{
glyphname = Agrave;
lastChange = "2015-02-05 02:37:04 +0000";
layers = (
{
layerId = UUID0;
name = Regular;
paths = (
{
closed = 1;
nodes = (
"370 686 LINE",
"221 686 LINE",
"0 0 LINE",
"124 0 LINE",
"165 135 LINE",
"418 135 LINE",
"460 0 LINE",
"591 0 LINE"
);
},
{
closed = 1;
nodes = (
"294 571 LINE",
"294 571 OFFCURVE",
"303 514 OFFCURVE",
"314 478 CURVE SMOOTH",
"383 249 LINE",
"200 249 LINE",
"270 478 LINE SMOOTH",
"280 510 OFFCURVE",
"290 571 OFFCURVE",
"290 571 CURVE"
);
},
{
closed = 1;
nodes = (
"279 883 LINE",
"159 883 LINE",
"158 880 LINE",
"266 751 LINE",
"365 751 LINE"
);
}
);
width = 592;
}
);
unicode = 00C0;
},
{
glyphname = Amacron;
lastChange = "2015-02-05 02:37:04 +0000";
layers = (
{
layerId = UUID0;
name = Regular;
paths = (
{
closed = 1;
nodes = (
"370 686 LINE",
"221 686 LINE",
"0 0 LINE",
"124 0 LINE",
"165 135 LINE",
"418 135 LINE",
"460 0 LINE",
"591 0 LINE"
);
},
{
closed = 1;
nodes = (
"294 571 LINE",
"294 571 OFFCURVE",
"303 514 OFFCURVE",
"314 478 CURVE SMOOTH",
"383 249 LINE",
"200 249 LINE",
"270 478 LINE SMOOTH",
"280 510 OFFCURVE",
"290 571 OFFCURVE",
"290 571 CURVE"
);
},
{
closed = 1;
nodes = (
"424 846 LINE",
"168 846 LINE",
"168 759 LINE",
"424 759 LINE"
);
}
);
width = 592;
}
);
unicode = 0100;
},
{
glyphname = Aogonek;
lastChange = "2015-02-05 02:37:04 +0000";
layers = (
{
layerId = UUID0;
name = Regular;
paths = (
{
closed = 1;
nodes = (
"370 686 LINE",
"221 686 LINE",
"0 0 LINE",
"124 0 LINE",
"165 135 LINE",
"418 135 LINE",
"460 0 LINE",
"507 0 LINE",
"483 -25 OFFCURVE",
"463 -53 OFFCURVE",
"463 -100 CURVE SMOOTH",
"463 -169 OFFCURVE",
"516 -190 OFFCURVE",
"562 -190 CURVE SMOOTH",
"584 -190 OFFCURVE",
"605 -185 OFFCURVE",
"628 -176 CURVE",
"628 -121 LINE",
"606 -121 LINE SMOOTH",
"573 -121 OFFCURVE",
"561 -96 OFFCURVE",
"561 -70 CURVE SMOOTH",
"561 -42 OFFCURVE",
"579 -14 OFFCURVE",
"591 0 CURVE"
);
},
{
closed = 1;
nodes = (
"294 571 LINE",
"294 571 OFFCURVE",
"303 514 OFFCURVE",
"314 478 CURVE SMOOTH",
"383 249 LINE",
"200 249 LINE",
"270 478 LINE SMOOTH",
"280 510 OFFCURVE",
"290 571 OFFCURVE",
"290 571 CURVE"
);
}
);
width = 592;
}
);
unicode = 0104;
},
{
glyphname = Aring;
lastChange = "2015-02-05 02:37:04 +0000";
layers = (
{
layerId = UUID0;
name = Regular;
paths = (
{
closed = 1;
nodes = (
"370 686 LINE",
"221 686 LINE",
"0 0 LINE",
"124 0 LINE",
"165 135 LINE",
"418 135 LINE",
"460 0 LINE",
"591 0 LINE"
);
},
{
closed = 1;
nodes = (
"294 571 LINE",
"294 571 OFFCURVE",
"303 514 OFFCURVE",
"314 478 CURVE SMOOTH",
"383 249 LINE",
"200 249 LINE",
"270 478 LINE SMOOTH",
"280 510 OFFCURVE",
"290 571 OFFCURVE",
"290 571 CURVE"
);
},
{
closed = 1;
nodes = (
"243 913 OFFCURVE",
"200 870 OFFCURVE",
"200 817 CURVE SMOOTH",
"200 763 OFFCURVE",
"244 721 OFFCURVE",
"296 721 CURVE SMOOTH",
"349 721 OFFCURVE",
"392 764 OFFCURVE",
"392 817 CURVE SMOOTH",
"392 869 OFFCURVE",
"350 913 OFFCURVE",
"296 913 CURVE SMOOTH"
);
},
{
closed = 1;
nodes = (
"321 863 OFFCURVE",
"342 843 OFFCURVE",
"342 817 CURVE SMOOTH",
"342 791 OFFCURVE",
"321 771 OFFCURVE",
"296 771 CURVE SMOOTH",
"270 771 OFFCURVE",
"250 791 OFFCURVE",
"250 817 CURVE SMOOTH",
"250 843 OFFCURVE",
"270 863 OFFCURVE",
"296 863 CURVE SMOOTH"
);
}
);
width = 592;
}
);
unicode = 00C5;
},
{
glyphname = Aringacute;
lastChange = "2015-02-05 02:37:04 +0000";
layers = (
{
layerId = UUID0;
name = Regular;
paths = (
{
closed = 1;
nodes = (
"243 821 OFFCURVE",
"200 779 OFFCURVE",
"200 728 CURVE SMOOTH",
"200 708 OFFCURVE",
"206 689 OFFCURVE",
"217 674 CURVE",
"0 0 LINE",
"124 0 LINE",
"165 135 LINE",
"418 135 LINE",
"460 0 LINE",
"591 0 LINE",
"374 673 LINE",
"385 689 OFFCURVE",
"392 708 OFFCURVE",
"392 728 CURVE SMOOTH",
"392 778 OFFCURVE",
"350 821 OFFCURVE",
"296 821 CURVE SMOOTH"
);
},
{
closed = 1;
nodes = (
"294 571 LINE",
"294 571 OFFCURVE",
"303 514 OFFCURVE",
"314 478 CURVE SMOOTH",
"383 249 LINE",
"200 249 LINE",
"270 478 LINE SMOOTH",
"280 510 OFFCURVE",
"290 571 OFFCURVE",
"290 571 CURVE"
);
},
{
closed = 1;
nodes = (
"443 957 LINE",
"323 957 LINE",
"253 848 LINE",
"352 848 LINE",
"444 954 LINE"
);
},
{
closed = 1;
nodes = (
"321 772 OFFCURVE",
"342 753 OFFCURVE",
"342 728 CURVE SMOOTH",
"342 702 OFFCURVE",
"321 683 OFFCURVE",
"296 683 CURVE SMOOTH",
"270 683 OFFCURVE",
"250 702 OFFCURVE",
"250 728 CURVE SMOOTH",
"250 753 OFFCURVE",
"270 772 OFFCURVE",
"296 772 CURVE SMOOTH"
);
}
);
width = 611;
}
);
unicode = 01FA;
},
{
glyphname = Atilde;
lastChange = "2015-02-05 02:37:04 +0000";
layers = (
{
layerId = UUID0;
name = Regular;
paths = (
{
closed = 1;
nodes = (
"370 686 LINE",
"221 686 LINE",
"0 0 LINE",
"124 0 LINE",
"165 135 LINE",
"418 135 LINE",
"460 0 LINE",
"591 0 LINE"
);
},
{
closed = 1;
nodes = (
"294 571 LINE",
"294 571 OFFCURVE",
"303 514 OFFCURVE",
"314 478 CURVE SMOOTH",
"383 249 LINE",
"200 249 LINE",
"270 478 LINE SMOOTH",
"280 510 OFFCURVE",
"290 571 OFFCURVE",
"290 571 CURVE"
);
},
{
closed = 1;
nodes = (
"398 883 LINE",
"394 855 OFFCURVE",
"380 846 OFFCURVE",
"359 846 CURVE SMOOTH",
"314 846 OFFCURVE",
"275 883 OFFCURVE",
"226 883 CURVE SMOOTH",
"156 883 OFFCURVE",
"128 816 OFFCURVE",
"128 761 CURVE",
"194 761 LINE",
"198 788 OFFCURVE",
"212 798 OFFCURVE",
"233 798 CURVE SMOOTH",
"278 798 OFFCURVE",
"317 761 OFFCURVE",
"365 761 CURVE SMOOTH",
"436 761 OFFCURVE",
"464 828 OFFCURVE",
"464 883 CURVE"
);
}
);
width = 592;
}
);
unicode = 00C3;
},
{
color = (31,255,0,1);
glyphname = AE;
lastChange = "2015-02-05 02:37:04 +0000";
layers = (
{
anchors = (
{
name = top;
position = "{410, 686}";
}
);
background = {
paths = (
{
closed = 1;
nodes = (
"793 686 LINE",
"255 686 LINE",
"-8 0 LINE",
"111 0 LINE",
"161 135 LINE",
"414 135 LINE",
"447 0 LINE",
"800 0 LINE",
"783 114 LINE",
"550 114 LINE",
"506 294 LINE",
"753 294 LINE",
"753 408 LINE",
"478 408 LINE",
"438 572 LINE",
"777 572 LINE"
);
},
{
closed = 1;
nodes = (
"317 546 LINE",
"387 249 LINE",
"203 249 LINE",
"313 546 LINE"
);
}
);
};
layerId = UUID0;
name = Regular;
paths = (
{
closed = 1;
nodes = (
"777 0 LINE",
"777 114 LINE",
"550 114 LINE",
"506 294 LINE",
"727 294 LINE",
"727 408 LINE",
"478 408 LINE",
"438 572 LINE",
"771 572 LINE",
"771 686 LINE",
"255 686 LINE",
"-8 0 LINE",
"111 0 LINE",
"161 135 LINE",
"414 135 LINE",
"447 0 LINE"
);
},
{
closed = 1;
nodes = (
"313 546 LINE",
"317 546 LINE",
"387 249 LINE",
"203 249 LINE"
);
}
);
width = 820;
}
);
unicode = 00C6;
},
{
color = (31,255,0,1);
glyphname = AEacute;
lastChange = "2015-02-05 02:37:04 +0000";
layers = (
{
background = {
paths = (
{
closed = 1;
nodes = (
"793 686 LINE",
"255 686 LINE",
"-8 0 LINE",
"111 0 LINE",
"161 135 LINE",
"414 135 LINE",
"447 0 LINE",
"800 0 LINE",
"783 114 LINE",
"550 114 LINE",
"506 294 LINE",
"753 294 LINE",
"753 408 LINE",
"478 408 LINE",
"438 572 LINE",
"777 572 LINE"
);
},
{
closed = 1;
nodes = (
"317 546 LINE",
"387 249 LINE",
"203 249 LINE",
"313 546 LINE"
);
}
);
};
layerId = UUID0;
name = Regular;
paths = (
{
closed = 1;
nodes = (
"547 883 LINE",
"427 883 LINE",
"341 751 LINE",
"440 751 LINE",
"548 880 LINE"
);
},
{
closed = 1;
nodes = (
"777 0 LINE",
"777 114 LINE",
"550 114 LINE",
"506 294 LINE",
"727 294 LINE",
"727 408 LINE",
"478 408 LINE",
"438 572 LINE",
"771 572 LINE",
"771 686 LINE",
"255 686 LINE",
"-8 0 LINE",
"111 0 LINE",
"161 135 LINE",
"414 135 LINE",
"447 0 LINE"
);
},
{
closed = 1;
nodes = (
"313 546 LINE",
"317 546 LINE",
"387 249 LINE",
"203 249 LINE"
);
}
);
width = 820;
}
);
unicode = 01FC;
},
{
color = (31,255,0,1);
glyphname = B;
lastChange = "2015-02-05 02:37:04 +0000";
layers = (
{
background = {
paths = (
{
closed = 1;
nodes = (
"50 686 LINE",
"50 0 LINE",
"355 0 LINE SMOOTH",
"465 0 OFFCURVE",
"558 69 OFFCURVE",
"558 184 CURVE SMOOTH",
"558 272 OFFCURVE",
"505 335 OFFCURVE",
"437 356 CURVE",
"437 360 LINE",
"496 381 OFFCURVE",
"542 437 OFFCURVE",
"542 516 CURVE SMOOTH",
"542 617 OFFCURVE",
"463 686 OFFCURVE",
"355 686 CURVE SMOOTH"
);
},
{
closed = 1;
nodes = (
"328 295 LINE",
"395 295 OFFCURVE",
"427 253 OFFCURVE",
"427 200 CURVE SMOOTH",
"427 144 OFFCURVE",
"387 114 OFFCURVE",
"334 114 CURVE SMOOTH",
"178 114 LINE",
"178 295 LINE"
);
},
{
closed = 1;
nodes = (
"326 572 LINE",
"377 572 OFFCURVE",
"411 545 OFFCURVE",
"411 493 CURVE SMOOTH",
"411 447 OFFCURVE",
"381 408 OFFCURVE",
"320 408 CURVE SMOOTH",
"178 408 LINE",
"178 572 LINE"
);
}
);
};
layerId = UUID0;
name = Regular;
paths = (
{
closed = 1;
nodes = (
"60 0 LINE",
"355 0 LINE SMOOTH",
"465 0 OFFCURVE",
"558 69 OFFCURVE",
"558 184 CURVE SMOOTH",
"558 272 OFFCURVE",
"505 335 OFFCURVE",
"437 356 CURVE",
"437 360 LINE",
"496 381 OFFCURVE",
"542 437 OFFCURVE",
"542 516 CURVE SMOOTH",
"542 617 OFFCURVE",
"463 686 OFFCURVE",
"355 686 CURVE SMOOTH",
"60 686 LINE"
);
},
{
closed = 1;
nodes = (
"328 295 LINE",
"395 295 OFFCURVE",
"427 253 OFFCURVE",
"427 200 CURVE SMOOTH",
"427 144 OFFCURVE",
"387 114 OFFCURVE",
"334 114 CURVE SMOOTH",
"188 114 LINE",
"188 295 LINE"
);
},
{
closed = 1;
nodes = (
"326 572 LINE",
"377 572 OFFCURVE",
"411 545 OFFCURVE",
"411 493 CURVE SMOOTH",
"411 447 OFFCURVE",
"381 408 OFFCURVE",
"320 408 CURVE SMOOTH",
"188 408 LINE",
"188 572 LINE"
);
}
);
width = 592;
}
);
unicode = 0042;
},
{
glyphname = C;
lastChange = "2015-02-05 02:37:04 +0000";
layers = (
{
anchors = (
{
name = bottom;
position = "{311, 0}";
},
{
name = top;
position = "{307, 686}";
}
);
layerId = UUID0;
name = Regular;
paths = (
{
closed = 1;
nodes = (
"135 698 OFFCURVE",
"34 585 OFFCURVE",
"34 343 CURVE SMOOTH",
"34 101 OFFCURVE",
"135 -12 OFFCURVE",
"307 -12 CURVE SMOOTH",
"452 -12 OFFCURVE",
"559 74 OFFCURVE",
"559 254 CURVE",
"434 254 LINE",
"434 148 OFFCURVE",
"385 98 OFFCURVE",
"311 98 CURVE SMOOTH",
"213 98 OFFCURVE",
"166 181 OFFCURVE",
"166 318 CURVE SMOOTH",
"166 368 LINE SMOOTH",
"166 505 OFFCURVE",
"212 588 OFFCURVE",
"307 588 CURVE SMOOTH",
"379 588 OFFCURVE",
"428 537 OFFCURVE",
"428 431 CURVE",
"559 431 LINE",
"559 617 OFFCURVE",
"450 698 OFFCURVE",
"307 698 CURVE SMOOTH"
);
}
);
width = 592;
}
);
unicode = 0043;
},
{
glyphname = Cacute;
lastChange = "2015-02-05 02:37:04 +0000";
layers = (
{
layerId = UUID0;
name = Regular;
paths = (
{
closed = 1;
nodes = (
"135 698 OFFCURVE",
"34 585 OFFCURVE",
"34 343 CURVE SMOOTH",
"34 101 OFFCURVE",
"135 -12 OFFCURVE",
"307 -12 CURVE SMOOTH",
"452 -12 OFFCURVE",
"559 74 OFFCURVE",
"559 254 CURVE",
"434 254 LINE",
"434 148 OFFCURVE",
"385 98 OFFCURVE",
"311 98 CURVE SMOOTH",
"213 98 OFFCURVE",
"166 181 OFFCURVE",
"166 318 CURVE SMOOTH",
"166 368 LINE SMOOTH",
"166 505 OFFCURVE",
"212 588 OFFCURVE",
"307 588 CURVE SMOOTH",
"379 588 OFFCURVE",
"428 537 OFFCURVE",
"428 431 CURVE",
"559 431 LINE",
"559 617 OFFCURVE",
"450 698 OFFCURVE",
"307 698 CURVE SMOOTH"
);
},
{
closed = 1;
nodes = (
"444 883 LINE",
"324 883 LINE",
"238 751 LINE",
"337 751 LINE",
"445 880 LINE"
);
}
);
width = 592;
}
);
unicode = 0106;
},
{
glyphname = Ccaron;
lastChange = "2015-02-05 02:37:04 +0000";
layers = (
{
layerId = UUID0;
name = Regular;
paths = (
{
closed = 1;
nodes = (
"135 698 OFFCURVE",
"34 585 OFFCURVE",
"34 343 CURVE SMOOTH",
"34 101 OFFCURVE",
"135 -12 OFFCURVE",
"307 -12 CURVE SMOOTH",
"452 -12 OFFCURVE",
"559 74 OFFCURVE",
"559 254 CURVE",
"434 254 LINE",
"434 148 OFFCURVE",
"385 98 OFFCURVE",
"311 98 CURVE SMOOTH",
"213 98 OFFCURVE",
"166 181 OFFCURVE",
"166 318 CURVE SMOOTH",
"166 368 LINE SMOOTH",
"166 505 OFFCURVE",
"212 588 OFFCURVE",
"307 588 CURVE SMOOTH",
"379 588 OFFCURVE",
"428 537 OFFCURVE",
"428 431 CURVE",
"559 431 LINE",
"559 617 OFFCURVE",
"450 698 OFFCURVE",
"307 698 CURVE SMOOTH"
);
},
{
closed = 1;
nodes = (
"441 883 LINE",
"352 883 LINE",
"307 814 LINE",
"262 883 LINE",
"172 883 LINE",
"258 748 LINE",
"356 748 LINE"
);
}
);
width = 592;
}
);
unicode = 010C;
},
{
glyphname = Ccedilla;
lastChange = "2015-02-05 02:37:04 +0000";
layers = (
{
layerId = UUID0;
name = Regular;
paths = (
{
closed = 1;
nodes = (
"135 698 OFFCURVE",
"34 585 OFFCURVE",
"34 343 CURVE SMOOTH",
"34 122 OFFCURVE",
"117 9 OFFCURVE",
"262 -9 CURVE",
"254 -77 LINE",
"287 -77 LINE SMOOTH",
"313 -77 OFFCURVE",
"321 -85 OFFCURVE",
"321 -101 CURVE SMOOTH",
"321 -120 OFFCURVE",
"307 -125 OFFCURVE",
"285 -125 CURVE SMOOTH",
"214 -125 LINE",
"214 -174 LINE",
"238 -179 OFFCURVE",
"270 -182 OFFCURVE",
"298 -182 CURVE SMOOTH",
"341 -182 OFFCURVE",
"407 -168 OFFCURVE",
"407 -101 CURVE SMOOTH",
"407 -55 OFFCURVE",
"371 -36 OFFCURVE",
"328 -33 CURVE",
"330 -11 LINE",
"463 -2 OFFCURVE",
"559 84 OFFCURVE",
"559 254 CURVE",
"434 254 LINE",
"434 148 OFFCURVE",
"385 98 OFFCURVE",
"311 98 CURVE SMOOTH",
"213 98 OFFCURVE",
"166 181 OFFCURVE",
"166 318 CURVE SMOOTH",
"166 368 LINE SMOOTH",
"166 505 OFFCURVE",
"212 588 OFFCURVE",
"307 588 CURVE SMOOTH",
"379 588 OFFCURVE",
"428 537 OFFCURVE",
"428 431 CURVE",
"559 431 LINE",
"559 617 OFFCURVE",
"450 698 OFFCURVE",
"307 698 CURVE SMOOTH"
);
}
);
width = 592;
}
);
unicode = 00C7;
},
{
glyphname = Ccircumflex;
lastChange = "2015-02-05 02:37:04 +0000";
layers = (
{
layerId = UUID0;
name = Regular;
paths = (
{
closed = 1;
nodes = (
"135 698 OFFCURVE",
"34 585 OFFCURVE",
"34 343 CURVE SMOOTH",
"34 101 OFFCURVE",
"135 -12 OFFCURVE",
"307 -12 CURVE SMOOTH",
"452 -12 OFFCURVE",
"559 74 OFFCURVE",
"559 254 CURVE",
"434 254 LINE",
"434 148 OFFCURVE",
"385 98 OFFCURVE",
"311 98 CURVE SMOOTH",
"213 98 OFFCURVE",
"166 181 OFFCURVE",
"166 318 CURVE SMOOTH",
"166 368 LINE SMOOTH",
"166 505 OFFCURVE",
"212 588 OFFCURVE",
"307 588 CURVE SMOOTH",
"379 588 OFFCURVE",
"428 537 OFFCURVE",
"428 431 CURVE",
"559 431 LINE",
"559 617 OFFCURVE",
"450 698 OFFCURVE",
"307 698 CURVE SMOOTH"
);
},
{
closed = 1;
nodes = (
"356 883 LINE",
"258 883 LINE",
"172 748 LINE",
"262 748 LINE",
"307 817 LINE",
"352 748 LINE",
"441 748 LINE"
);
}
);
width = 592;
}
);
unicode = 0108;
},
{
glyphname = Cdotaccent;
lastChange = "2015-02-05 02:37:04 +0000";
layers = (
{
layerId = UUID0;
name = Regular;
paths = (
{
closed = 1;
nodes = (
"135 698 OFFCURVE",
"34 585 OFFCURVE",
"34 343 CURVE SMOOTH",
"34 101 OFFCURVE",
"135 -12 OFFCURVE",
"307 -12 CURVE SMOOTH",
"452 -12 OFFCURVE",
"559 74 OFFCURVE",
"559 254 CURVE",
"434 254 LINE",
"434 148 OFFCURVE",
"385 98 OFFCURVE",
"311 98 CURVE SMOOTH",
"213 98 OFFCURVE",
"166 181 OFFCURVE",
"166 318 CURVE SMOOTH",
"166 368 LINE SMOOTH",
"166 505 OFFCURVE",
"212 588 OFFCURVE",
"307 588 CURVE SMOOTH",
"379 588 OFFCURVE",
"428 537 OFFCURVE",
"428 431 CURVE",
"559 431 LINE",
"559 617 OFFCURVE",
"450 698 OFFCURVE",
"307 698 CURVE SMOOTH"
);
},
{
closed = 1;
nodes = (
"360 883 LINE",
"253 883 LINE",
"253 768 LINE",
"360 768 LINE"
);
}
);
width = 592;
}
);
unicode = 010A;
},
{
color = (31,255,0,1);
glyphname = D;
lastChange = "2015-02-05 02:37:04 +0000";
layers = (
{
anchors = (
{
name = center;
position = "{296, 343}";
},
{
name = top;
position = "{253, 686}";
}
);
background = {
paths = (
{
closed = 1;
nodes = (
"50 686 LINE",
"50 0 LINE",
"283 0 LINE",
"454 0 OFFCURVE",
"558 118 OFFCURVE",
"558 353 CURVE SMOOTH",
"558 574 OFFCURVE",
"454 686 OFFCURVE",
"283 686 CURVE SMOOTH"
);
},
{
closed = 1;
nodes = (
"271 572 LINE",
"366 572 OFFCURVE",
"426 507 OFFCURVE",
"426 378 CURVE SMOOTH",
"426 328 LINE SMOOTH",
"426 185 OFFCURVE",
"366 114 OFFCURVE",
"271 114 CURVE SMOOTH",
"178 114 LINE",
"178 572 LINE"
);
}
);
};
layerId = UUID0;
name = Regular;
paths = (
{
closed = 1;
nodes = (
"283 0 LINE",
"454 0 OFFCURVE",
"558 118 OFFCURVE",
"558 353 CURVE SMOOTH",
"558 574 OFFCURVE",
"454 686 OFFCURVE",
"283 686 CURVE SMOOTH",
"60 686 LINE",
"60 0 LINE"
);
},
{
closed = 1;
nodes = (
"271 572 LINE",
"366 572 OFFCURVE",
"426 507 OFFCURVE",
"426 378 CURVE SMOOTH",
"426 328 LINE SMOOTH",
"426 185 OFFCURVE",
"366 114 OFFCURVE",
"271 114 CURVE SMOOTH",
"188 114 LINE",
"188 572 LINE"
);
}
);
width = 592;
}
);
unicode = 0044;
},
{
color = (31,255,0,1);
glyphname = Eth;
lastChange = "2015-02-05 02:37:04 +0000";
layers = (
{
background = {
paths = (
{
closed = 1;
nodes = (
"50 686 LINE",
"50 397 LINE",
"0 397 LINE",
"0 312 LINE",
"50 312 LINE",
"50 0 LINE",
"283 0 LINE SMOOTH",
"454 0 OFFCURVE",
"558 118 OFFCURVE",
"558 353 CURVE SMOOTH",
"558 574 OFFCURVE",
"454 686 OFFCURVE",
"283 686 CURVE SMOOTH"
);
},
{
closed = 1;
nodes = (
"271 572 LINE",
"366 572 OFFCURVE",
"426 507 OFFCURVE",
"426 378 CURVE SMOOTH",
"426 328 LINE SMOOTH",
"426 185 OFFCURVE",
"366 114 OFFCURVE",
"271 114 CURVE SMOOTH",
"178 114 LINE",
"178 312 LINE",
"303 312 LINE",
"303 397 LINE",
"178 397 LINE",
"178 572 LINE"
);
}
);
};
layerId = UUID0;
name = Regular;
paths = (
{
closed = 1;
nodes = (
"10 312 LINE",
"60 312 LINE",
"60 0 LINE",
"283 0 LINE SMOOTH",
"454 0 OFFCURVE",
"558 118 OFFCURVE",
"558 353 CURVE SMOOTH",
"558 574 OFFCURVE",
"454 686 OFFCURVE",
"283 686 CURVE SMOOTH",
"60 686 LINE",
"60 397 LINE",
"10 397 LINE"
);
},
{
closed = 1;
nodes = (
"271 572 LINE",
"366 572 OFFCURVE",
"426 507 OFFCURVE",
"426 378 CURVE SMOOTH",
"426 328 LINE SMOOTH",
"426 185 OFFCURVE",
"366 114 OFFCURVE",
"271 114 CURVE SMOOTH",
"188 114 LINE",
"188 312 LINE",
"313 312 LINE",
"313 397 LINE",
"188 397 LINE",
"188 572 LINE"
);
}
);
width = 592;
}
);
unicode = 00D0;
},
{
color = (31,255,0,1);
glyphname = Dcaron;
lastChange = "2015-02-05 02:37:04 +0000";
layers = (
{
background = {
paths = (
{
closed = 1;
nodes = (
"50 686 LINE",
"50 0 LINE",
"283 0 LINE SMOOTH",
"454 0 OFFCURVE",
"558 118 OFFCURVE",
"558 353 CURVE SMOOTH",
"558 574 OFFCURVE",
"454 686 OFFCURVE",
"283 686 CURVE SMOOTH"
);
},
{
closed = 1;
nodes = (
"271 572 LINE SMOOTH",
"366 572 OFFCURVE",
"426 507 OFFCURVE",
"426 378 CURVE SMOOTH",
"426 328 LINE SMOOTH",
"426 185 OFFCURVE",
"366 114 OFFCURVE",
"271 114 CURVE SMOOTH",
"178 114 LINE",
"178 572 LINE"
);
}
);
};
layerId = UUID0;
name = Regular;
paths = (
{
closed = 1;
nodes = (
"388 883 LINE",
"298 883 LINE",
"254 814 LINE",
"209 883 LINE",
"119 883 LINE",
"205 748 LINE",
"303 748 LINE"
);
},
{
closed = 1;
nodes = (
"283 0 LINE SMOOTH",
"454 0 OFFCURVE",
"558 118 OFFCURVE",
"558 353 CURVE SMOOTH",
"558 574 OFFCURVE",
"454 686 OFFCURVE",
"283 686 CURVE SMOOTH",
"60 686 LINE",
"60 0 LINE"
);
},
{
closed = 1;
nodes = (
"271 572 LINE SMOOTH",
"366 572 OFFCURVE",
"426 507 OFFCURVE",
"426 378 CURVE SMOOTH",
"426 328 LINE SMOOTH",
"426 185 OFFCURVE",
"366 114 OFFCURVE",
"271 114 CURVE SMOOTH",
"188 114 LINE",
"188 572 LINE"
);
}
);
width = 592;
}
);
unicode = 010E;
},
{
color = (31,255,0,1);
glyphname = Dcroat;
lastChange = "2015-02-05 02:37:04 +0000";
layers = (
{
background = {
paths = (
{
closed = 1;
nodes = (
"50 686 LINE",
"50 397 LINE",
"0 397 LINE",
"0 312 LINE",
"50 312 LINE",
"50 0 LINE",
"283 0 LINE SMOOTH",
"454 0 OFFCURVE",
"558 118 OFFCURVE",
"558 353 CURVE SMOOTH",
"558 574 OFFCURVE",
"454 686 OFFCURVE",
"283 686 CURVE SMOOTH"
);
},
{
closed = 1;
nodes = (
"271 572 LINE SMOOTH",
"366 572 OFFCURVE",
"426 507 OFFCURVE",
"426 378 CURVE SMOOTH",
"426 328 LINE SMOOTH",
"426 185 OFFCURVE",
"366 114 OFFCURVE",
"271 114 CURVE SMOOTH",
"178 114 LINE",
"178 312 LINE",
"303 312 LINE",
"303 397 LINE",
"178 397 LINE",
"178 572 LINE"
);
}
);
};
layerId = UUID0;
name = Regular;
paths = (
{
closed = 1;
nodes = (
"10 312 LINE",
"60 312 LINE",
"60 0 LINE",
"283 0 LINE SMOOTH",
"454 0 OFFCURVE",
"558 118 OFFCURVE",
"558 353 CURVE SMOOTH",
"558 574 OFFCURVE",
"454 686 OFFCURVE",
"283 686 CURVE SMOOTH",
"60 686 LINE",
"60 397 LINE",
"10 397 LINE"
);
},
{
closed = 1;
nodes = (
"271 572 LINE SMOOTH",
"366 572 OFFCURVE",
"426 507 OFFCURVE",
"426 378 CURVE SMOOTH",
"426 328 LINE SMOOTH",
"426 185 OFFCURVE",
"366 114 OFFCURVE",
"271 114 CURVE SMOOTH",
"188 114 LINE",
"188 312 LINE",
"313 312 LINE",
"313 397 LINE",
"188 397 LINE",
"188 572 LINE"
);
}
);
width = 592;
}
);
unicode = 0110;
},
{
color = (31,255,0,1);
glyphname = E;
lastChange = "2015-02-05 02:37:04 +0000";
layers = (
{
anchors = (
{
name = bottom;
position = "{273, 0}";
},
{
name = ogonek;
position = "{512, 0}";
},
{
name = top;
position = "{273, 686}";
}
);
background = {
paths = (
{
closed = 1;
nodes = (
"505 686 LINE",
"49 686 LINE",
"49 0 LINE",
"512 0 LINE",
"495 114 LINE",
"177 114 LINE",
"177 294 LINE",
"465 294 LINE",
"465 408 LINE",
"177 408 LINE",
"177 572 LINE",
"489 572 LINE"
);
}
);
};
layerId = UUID0;
name = Regular;
paths = (
{
closed = 1;
nodes = (
"503 0 LINE",
"503 114 LINE",
"188 114 LINE",
"188 294 LINE",
"453 294 LINE",
"453 408 LINE",
"188 408 LINE",
"188 572 LINE",
"497 572 LINE",
"497 686 LINE",
"60 686 LINE",
"60 0 LINE"
);
}
);
width = 547;
}
);
unicode = 0045;
},
{
color = (31,255,0,1);
glyphname = Eacute;
lastChange = "2015-02-05 02:37:04 +0000";
layers = (
{
background = {
paths = (
{
closed = 1;
nodes = (
"505 686 LINE",
"49 686 LINE",
"49 0 LINE",
"512 0 LINE",
"495 114 LINE",
"177 114 LINE",
"177 294 LINE",
"465 294 LINE",
"465 408 LINE",
"177 408 LINE",
"177 572 LINE",
"489 572 LINE"
);
}
);
};
layerId = UUID0;
name = Regular;
paths = (
{
closed = 1;
nodes = (
"411 883 LINE",
"291 883 LINE",
"205 751 LINE",
"304 751 LINE",
"412 880 LINE"
);
},
{
closed = 1;
nodes = (
"503 0 LINE",
"503 114 LINE",
"188 114 LINE",
"188 294 LINE",
"453 294 LINE",
"453 408 LINE",
"188 408 LINE",
"188 572 LINE",
"497 572 LINE",
"497 686 LINE",
"60 686 LINE",
"60 0 LINE"
);
}
);
width = 547;
}
);
unicode = 00C9;
},
{
color = (31,255,0,1);
glyphname = Ebreve;
lastChange = "2015-02-05 02:37:04 +0000";
layers = (
{
background = {
paths = (
{
closed = 1;
nodes = (
"505 686 LINE",
"49 686 LINE",
"49 0 LINE",
"512 0 LINE",
"495 114 LINE",
"177 114 LINE",
"177 294 LINE",
"465 294 LINE",
"465 408 LINE",
"177 408 LINE",
"177 572 LINE",
"489 572 LINE"
);
}
);
};
layerId = UUID0;
name = Regular;
paths = (
{
closed = 1;
nodes = (
"333 883 LINE",
"331 869 OFFCURVE",
"307 850 OFFCURVE",
"273 850 CURVE SMOOTH",
"240 850 OFFCURVE",
"217 869 OFFCURVE",
"214 883 CURVE",
"140 883 LINE",
"140 833 OFFCURVE",
"191 776 OFFCURVE",
"273 776 CURVE SMOOTH",
"356 776 OFFCURVE",
"407 833 OFFCURVE",
"407 883 CURVE"
);
},
{
closed = 1;
nodes = (
"503 0 LINE",
"503 114 LINE",
"188 114 LINE",
"188 294 LINE",
"453 294 LINE",
"453 408 LINE",
"188 408 LINE",
"188 572 LINE",
"497 572 LINE",
"497 686 LINE",
"60 686 LINE",
"60 0 LINE"
);
}
);
width = 547;
}
);
unicode = 0114;
},
{
color = (31,255,0,1);
glyphname = Ecaron;
lastChange = "2015-02-05 02:37:04 +0000";
layers = (
{
background = {
paths = (
{
closed = 1;
nodes = (
"505 686 LINE",
"49 686 LINE",
"49 0 LINE",
"512 0 LINE",
"495 114 LINE",
"177 114 LINE",
"177 294 LINE",
"465 294 LINE",
"465 408 LINE",
"177 408 LINE",
"177 572 LINE",
"489 572 LINE"
);
}
);
};
layerId = UUID0;
name = Regular;
paths = (
{
closed = 1;
nodes = (
"408 883 LINE",
"318 883 LINE",
"274 814 LINE",
"229 883 LINE",
"139 883 LINE",
"225 748 LINE",
"323 748 LINE"
);
},
{
closed = 1;
nodes = (
"503 0 LINE",
"503 114 LINE",
"188 114 LINE",
"188 294 LINE",
"453 294 LINE",
"453 408 LINE",
"188 408 LINE",
"188 572 LINE",
"497 572 LINE",
"497 686 LINE",
"60 686 LINE",
"60 0 LINE"
);
}
);
width = 547;
}
);
unicode = 011A;
},
{
color = (31,255,0,1);
glyphname = Ecircumflex;
lastChange = "2015-02-05 02:37:04 +0000";
layers = (
{
background = {
paths = (
{
closed = 1;
nodes = (
"505 686 LINE",
"49 686 LINE",
"49 0 LINE",
"512 0 LINE",
"495 114 LINE",
"177 114 LINE",
"177 294 LINE",
"465 294 LINE",
"465 408 LINE",
"177 408 LINE",
"177 572 LINE",
"489 572 LINE"
);
}
);
};
layerId = UUID0;
name = Regular;
paths = (
{
closed = 1;
nodes = (
"323 883 LINE",
"225 883 LINE",
"139 748 LINE",
"229 748 LINE",
"274 817 LINE",
"318 748 LINE",
"408 748 LINE"
);
},
{
closed = 1;
nodes = (
"503 0 LINE",
"503 114 LINE",
"188 114 LINE",
"188 294 LINE",
"453 294 LINE",
"453 408 LINE",
"188 408 LINE",
"188 572 LINE",
"497 572 LINE",
"497 686 LINE",
"60 686 LINE",
"60 0 LINE"
);
}
);
width = 547;
}
);
unicode = 00CA;
},
{
color = (31,255,0,1);
glyphname = Edieresis;
lastChange = "2015-02-05 02:37:04 +0000";
layers = (
{
background = {
paths = (
{
closed = 1;
nodes = (
"505 686 LINE",
"49 686 LINE",
"49 0 LINE",
"512 0 LINE",
"495 114 LINE",
"177 114 LINE",
"177 294 LINE",
"465 294 LINE",
"465 408 LINE",
"177 408 LINE",
"177 572 LINE",
"489 572 LINE"
);
}
);
};
layerId = UUID0;
name = Regular;
paths = (
{
closed = 1;
nodes = (
"236 883 LINE",
"136 883 LINE",
"136 774 LINE",
"236 774 LINE"
);
},
{
closed = 1;
nodes = (
"411 883 LINE",
"311 883 LINE",
"311 774 LINE",
"411 774 LINE"
);
},
{
closed = 1;
nodes = (
"503 0 LINE",
"503 114 LINE",
"188 114 LINE",
"188 294 LINE",
"453 294 LINE",
"453 408 LINE",
"188 408 LINE",
"188 572 LINE",
"497 572 LINE",
"497 686 LINE",
"60 686 LINE",
"60 0 LINE"
);
}
);
width = 547;
}
);
unicode = 00CB;
},
{
color = (31,255,0,1);
glyphname = Edotaccent;
lastChange = "2015-02-05 02:37:04 +0000";
layers = (
{
background = {
paths = (
{
closed = 1;
nodes = (
"505 686 LINE",
"49 686 LINE",
"49 0 LINE",
"512 0 LINE",
"495 114 LINE",
"177 114 LINE",
"177 294 LINE",
"465 294 LINE",
"465 408 LINE",
"177 408 LINE",
"177 572 LINE",
"489 572 LINE"
);
}
);
};
layerId = UUID0;
name = Regular;
paths = (
{
closed = 1;
nodes = (
"327 883 LINE",
"220 883 LINE",
"220 768 LINE",
"327 768 LINE"
);
},
{
closed = 1;
nodes = (
"503 0 LINE",
"503 114 LINE",
"188 114 LINE",
"188 294 LINE",
"453 294 LINE",
"453 408 LINE",
"188 408 LINE",
"188 572 LINE",
"497 572 LINE",
"497 686 LINE",
"60 686 LINE",
"60 0 LINE"
);
}
);
width = 547;
}
);
unicode = 0116;
},
{
color = (31,255,0,1);
glyphname = Egrave;
lastChange = "2015-02-05 02:37:04 +0000";
layers = (
{
background = {
paths = (
{
closed = 1;
nodes = (
"505 686 LINE",
"49 686 LINE",
"49 0 LINE",
"512 0 LINE",
"495 114 LINE",
"177 114 LINE",
"177 294 LINE",
"465 294 LINE",
"465 408 LINE",
"177 408 LINE",
"177 572 LINE",
"489 572 LINE"
);
}
);
};
layerId = UUID0;
name = Regular;
paths = (
{
closed = 1;
nodes = (
"256 883 LINE",
"136 883 LINE",
"135 880 LINE",
"243 751 LINE",
"342 751 LINE"
);
},
{
closed = 1;
nodes = (
"503 0 LINE",
"503 114 LINE",
"188 114 LINE",
"188 294 LINE",
"453 294 LINE",
"453 408 LINE",
"188 408 LINE",
"188 572 LINE",
"497 572 LINE",
"497 686 LINE",
"60 686 LINE",
"60 0 LINE"
);
}
);
width = 547;
}
);
unicode = 00C8;
},
{
color = (31,255,0,1);
glyphname = Emacron;
lastChange = "2015-02-05 02:37:04 +0000";
layers = (
{
background = {
paths = (
{
closed = 1;
nodes = (
"505 686 LINE",
"49 686 LINE",
"49 0 LINE",
"512 0 LINE",
"495 114 LINE",
"177 114 LINE",
"177 294 LINE",
"465 294 LINE",
"465 408 LINE",
"177 408 LINE",
"177 572 LINE",
"489 572 LINE"
);
}
);
};
layerId = UUID0;
name = Regular;
paths = (
{
closed = 1;
nodes = (
"401 846 LINE",
"146 846 LINE",
"146 759 LINE",
"401 759 LINE"
);
},
{
closed = 1;
nodes = (
"503 0 LINE",
"503 114 LINE",
"188 114 LINE",
"188 294 LINE",
"453 294 LINE",
"453 408 LINE",
"188 408 LINE",
"188 572 LINE",
"497 572 LINE",
"497 686 LINE",
"60 686 LINE",
"60 0 LINE"
);
}
);
width = 547;
}
);
unicode = 0112;
},
{
color = (31,255,0,1);
glyphname = Eogonek;
lastChange = "2015-02-05 02:37:04 +0000";
layers = (
{
background = {
paths = (
{
closed = 1;
nodes = (
"503 0 LINE",
"503 114 LINE",
"188 114 LINE",
"188 294 LINE",
"453 294 LINE",
"453 408 LINE",
"188 408 LINE",
"188 572 LINE",
"497 572 LINE",
"497 686 LINE",
"60 686 LINE",
"60 0 LINE"
);
}
);
};
layerId = UUID0;
name = Regular;
paths = (
{
closed = 1;
nodes = (
"497 686 LINE",
"60 686 LINE",
"60 0 LINE",
"419 0 LINE",
"395 -25 OFFCURVE",
"375 -53 OFFCURVE",
"375 -100 CURVE SMOOTH",
"375 -169 OFFCURVE",
"428 -190 OFFCURVE",
"474 -190 CURVE SMOOTH",
"496 -190 OFFCURVE",
"517 -185 OFFCURVE",
"540 -176 CURVE",
"540 -121 LINE",
"518 -121 LINE SMOOTH",
"485 -121 OFFCURVE",
"473 -96 OFFCURVE",
"473 -70 CURVE SMOOTH",
"473 -42 OFFCURVE",
"491 -14 OFFCURVE",
"503 0 CURVE",
"503 114 LINE",
"188 114 LINE",
"188 294 LINE",
"453 294 LINE",
"453 408 LINE",
"188 408 LINE",
"188 572 LINE",
"497 572 LINE"
);
}
);
width = 547;
}
);
unicode = 0118;
},
{
color = (31,255,0,1);
glyphname = F;
lastChange = "2015-02-05 02:37:04 +0000";
layers = (
{
background = {
paths = (
{
closed = 1;
nodes = (
"473 686 LINE",
"50 686 LINE",
"50 0 LINE",
"178 0 LINE",
"178 285 LINE",
"433 285 LINE",
"433 399 LINE",
"178 399 LINE",
"178 572 LINE",
"457 572 LINE"
);
}
);
};
layerId = UUID0;
name = Regular;
paths = (
{
closed = 1;
nodes = (
"188 0 LINE",
"188 285 LINE",
"423 285 LINE",
"423 399 LINE",
"188 399 LINE",
"188 572 LINE",
"463 572 LINE",
"463 686 LINE",
"60 686 LINE",
"60 0 LINE"
);
}
);
width = 501;
}
);
unicode = 0046;
},
{
glyphname = G;
lastChange = "2015-02-05 02:37:04 +0000";
layers = (
{
anchors = (
{
name = bottom;
position = "{303, 0}";
},
{
name = top;
position = "{319, 686}";
}
);
layerId = UUID0;
name = Regular;
paths = (
{
closed = 1;
nodes = (
"140 698 OFFCURVE",
"34 585 OFFCURVE",
"34 343 CURVE SMOOTH",
"34 99 OFFCURVE",
"131 -12 OFFCURVE",
"299 -12 CURVE SMOOTH",
"371 -12 OFFCURVE",
"438 18 OFFCURVE",
"482 76 CURVE",
"504 0 LINE",
"587 0 LINE",
"587 373 LINE",
"302 373 LINE",
"302 263 LINE",
"456 263 LINE",
"456 163 OFFCURVE",
"400 98 OFFCURVE",
"322 98 CURVE SMOOTH",
"215 98 OFFCURVE",
"166 178 OFFCURVE",
"166 318 CURVE SMOOTH",
"166 368 LINE SMOOTH",
"166 505 OFFCURVE",
"214 588 OFFCURVE",
"321 588 CURVE SMOOTH",
"395 588 OFFCURVE",
"456 539 OFFCURVE",
"456 446 CURVE",
"587 446 LINE",
"587 610 OFFCURVE",
"463 698 OFFCURVE",
"325 698 CURVE SMOOTH"
);
}
);
width = 638;
}
);
unicode = 0047;
},
{
glyphname = Gbreve;
lastChange = "2015-02-05 02:37:04 +0000";
layers = (
{
layerId = UUID0;
name = Regular;
paths = (
{
closed = 1;
nodes = (
"140 698 OFFCURVE",
"34 585 OFFCURVE",
"34 343 CURVE SMOOTH",
"34 99 OFFCURVE",
"131 -12 OFFCURVE",
"299 -12 CURVE SMOOTH",
"371 -12 OFFCURVE",
"438 18 OFFCURVE",
"482 76 CURVE",
"504 0 LINE",
"587 0 LINE",
"587 373 LINE",
"302 373 LINE",
"302 263 LINE",
"456 263 LINE",
"456 163 OFFCURVE",
"400 98 OFFCURVE",
"322 98 CURVE SMOOTH",
"215 98 OFFCURVE",
"166 178 OFFCURVE",
"166 318 CURVE SMOOTH",
"166 368 LINE SMOOTH",
"166 505 OFFCURVE",
"214 588 OFFCURVE",
"321 588 CURVE SMOOTH",
"395 588 OFFCURVE",
"456 539 OFFCURVE",
"456 446 CURVE",
"587 446 LINE",
"587 610 OFFCURVE",
"463 698 OFFCURVE",
"325 698 CURVE SMOOTH"
);
},
{
closed = 1;
nodes = (
"379 883 LINE",
"377 869 OFFCURVE",
"353 850 OFFCURVE",
"319 850 CURVE SMOOTH",
"286 850 OFFCURVE",
"263 869 OFFCURVE",
"260 883 CURVE",
"186 883 LINE",
"186 833 OFFCURVE",
"237 776 OFFCURVE",
"319 776 CURVE SMOOTH",
"402 776 OFFCURVE",
"453 833 OFFCURVE",
"453 883 CURVE"
);
}
);
width = 638;
}
);
unicode = 011E;
},
{
glyphname = Gcircumflex;
lastChange = "2015-02-05 02:37:04 +0000";
layers = (
{
layerId = UUID0;
name = Regular;
paths = (
{
closed = 1;
nodes = (
"140 698 OFFCURVE",
"34 585 OFFCURVE",
"34 343 CURVE SMOOTH",
"34 99 OFFCURVE",
"131 -12 OFFCURVE",
"299 -12 CURVE SMOOTH",
"371 -12 OFFCURVE",
"438 18 OFFCURVE",
"482 76 CURVE",
"504 0 LINE",
"587 0 LINE",
"587 373 LINE",
"302 373 LINE",
"302 263 LINE",
"456 263 LINE",
"456 163 OFFCURVE",
"400 98 OFFCURVE",
"322 98 CURVE SMOOTH",
"215 98 OFFCURVE",
"166 178 OFFCURVE",
"166 318 CURVE SMOOTH",
"166 368 LINE SMOOTH",
"166 505 OFFCURVE",
"214 588 OFFCURVE",
"321 588 CURVE SMOOTH",
"395 588 OFFCURVE",
"456 539 OFFCURVE",
"456 446 CURVE",
"587 446 LINE",
"587 610 OFFCURVE",
"463 698 OFFCURVE",
"325 698 CURVE SMOOTH"
);
},
{
closed = 1;
nodes = (
"369 883 LINE",
"271 883 LINE",
"185 748 LINE",
"275 748 LINE",
"320 817 LINE",
"364 748 LINE",
"454 748 LINE"
);
}
);
width = 638;
}
);
unicode = 011C;
},
{
glyphname = Gcommaaccent;
lastChange = "2015-02-05 02:37:04 +0000";
layers = (
{
layerId = UUID0;
name = Regular;
paths = (
{
closed = 1;
nodes = (
"140 698 OFFCURVE",
"34 585 OFFCURVE",
"34 343 CURVE SMOOTH",
"34 99 OFFCURVE",
"131 -12 OFFCURVE",
"299 -12 CURVE SMOOTH",
"371 -12 OFFCURVE",
"438 18 OFFCURVE",
"482 76 CURVE",
"504 0 LINE",
"587 0 LINE",
"587 373 LINE",
"302 373 LINE",
"302 263 LINE",
"456 263 LINE",
"456 163 OFFCURVE",
"400 98 OFFCURVE",
"322 98 CURVE SMOOTH",
"215 98 OFFCURVE",
"166 178 OFFCURVE",
"166 318 CURVE SMOOTH",
"166 368 LINE SMOOTH",
"166 505 OFFCURVE",
"214 588 OFFCURVE",
"321 588 CURVE SMOOTH",
"395 588 OFFCURVE",
"456 539 OFFCURVE",
"456 446 CURVE",
"587 446 LINE",
"587 610 OFFCURVE",
"463 698 OFFCURVE",
"325 698 CURVE SMOOTH"
);
},
{
closed = 1;
nodes = (
"365 -55 LINE",
"242 -55 LINE",
"242 -178 LINE",
"291 -178 LINE",
"255 -263 LINE",
"320 -263 LINE",
"365 -167 LINE"
);
}
);
width = 638;
}
);
unicode = 0122;
},
{
glyphname = Gdotaccent;
lastChange = "2015-02-05 02:37:04 +0000";
layers = (
{
layerId = UUID0;
name = Regular;
paths = (
{
closed = 1;
nodes = (
"140 698 OFFCURVE",
"34 585 OFFCURVE",
"34 343 CURVE SMOOTH",
"34 99 OFFCURVE",
"131 -12 OFFCURVE",
"299 -12 CURVE SMOOTH",
"371 -12 OFFCURVE",
"438 18 OFFCURVE",
"482 76 CURVE",
"504 0 LINE",
"587 0 LINE",
"587 373 LINE",
"302 373 LINE",
"302 263 LINE",
"456 263 LINE",
"456 163 OFFCURVE",
"400 98 OFFCURVE",
"322 98 CURVE SMOOTH",
"215 98 OFFCURVE",
"166 178 OFFCURVE",
"166 318 CURVE SMOOTH",
"166 368 LINE SMOOTH",
"166 505 OFFCURVE",
"214 588 OFFCURVE",
"321 588 CURVE SMOOTH",
"395 588 OFFCURVE",
"456 539 OFFCURVE",
"456 446 CURVE",
"587 446 LINE",
"587 610 OFFCURVE",
"463 698 OFFCURVE",
"325 698 CURVE SMOOTH"
);
},
{
closed = 1;
nodes = (
"373 883 LINE",
"266 883 LINE",
"266 768 LINE",
"373 768 LINE"
);
}
);
width = 638;
}
);
unicode = 0120;
},
{
color = (31,255,0,1);
glyphname = H;
lastChange = "2015-02-05 02:37:04 +0000";
layers = (
{
anchors = (
{
name = center;
position = "{296, 343}";
},
{
name = top;
position = "{296, 686}";
}
);
background = {
paths = (
{
closed = 1;
nodes = (
"542 686 LINE",
"414 686 LINE",
"414 408 LINE",
"178 408 LINE",
"178 686 LINE",
"50 686 LINE",
"50 0 LINE",
"178 0 LINE",
"178 294 LINE",
"414 294 LINE",
"414 0 LINE",
"542 0 LINE"
);
}
);
};
layerId = UUID0;
name = Regular;
paths = (
{
closed = 1;
nodes = (
"404 0 LINE",
"532 0 LINE",
"532 686 LINE",
"404 686 LINE",
"404 408 LINE",
"188 408 LINE",
"188 686 LINE",
"60 686 LINE",
"60 0 LINE",
"188 0 LINE",
"188 294 LINE",
"404 294 LINE"
);
}
);
width = 592;
}
);
unicode = 0048;
},
{
color = (31,255,0,1);
glyphname = Hbar;
lastChange = "2015-02-05 02:37:04 +0000";
layers = (
{
background = {
paths = (
{
closed = 1;
nodes = (
"404 0 LINE",
"532 0 LINE",
"532 686 LINE",
"404 686 LINE",
"404 408 LINE",
"188 408 LINE",
"188 686 LINE",
"60 686 LINE",
"60 0 LINE",
"188 0 LINE",
"188 294 LINE",
"404 294 LINE"
);
}
);
};
layerId = UUID0;
name = Regular;
paths = (
{
closed = 1;
nodes = (
"582 577 LINE",
"532 577 LINE",
"532 686 LINE",
"404 686 LINE",
"404 577 LINE",
"188 577 LINE",
"188 686 LINE",
"60 686 LINE",
"60 577 LINE",
"10 577 LINE",
"10 490 LINE",
"60 490 LINE",
"60 0 LINE",
"188 0 LINE",
"188 287 LINE",
"404 287 LINE",
"404 0 LINE",
"532 0 LINE",
"532 490 LINE",
"582 490 LINE"
);
},
{
closed = 1;
nodes = (
"188 401 LINE",
"188 490 LINE",
"404 490 LINE",
"404 401 LINE"
);
}
);
width = 592;
}
);
unicode = 0126;
},
{
color = (31,255,0,1);
glyphname = Hcircumflex;
lastChange = "2015-02-05 02:37:04 +0000";
layers = (
{
background = {
paths = (
{
closed = 1;
nodes = (
"542 686 LINE",
"414 686 LINE",
"414 408 LINE",
"178 408 LINE",
"178 686 LINE",
"50 686 LINE",
"50 0 LINE",
"178 0 LINE",
"178 294 LINE",
"414 294 LINE",
"414 0 LINE",
"542 0 LINE"
);
}
);
};
layerId = UUID0;
name = Regular;
paths = (
{
closed = 1;
nodes = (
"346 883 LINE",
"248 883 LINE",
"162 748 LINE",
"251 748 LINE",
"296 817 LINE",
"341 748 LINE",
"431 748 LINE"
);
},
{
closed = 1;
nodes = (
"404 0 LINE",
"532 0 LINE",
"532 686 LINE",
"404 686 LINE",
"404 408 LINE",
"188 408 LINE",
"188 686 LINE",
"60 686 LINE",
"60 0 LINE",
"188 0 LINE",
"188 294 LINE",
"404 294 LINE"
);
}
);
width = 592;
}
);
unicode = 0124;
},
{
glyphname = I;
lastChange = "2015-02-05 02:37:04 +0000";
layers = (
{
anchors = (
{
name = ogonek;
position = "{178, 0}";
},
{
name = top;
position = "{114, 686}";
}
);
layerId = UUID0;
name = Regular;
paths = (
{
closed = 1;
nodes = (
"178 686 LINE",
"50 686 LINE",
"50 0 LINE",
"178 0 LINE"
);
}
);
width = 228;
}
);
unicode = 0049;
},
{
color = (31,255,0,1);
glyphname = IJ;
lastChange = "2015-02-05 02:37:04 +0000";
layers = (
{
background = {
paths = (
{
closed = 1;
nodes = (
"634 686 LINE",
"506 686 LINE",
"506 173 LINE SMOOTH",
"506 125 OFFCURVE",
"483 98 OFFCURVE",
"436 98 CURVE SMOOTH",
"389 98 OFFCURVE",
"364 125 OFFCURVE",
"364 173 CURVE SMOOTH",
"364 216 LINE",
"237 216 LINE",
"237 163 LINE SMOOTH",
"237 49 OFFCURVE",
"309 -12 OFFCURVE",
"436 -12 CURVE SMOOTH",
"563 -12 OFFCURVE",
"634 49 OFFCURVE",
"634 163 CURVE SMOOTH"
);
}
);
};
layerId = UUID0;
name = Regular;
paths = (
{
closed = 1;
nodes = (
"178 686 LINE",
"50 686 LINE",
"50 0 LINE",
"178 0 LINE"
);
},
{
closed = 1;
nodes = (
"237 216 LINE",
"237 163 LINE SMOOTH",
"237 49 OFFCURVE",
"307 -12 OFFCURVE",
"431 -12 CURVE SMOOTH",
"555 -12 OFFCURVE",
"624 49 OFFCURVE",
"624 163 CURVE SMOOTH",
"624 686 LINE",
"496 686 LINE",
"496 173 LINE SMOOTH",
"496 125 OFFCURVE",
"474 98 OFFCURVE",
"431 98 CURVE SMOOTH",
"387 98 OFFCURVE",
"364 125 OFFCURVE",
"364 173 CURVE SMOOTH",
"364 216 LINE"
);
}
);
width = 684;
}
);
unicode = 0132;
},
{
glyphname = Iacute;
lastChange = "2015-02-05 02:37:04 +0000";
layers = (
{
layerId = UUID0;
name = Regular;
paths = (
{
closed = 1;
nodes = (
"178 686 LINE",
"50 686 LINE",
"50 0 LINE",
"178 0 LINE"
);
},
{
closed = 1;
nodes = (
"251 883 LINE",
"131 883 LINE",
"45 751 LINE",
"145 751 LINE",
"252 880 LINE"
);
}
);
width = 228;
}
);
unicode = 00CD;
},
{
glyphname = Ibreve;
lastChange = "2015-02-05 02:37:04 +0000";
layers = (
{
layerId = UUID0;
name = Regular;
paths = (
{
closed = 1;
nodes = (
"178 686 LINE",
"50 686 LINE",
"50 0 LINE",
"178 0 LINE"
);
},
{
closed = 1;
nodes = (
"174 883 LINE",
"172 869 OFFCURVE",
"148 850 OFFCURVE",
"114 850 CURVE SMOOTH",
"81 850 OFFCURVE",
"58 869 OFFCURVE",
"55 883 CURVE",
"-20 883 LINE",
"-20 833 OFFCURVE",
"32 776 OFFCURVE",
"114 776 CURVE SMOOTH",
"197 776 OFFCURVE",
"248 833 OFFCURVE",
"248 883 CURVE"
);
}
);
width = 228;
}
);
unicode = 012C;
},
{
glyphname = Icircumflex;
lastChange = "2015-02-05 02:37:04 +0000";
layers = (
{
layerId = UUID0;
name = Regular;
paths = (
{
closed = 1;
nodes = (
"178 686 LINE",
"50 686 LINE",
"50 0 LINE",
"178 0 LINE"
);
},
{
closed = 1;
nodes = (
"164 883 LINE",
"66 883 LINE",
"-21 748 LINE",
"70 748 LINE",
"115 817 LINE",
"159 748 LINE",
"249 748 LINE"
);
}
);
width = 228;
}
);
unicode = 00CE;
},
{
glyphname = Idieresis;
lastChange = "2015-02-05 02:37:04 +0000";
layers = (
{
layerId = UUID0;
name = Regular;
paths = (
{
closed = 1;
nodes = (
"178 686 LINE",
"50 686 LINE",
"50 0 LINE",
"178 0 LINE"
);
},
{
closed = 1;
nodes = (
"77 883 LINE",
"-23 883 LINE",
"-23 774 LINE",
"77 774 LINE"
);
},
{
closed = 1;
nodes = (
"252 883 LINE",
"152 883 LINE",
"152 774 LINE",
"252 774 LINE"
);
}
);
width = 228;
}
);
unicode = 00CF;
},
{
glyphname = Idotaccent;
lastChange = "2015-02-05 02:37:04 +0000";
layers = (
{
layerId = UUID0;
name = Regular;
paths = (
{
closed = 1;
nodes = (
"178 686 LINE",
"50 686 LINE",
"50 0 LINE",
"178 0 LINE"
);
},
{
closed = 1;
nodes = (
"168 883 LINE",
"61 883 LINE",
"61 768 LINE",
"168 768 LINE"
);
}
);
width = 228;
}
);
unicode = 0130;
},
{
glyphname = Igrave;
lastChange = "2015-02-05 02:37:04 +0000";
layers = (
{
layerId = UUID0;
name = Regular;
paths = (
{
closed = 1;
nodes = (
"178 686 LINE",
"50 686 LINE",
"50 0 LINE",
"178 0 LINE"
);
},
{
closed = 1;
nodes = (
"97 883 LINE",
"-23 883 LINE",
"-24 880 LINE",
"84 751 LINE",
"183 751 LINE"
);
}
);
width = 228;
}
);
unicode = 00CC;
},
{
glyphname = Imacron;
lastChange = "2015-02-05 02:37:04 +0000";
layers = (
{
layerId = UUID0;
name = Regular;
paths = (
{
closed = 1;
nodes = (
"178 686 LINE",
"50 686 LINE",
"50 0 LINE",
"178 0 LINE"
);
},
{
closed = 1;
nodes = (
"242 846 LINE",
"-14 846 LINE",
"-14 759 LINE",
"242 759 LINE"
);
}
);
width = 228;
}
);
unicode = 012A;
},
{
glyphname = Iogonek;
lastChange = "2015-02-05 02:37:04 +0000";
layers = (
{
layerId = UUID0;
name = Regular;
paths = (
{
closed = 1;
nodes = (
"178 686 LINE",
"50 686 LINE",
"50 0 LINE",
"94 0 LINE",
"70 -25 OFFCURVE",
"50 -53 OFFCURVE",
"50 -100 CURVE SMOOTH",
"50 -169 OFFCURVE",
"104 -190 OFFCURVE",
"149 -190 CURVE SMOOTH",
"171 -190 OFFCURVE",
"192 -185 OFFCURVE",
"215 -176 CURVE",
"215 -121 LINE",
"193 -121 LINE SMOOTH",
"160 -121 OFFCURVE",
"148 -96 OFFCURVE",
"148 -70 CURVE SMOOTH",
"148 -42 OFFCURVE",
"167 -14 OFFCURVE",
"178 0 CURVE"
);
}
);
width = 228;
}
);
unicode = 012E;
},
{
glyphname = Itilde;
lastChange = "2015-02-05 02:37:04 +0000";
layers = (
{
layerId = UUID0;
name = Regular;
paths = (
{
closed = 1;
nodes = (
"178 686 LINE",
"50 686 LINE",
"50 0 LINE",
"178 0 LINE"
);
},
{
closed = 1;
nodes = (
"216 883 LINE",
"212 855 OFFCURVE",
"199 846 OFFCURVE",
"178 846 CURVE SMOOTH",
"132 846 OFFCURVE",
"94 883 OFFCURVE",
"44 883 CURVE SMOOTH",
"-26 883 OFFCURVE",
"-54 816 OFFCURVE",
"-54 761 CURVE",
"13 761 LINE",
"17 788 OFFCURVE",
"30 798 OFFCURVE",
"52 798 CURVE SMOOTH",
"97 798 OFFCURVE",
"136 761 OFFCURVE",
"184 761 CURVE SMOOTH",
"254 761 OFFCURVE",
"283 828 OFFCURVE",
"283 883 CURVE"
);
}
);
width = 228;
}
);
unicode = 0128;
},
{
color = (31,255,0,1);
glyphname = J;
lastChange = "2015-02-05 02:37:04 +0000";
layers = (
{
anchors = (
{
name = top;
position = "{345, 686}";
}
);
background = {
paths = (
{
closed = 1;
nodes = (
"406 686 LINE",
"278 686 LINE",
"278 173 LINE SMOOTH",
"278 125 OFFCURVE",
"255 98 OFFCURVE",
"208 98 CURVE SMOOTH",
"161 98 OFFCURVE",
"136 125 OFFCURVE",
"136 173 CURVE SMOOTH",
"136 216 LINE",
"9 216 LINE",
"9 163 LINE SMOOTH",
"9 49 OFFCURVE",
"81 -12 OFFCURVE",
"208 -12 CURVE SMOOTH",
"335 -12 OFFCURVE",
"406 49 OFFCURVE",
"406 163 CURVE SMOOTH"
);
}
);
};
layerId = UUID0;
name = Regular;
paths = (
{
closed = 1;
nodes = (
"9 216 LINE",
"9 163 LINE SMOOTH",
"9 49 OFFCURVE",
"79 -12 OFFCURVE",
"203 -12 CURVE SMOOTH",
"327 -12 OFFCURVE",
"396 49 OFFCURVE",
"396 163 CURVE SMOOTH",
"396 686 LINE",
"268 686 LINE",
"268 173 LINE SMOOTH",
"268 125 OFFCURVE",
"246 98 OFFCURVE",
"203 98 CURVE SMOOTH",
"159 98 OFFCURVE",
"136 125 OFFCURVE",
"136 173 CURVE SMOOTH",
"136 216 LINE"
);
}
);
width = 456;
}
);
unicode = 004A;
},
{
color = (31,255,0,1);
glyphname = Jcircumflex;
lastChange = "2015-02-05 02:37:04 +0000";
layers = (
{
background = {
paths = (
{
closed = 1;
nodes = (
"406 686 LINE",
"278 686 LINE",
"278 173 LINE SMOOTH",
"278 125 OFFCURVE",
"255 98 OFFCURVE",
"208 98 CURVE SMOOTH",
"161 98 OFFCURVE",
"136 125 OFFCURVE",
"136 173 CURVE SMOOTH",
"136 216 LINE",
"9 216 LINE",
"9 163 LINE SMOOTH",
"9 49 OFFCURVE",
"81 -12 OFFCURVE",
"208 -12 CURVE SMOOTH",
"335 -12 OFFCURVE",
"406 49 OFFCURVE",
"406 163 CURVE SMOOTH"
);
}
);
};
layerId = UUID0;
name = Regular;
paths = (
{
closed = 1;
nodes = (
"395 883 LINE",
"296 883 LINE",
"210 748 LINE",
"300 748 LINE",
"345 817 LINE",
"390 748 LINE",
"479 748 LINE"
);
},
{
closed = 1;
nodes = (
"9 216 LINE",
"9 163 LINE SMOOTH",
"9 49 OFFCURVE",
"79 -12 OFFCURVE",
"203 -12 CURVE SMOOTH",
"327 -12 OFFCURVE",
"396 49 OFFCURVE",
"396 163 CURVE SMOOTH",
"396 686 LINE",
"268 686 LINE",
"268 173 LINE SMOOTH",
"268 125 OFFCURVE",
"246 98 OFFCURVE",
"203 98 CURVE SMOOTH",
"159 98 OFFCURVE",
"136 125 OFFCURVE",
"136 173 CURVE SMOOTH",
"136 216 LINE"
);
}
);
width = 456;
}
);
unicode = 0134;
},
{
color = (31,255,0,1);
glyphname = K;
lastChange = "2015-02-05 02:37:04 +0000";
layers = (
{
anchors = (
{
name = bottom;
position = "{296, 0}";
},
{
name = top;
position = "{296, 686}";
}
);
background = {
paths = (
{
closed = 1;
nodes = (
"583 686 LINE",
"440 686 LINE",
"179 327 LINE",
"179 686 LINE",
"50 686 LINE",
"50 0 LINE",
"179 0 LINE",
"179 167 LINE",
"286 293 LINE",
"445 0 LINE",
"589 0 LINE",
"370 394 LINE"
);
}
);
};
layerId = UUID0;
name = Regular;
paths = (
{
closed = 1;
nodes = (
"189 686 LINE",
"60 686 LINE",
"60 0 LINE",
"189 0 LINE",
"189 175 LINE",
"296 306 LINE",
"445 0 LINE",
"589 0 LINE",
"380 407 LINE",
"583 686 LINE",
"440 686 LINE",
"189 335 LINE"
);
}
);
width = 592;
}
);
unicode = 004B;
},
{
color = (31,255,0,1);
glyphname = Kcommaaccent;
lastChange = "2015-02-05 02:37:04 +0000";
layers = (
{
background = {
paths = (
{
closed = 1;
nodes = (
"583 686 LINE",
"440 686 LINE",
"179 327 LINE",
"179 686 LINE",
"50 686 LINE",
"50 0 LINE",
"179 0 LINE",
"179 167 LINE",
"286 293 LINE",
"445 0 LINE",
"589 0 LINE",
"370 394 LINE"
);
}
);
};
layerId = UUID0;
name = Regular;
paths = (
{
closed = 1;
nodes = (
"358 -55 LINE",
"234 -55 LINE",
"234 -178 LINE",
"283 -178 LINE",
"248 -263 LINE",
"312 -263 LINE",
"358 -167 LINE"
);
},
{
closed = 1;
nodes = (
"189 686 LINE",
"60 686 LINE",
"60 0 LINE",
"189 0 LINE",
"189 175 LINE",
"296 306 LINE",
"445 0 LINE",
"589 0 LINE",
"380 407 LINE",
"583 686 LINE",
"440 686 LINE",
"189 335 LINE"
);
}
);
width = 592;
}
);
unicode = 0136;
},
{
color = (31,255,0,1);
glyphname = L;
lastChange = "2015-02-05 02:37:04 +0000";
layers = (
{
anchors = (
{
name = bottom;
position = "{250, 0}";
},
{
name = top;
position = "{117, 686}";
}
);
background = {
paths = (
{
closed = 1;
nodes = (
"178 686 LINE",
"50 686 LINE",
"50 0 LINE",
"488 0 LINE",
"469 120 LINE",
"178 120 LINE"
);
}
);
};
layerId = UUID0;
name = Regular;
paths = (
{
closed = 1;
nodes = (
"60 0 LINE",
"478 0 LINE",
"478 120 LINE",
"188 120 LINE",
"188 686 LINE",
"60 686 LINE"
);
}
);
width = 501;
}
);
unicode = 004C;
},
{
color = (31,255,0,1);
glyphname = Lacute;
lastChange = "2015-02-05 02:37:04 +0000";
layers = (
{
background = {
paths = (
{
closed = 1;
nodes = (
"178 686 LINE",
"50 686 LINE",
"50 0 LINE",
"488 0 LINE",
"469 120 LINE",
"178 120 LINE"
);
}
);
};
layerId = UUID0;
name = Regular;
paths = (
{
closed = 1;
nodes = (
"264 883 LINE",
"144 883 LINE",
"58 751 LINE",
"157 751 LINE",
"265 880 LINE"
);
},
{
closed = 1;
nodes = (
"60 0 LINE",
"478 0 LINE",
"478 120 LINE",
"188 120 LINE",
"188 686 LINE",
"60 686 LINE"
);
}
);
width = 501;
}
);
unicode = 0139;
},
{
color = (31,255,0,1);
glyphname = Lcaron;
lastChange = "2015-02-05 02:37:04 +0000";
layers = (
{
background = {
paths = (
{
closed = 1;
nodes = (
"178 686 LINE",
"50 686 LINE",
"50 0 LINE",
"488 0 LINE",
"469 120 LINE",
"178 120 LINE"
);
}
);
};
layerId = UUID0;
name = Regular;
paths = (
{
closed = 1;
nodes = (
"478 686 LINE",
"340 686 LINE",
"340 549 LINE",
"395 549 LINE",
"340 393 LINE",
"412 393 LINE",
"478 561 LINE"
);
},
{
closed = 1;
nodes = (
"60 0 LINE",
"478 0 LINE",
"478 120 LINE",
"188 120 LINE",
"188 686 LINE",
"60 686 LINE"
);
}
);
width = 501;
}
);
unicode = 013D;
},
{
color = (31,255,0,1);
glyphname = Lcommaaccent;
lastChange = "2015-02-05 02:37:04 +0000";
layers = (
{
background = {
paths = (
{
closed = 1;
nodes = (
"178 686 LINE",
"50 686 LINE",
"50 0 LINE",
"488 0 LINE",
"469 120 LINE",
"178 120 LINE"
);
}
);
};
layerId = UUID0;
name = Regular;
paths = (
{
closed = 1;
nodes = (
"312 -55 LINE",
"189 -55 LINE",
"189 -178 LINE",
"238 -178 LINE",
"202 -263 LINE",
"267 -263 LINE",
"312 -167 LINE"
);
},
{
closed = 1;
nodes = (
"60 0 LINE",
"478 0 LINE",
"478 120 LINE",
"188 120 LINE",
"188 686 LINE",
"60 686 LINE"
);
}
);
width = 501;
}
);
unicode = 013B;
},
{
color = (31,255,0,1);
glyphname = Ldot;
lastChange = "2015-02-05 02:37:04 +0000";
layers = (
{
background = {
paths = (
{
closed = 1;
nodes = (
"178 686 LINE",
"50 686 LINE",
"50 0 LINE",
"488 0 LINE",
"469 120 LINE",
"178 120 LINE"
);
}
);
};
layerId = UUID0;
name = Regular;
paths = (
{
closed = 1;
nodes = (
"420 524 LINE",
"313 524 LINE",
"313 409 LINE",
"420 409 LINE"
);
},
{
closed = 1;
nodes = (
"60 0 LINE",
"478 0 LINE",
"478 120 LINE",
"188 120 LINE",
"188 686 LINE",
"60 686 LINE"
);
}
);
width = 501;
}
);
unicode = 013F;
},
{
color = (31,255,0,1);
glyphname = Lslash;
lastChange = "2015-02-05 02:37:04 +0000";
layers = (
{
background = {
paths = (
{
closed = 1;
nodes = (
"60 0 LINE",
"478 0 LINE",
"478 120 LINE",
"188 120 LINE",
"188 686 LINE",
"60 686 LINE"
);
}
);
};
layerId = UUID0;
name = Regular;
paths = (
{
closed = 1;
nodes = (
"304 550 LINE",
"188 446 LINE",
"188 686 LINE",
"60 686 LINE",
"60 332 LINE",
"0 279 LINE",
"0 184 LINE",
"60 237 LINE",
"60 0 LINE",
"478 0 LINE",
"478 120 LINE",
"188 120 LINE",
"188 350 LINE",
"304 453 LINE"
);
}
);
width = 501;
}
);
unicode = 0141;
},
{
color = (31,255,0,1);
glyphname = M;
lastChange = "2015-02-05 02:37:04 +0000";
layers = (
{
background = {
paths = (
{
closed = 1;
nodes = (
"638 686 LINE",
"461 686 LINE",
"372 300 LINE SMOOTH",
"363 260 OFFCURVE",
"349 145 OFFCURVE",
"349 145 CURVE",
"345 145 LINE",
"345 145 OFFCURVE",
"332 255 OFFCURVE",
"322 300 CURVE SMOOTH",
"234 686 LINE",
"45 686 LINE",
"45 0 LINE",
"158 0 LINE",
"158 437 LINE SMOOTH",
"158 464 OFFCURVE",
"153 547 OFFCURVE",
"153 547 CURVE",
"157 547 LINE",
"280 0 LINE",
"393 0 LINE",
"517 547 LINE",
"521 547 LINE",
"521 547 OFFCURVE",
"516 468 OFFCURVE",
"516 437 CURVE SMOOTH",
"516 0 LINE",
"638 0 LINE"
);
}
);
};
layerId = UUID0;
name = Regular;
paths = (
{
closed = 1;
nodes = (
"630 0 LINE",
"630 686 LINE",
"456 686 LINE",
"372 308 LINE SMOOTH",
"363 268 OFFCURVE",
"349 153 OFFCURVE",
"349 153 CURVE",
"345 153 LINE",
"345 153 OFFCURVE",
"328 263 OFFCURVE",
"318 308 CURVE SMOOTH",
"233 686 LINE",
"53 686 LINE",
"53 0 LINE",
"162 0 LINE",
"162 437 LINE SMOOTH",
"162 464 OFFCURVE",
"157 547 OFFCURVE",
"157 547 CURVE",
"161 547 LINE",
"282 0 LINE",
"393 0 LINE",
"513 547 LINE",
"517 547 LINE",
"517 547 OFFCURVE",
"512 468 OFFCURVE",
"512 437 CURVE SMOOTH",
"512 0 LINE"
);
}
);
width = 683;
}
);
unicode = 004D;
},
{
color = (31,255,0,1);
glyphname = N;
lastChange = "2015-02-05 02:37:04 +0000";
layers = (
{
anchors = (
{
name = bottom;
position = "{296, 0}";
},
{
name = top;
position = "{296, 686}";
}
);
background = {
paths = (
{
closed = 1;
nodes = (
"542 686 LINE",
"422 686 LINE",
"422 298 LINE SMOOTH",
"422 287 OFFCURVE",
"427 241 OFFCURVE",
"427 241 CURVE",
"424 238 LINE",
"424 238 OFFCURVE",
"405 281 OFFCURVE",
"395 298 CURVE SMOOTH",
"168 686 LINE",
"50 686 LINE",
"50 0 LINE",
"169 0 LINE",
"169 388 LINE SMOOTH",
"169 406 OFFCURVE",
"164 445 OFFCURVE",
"164 445 CURVE",
"168 448 LINE",
"168 448 OFFCURVE",
"188 402 OFFCURVE",
"196 388 CURVE SMOOTH",
"424 0 LINE",
"542 0 LINE"
);
}
);
};
layerId = UUID0;
name = Regular;
paths = (
{
closed = 1;
nodes = (
"532 0 LINE",
"532 686 LINE",
"418 686 LINE",
"418 304 LINE SMOOTH",
"418 293 OFFCURVE",
"419 247 OFFCURVE",
"419 247 CURVE",
"416 244 LINE",
"416 244 OFFCURVE",
"396 291 OFFCURVE",
"385 308 CURVE",
"173 686 LINE",
"60 686 LINE",
"60 0 LINE",
"173 0 LINE",
"173 382 LINE SMOOTH",
"173 400 OFFCURVE",
"171 439 OFFCURVE",
"171 439 CURVE",
"175 442 LINE",
"175 442 OFFCURVE",
"198 392 OFFCURVE",
"206 378 CURVE SMOOTH",
"418 0 LINE"
);
}
);
width = 592;
}
);
unicode = 004E;
},
{
color = (31,255,0,1);
glyphname = Nacute;
lastChange = "2015-02-05 02:37:04 +0000";
layers = (
{
background = {
paths = (
{
closed = 1;
nodes = (
"542 686 LINE",
"422 686 LINE",
"422 298 LINE SMOOTH",
"422 287 OFFCURVE",
"427 241 OFFCURVE",
"427 241 CURVE",
"424 238 LINE",
"424 238 OFFCURVE",
"405 281 OFFCURVE",
"395 298 CURVE SMOOTH",
"168 686 LINE",
"50 686 LINE",
"50 0 LINE",
"169 0 LINE",
"169 388 LINE SMOOTH",
"169 406 OFFCURVE",
"164 445 OFFCURVE",
"164 445 CURVE",
"168 448 LINE",
"168 448 OFFCURVE",
"188 402 OFFCURVE",
"196 388 CURVE SMOOTH",
"424 0 LINE",
"542 0 LINE"
);
}
);
};
layerId = UUID0;
name = Regular;
paths = (
{
closed = 1;
nodes = (
"433 883 LINE",
"313 883 LINE",
"227 751 LINE",
"326 751 LINE",
"434 880 LINE"
);
},
{
closed = 1;
nodes = (
"532 0 LINE",
"532 686 LINE",
"418 686 LINE",
"418 304 LINE SMOOTH",
"418 293 OFFCURVE",
"419 247 OFFCURVE",
"419 247 CURVE",
"416 244 LINE",
"416 244 OFFCURVE",
"396 291 OFFCURVE",
"385 308 CURVE",
"173 686 LINE",
"60 686 LINE",
"60 0 LINE",
"173 0 LINE",
"173 382 LINE SMOOTH",
"173 400 OFFCURVE",
"171 439 OFFCURVE",
"171 439 CURVE",
"175 442 LINE",
"175 442 OFFCURVE",
"198 392 OFFCURVE",
"206 378 CURVE SMOOTH",
"418 0 LINE"
);
}
);
width = 592;
}
);
unicode = 0143;
},
{
color = (31,255,0,1);
glyphname = Ncaron;
lastChange = "2015-02-05 02:37:04 +0000";
layers = (
{
background = {
paths = (
{
closed = 1;
nodes = (
"542 686 LINE",
"422 686 LINE",
"422 298 LINE SMOOTH",
"422 287 OFFCURVE",
"427 241 OFFCURVE",
"427 241 CURVE",
"424 238 LINE",
"424 238 OFFCURVE",
"405 281 OFFCURVE",
"395 298 CURVE SMOOTH",
"168 686 LINE",
"50 686 LINE",
"50 0 LINE",
"169 0 LINE",
"169 388 LINE SMOOTH",
"169 406 OFFCURVE",
"164 445 OFFCURVE",
"164 445 CURVE",
"168 448 LINE",
"168 448 OFFCURVE",
"188 402 OFFCURVE",
"196 388 CURVE SMOOTH",
"424 0 LINE",
"542 0 LINE"
);
}
);
};
layerId = UUID0;
name = Regular;
paths = (
{
closed = 1;
nodes = (
"431 883 LINE",
"341 883 LINE",
"296 814 LINE",
"251 883 LINE",
"162 883 LINE",
"248 748 LINE",
"346 748 LINE"
);
},
{
closed = 1;
nodes = (
"532 0 LINE",
"532 686 LINE",
"418 686 LINE",
"418 304 LINE SMOOTH",
"418 293 OFFCURVE",
"419 247 OFFCURVE",
"419 247 CURVE",
"416 244 LINE",
"416 244 OFFCURVE",
"396 291 OFFCURVE",
"385 308 CURVE",
"173 686 LINE",
"60 686 LINE",
"60 0 LINE",
"173 0 LINE",
"173 382 LINE SMOOTH",
"173 400 OFFCURVE",
"171 439 OFFCURVE",
"171 439 CURVE",
"175 442 LINE",
"175 442 OFFCURVE",
"198 392 OFFCURVE",
"206 378 CURVE SMOOTH",
"418 0 LINE"
);
}
);
width = 592;
}
);
unicode = 0147;
},
{
color = (31,255,0,1);
glyphname = Ncommaaccent;
lastChange = "2015-02-05 02:37:04 +0000";
layers = (
{
background = {
paths = (
{
closed = 1;
nodes = (
"542 686 LINE",
"422 686 LINE",
"422 298 LINE SMOOTH",
"422 287 OFFCURVE",
"427 241 OFFCURVE",
"427 241 CURVE",
"424 238 LINE",
"424 238 OFFCURVE",
"405 281 OFFCURVE",
"395 298 CURVE SMOOTH",
"168 686 LINE",
"50 686 LINE",
"50 0 LINE",
"169 0 LINE",
"169 388 LINE SMOOTH",
"169 406 OFFCURVE",
"164 445 OFFCURVE",
"164 445 CURVE",
"168 448 LINE",
"168 448 OFFCURVE",
"188 402 OFFCURVE",
"196 388 CURVE SMOOTH",
"424 0 LINE",
"542 0 LINE"
);
}
);
};
layerId = UUID0;
name = Regular;
paths = (
{
closed = 1;
nodes = (
"358 -55 LINE",
"234 -55 LINE",
"234 -178 LINE",
"283 -178 LINE",
"248 -263 LINE",
"312 -263 LINE",
"358 -167 LINE"
);
},
{
closed = 1;
nodes = (
"532 0 LINE",
"532 686 LINE",
"418 686 LINE",
"418 304 LINE SMOOTH",
"418 293 OFFCURVE",
"419 247 OFFCURVE",
"419 247 CURVE",
"416 244 LINE",
"416 244 OFFCURVE",
"396 291 OFFCURVE",
"385 308 CURVE",
"173 686 LINE",
"60 686 LINE",
"60 0 LINE",
"173 0 LINE",
"173 382 LINE SMOOTH",
"173 400 OFFCURVE",
"171 439 OFFCURVE",
"171 439 CURVE",
"175 442 LINE",
"175 442 OFFCURVE",
"198 392 OFFCURVE",
"206 378 CURVE SMOOTH",
"418 0 LINE"
);
}
);
width = 592;
}
);
unicode = 0145;
},
{
color = (31,255,0,1);
glyphname = Eng;
lastChange = "2015-02-05 02:37:04 +0000";
layers = (
{
background = {
paths = (
{
closed = 1;
nodes = (
"542 686 LINE",
"422 686 LINE",
"422 298 LINE SMOOTH",
"422 287 OFFCURVE",
"427 241 OFFCURVE",
"427 241 CURVE",
"424 238 LINE",
"424 238 OFFCURVE",
"405 281 OFFCURVE",
"395 298 CURVE SMOOTH",
"168 686 LINE",
"50 686 LINE",
"50 0 LINE",
"169 0 LINE",
"169 388 LINE SMOOTH",
"169 406 OFFCURVE",
"164 445 OFFCURVE",
"164 445 CURVE",
"168 448 LINE",
"168 448 OFFCURVE",
"188 402 OFFCURVE",
"196 388 CURVE SMOOTH",
"422 3 LINE",
"422 -33 LINE",
"422 -64 OFFCURVE",
"406 -81 OFFCURVE",
"375 -81 CURVE SMOOTH",
"331 -81 LINE",
"331 -170 LINE",
"352 -176 OFFCURVE",
"390 -182 OFFCURVE",
"420 -182 CURVE SMOOTH",
"516 -182 OFFCURVE",
"542 -111 OFFCURVE",
"542 -41 CURVE SMOOTH"
);
}
);
};
layerId = UUID0;
name = Regular;
paths = (
{
closed = 1;
nodes = (
"415 0 LINE",
"415 -33 LINE SMOOTH",
"415 -64 OFFCURVE",
"399 -81 OFFCURVE",
"368 -81 CURVE SMOOTH",
"323 -81 LINE",
"323 -170 LINE",
"344 -176 OFFCURVE",
"380 -182 OFFCURVE",
"410 -182 CURVE SMOOTH",
"506 -182 OFFCURVE",
"532 -111 OFFCURVE",
"532 -41 CURVE SMOOTH",
"532 686 LINE",
"418 686 LINE",
"418 304 LINE SMOOTH",
"418 293 OFFCURVE",
"419 247 OFFCURVE",
"419 247 CURVE",
"416 244 LINE",
"416 244 OFFCURVE",
"396 291 OFFCURVE",
"385 308 CURVE",
"173 686 LINE",
"60 686 LINE",
"60 0 LINE",
"173 0 LINE",
"173 382 LINE SMOOTH",
"173 400 OFFCURVE",
"171 439 OFFCURVE",
"171 439 CURVE",
"175 442 LINE",
"175 442 OFFCURVE",
"198 392 OFFCURVE",
"206 378 CURVE SMOOTH"
);
}
);
width = 593;
}
);
unicode = 014A;
},
{
color = (31,255,0,1);
glyphname = Ntilde;
lastChange = "2015-02-05 02:37:04 +0000";
layers = (
{
background = {
paths = (
{
closed = 1;
nodes = (
"542 686 LINE",
"422 686 LINE",
"422 298 LINE SMOOTH",
"422 287 OFFCURVE",
"427 241 OFFCURVE",
"427 241 CURVE",
"424 238 LINE",
"424 238 OFFCURVE",
"405 281 OFFCURVE",
"395 298 CURVE SMOOTH",
"168 686 LINE",
"50 686 LINE",
"50 0 LINE",
"169 0 LINE",
"169 388 LINE SMOOTH",
"169 406 OFFCURVE",
"164 445 OFFCURVE",
"164 445 CURVE",
"168 448 LINE",
"168 448 OFFCURVE",
"188 402 OFFCURVE",
"196 388 CURVE SMOOTH",
"424 0 LINE",
"542 0 LINE"
);
}
);
};
layerId = UUID0;
name = Regular;
paths = (
{
closed = 1;
nodes = (
"398 883 LINE",
"394 855 OFFCURVE",
"380 846 OFFCURVE",
"359 846 CURVE SMOOTH",
"314 846 OFFCURVE",
"275 883 OFFCURVE",
"226 883 CURVE SMOOTH",
"156 883 OFFCURVE",
"128 816 OFFCURVE",
"128 761 CURVE",
"194 761 LINE",
"198 788 OFFCURVE",
"212 798 OFFCURVE",
"233 798 CURVE SMOOTH",
"278 798 OFFCURVE",
"317 761 OFFCURVE",
"365 761 CURVE SMOOTH",
"436 761 OFFCURVE",
"464 828 OFFCURVE",
"464 883 CURVE"
);
},
{
closed = 1;
nodes = (
"532 0 LINE",
"532 686 LINE",
"418 686 LINE",
"418 304 LINE SMOOTH",
"418 293 OFFCURVE",
"419 247 OFFCURVE",
"419 247 CURVE",
"416 244 LINE",
"416 244 OFFCURVE",
"396 291 OFFCURVE",
"385 308 CURVE",
"173 686 LINE",
"60 686 LINE",
"60 0 LINE",
"173 0 LINE",
"173 382 LINE SMOOTH",
"173 400 OFFCURVE",
"171 439 OFFCURVE",
"171 439 CURVE",
"175 442 LINE",
"175 442 OFFCURVE",
"198 392 OFFCURVE",
"206 378 CURVE SMOOTH",
"418 0 LINE"
);
}
);
width = 592;
}
);
unicode = 00D1;
},
{
glyphname = O;
lastChange = "2015-02-05 02:37:04 +0000";
layers = (
{
anchors = (
{
name = top;
position = "{319, 686}";
}
);
layerId = UUID0;
name = Regular;
paths = (
{
closed = 1;
nodes = (
"142 698 OFFCURVE",
"34 585 OFFCURVE",
"34 343 CURVE SMOOTH",
"34 101 OFFCURVE",
"142 -12 OFFCURVE",
"319 -12 CURVE SMOOTH",
"496 -12 OFFCURVE",
"604 101 OFFCURVE",
"604 343 CURVE SMOOTH",
"604 585 OFFCURVE",
"496 698 OFFCURVE",
"319 698 CURVE SMOOTH"
);
},
{
closed = 1;
nodes = (
"421 588 OFFCURVE",
"472 505 OFFCURVE",
"472 368 CURVE SMOOTH",
"472 318 LINE SMOOTH",
"472 181 OFFCURVE",
"421 98 OFFCURVE",
"319 98 CURVE SMOOTH",
"217 98 OFFCURVE",
"166 181 OFFCURVE",
"166 318 CURVE SMOOTH",
"166 368 LINE",
"166 505 OFFCURVE",
"217 588 OFFCURVE",
"319 588 CURVE SMOOTH"
);
}
);
width = 638;
}
);
unicode = 004F;
},
{
glyphname = Oacute;
lastChange = "2015-02-05 02:37:04 +0000";
layers = (
{
layerId = UUID0;
name = Regular;
paths = (
{
closed = 1;
nodes = (
"142 698 OFFCURVE",
"34 585 OFFCURVE",
"34 343 CURVE SMOOTH",
"34 101 OFFCURVE",
"142 -12 OFFCURVE",
"319 -12 CURVE SMOOTH",
"496 -12 OFFCURVE",
"604 101 OFFCURVE",
"604 343 CURVE SMOOTH",
"604 585 OFFCURVE",
"496 698 OFFCURVE",
"319 698 CURVE SMOOTH"
);
},
{
closed = 1;
nodes = (
"421 588 OFFCURVE",
"472 505 OFFCURVE",
"472 368 CURVE SMOOTH",
"472 318 LINE SMOOTH",
"472 181 OFFCURVE",
"421 98 OFFCURVE",
"319 98 CURVE SMOOTH",
"217 98 OFFCURVE",
"166 181 OFFCURVE",
"166 318 CURVE SMOOTH",
"166 368 LINE",
"166 505 OFFCURVE",
"217 588 OFFCURVE",
"319 588 CURVE SMOOTH"
);
},
{
closed = 1;
nodes = (
"457 883 LINE",
"336 883 LINE",
"250 751 LINE",
"350 751 LINE",
"458 880 LINE"
);
}
);
width = 638;
}
);
unicode = 00D3;
},
{
glyphname = Obreve;
lastChange = "2015-02-05 02:37:04 +0000";
layers = (
{
layerId = UUID0;
name = Regular;
paths = (
{
closed = 1;
nodes = (
"142 698 OFFCURVE",
"34 585 OFFCURVE",
"34 343 CURVE SMOOTH",
"34 101 OFFCURVE",
"142 -12 OFFCURVE",
"319 -12 CURVE SMOOTH",
"496 -12 OFFCURVE",
"604 101 OFFCURVE",
"604 343 CURVE SMOOTH",
"604 585 OFFCURVE",
"496 698 OFFCURVE",
"319 698 CURVE SMOOTH"
);
},
{
closed = 1;
nodes = (
"421 588 OFFCURVE",
"472 505 OFFCURVE",
"472 368 CURVE SMOOTH",
"472 318 LINE SMOOTH",
"472 181 OFFCURVE",
"421 98 OFFCURVE",
"319 98 CURVE SMOOTH",
"217 98 OFFCURVE",
"166 181 OFFCURVE",
"166 318 CURVE SMOOTH",
"166 368 LINE",
"166 505 OFFCURVE",
"217 588 OFFCURVE",
"319 588 CURVE SMOOTH"
);
},
{
closed = 1;
nodes = (
"379 883 LINE",
"377 869 OFFCURVE",
"353 850 OFFCURVE",
"319 850 CURVE SMOOTH",
"286 850 OFFCURVE",
"263 869 OFFCURVE",
"260 883 CURVE",
"186 883 LINE",
"186 833 OFFCURVE",
"237 776 OFFCURVE",
"319 776 CURVE SMOOTH",
"402 776 OFFCURVE",
"453 833 OFFCURVE",
"453 883 CURVE"
);
}
);
width = 638;
}
);
unicode = 014E;
},
{
glyphname = Ocircumflex;
lastChange = "2015-02-05 02:37:04 +0000";
layers = (
{
layerId = UUID0;
name = Regular;
paths = (
{
closed = 1;
nodes = (
"142 698 OFFCURVE",
"34 585 OFFCURVE",
"34 343 CURVE SMOOTH",
"34 101 OFFCURVE",
"142 -12 OFFCURVE",
"319 -12 CURVE SMOOTH",
"496 -12 OFFCURVE",
"604 101 OFFCURVE",
"604 343 CURVE SMOOTH",
"604 585 OFFCURVE",
"496 698 OFFCURVE",
"319 698 CURVE SMOOTH"
);
},
{
closed = 1;
nodes = (
"421 588 OFFCURVE",
"472 505 OFFCURVE",
"472 368 CURVE SMOOTH",
"472 318 LINE SMOOTH",
"472 181 OFFCURVE",
"421 98 OFFCURVE",
"319 98 CURVE SMOOTH",
"217 98 OFFCURVE",
"166 181 OFFCURVE",
"166 318 CURVE SMOOTH",
"166 368 LINE",
"166 505 OFFCURVE",
"217 588 OFFCURVE",
"319 588 CURVE SMOOTH"
);
},
{
closed = 1;
nodes = (
"369 883 LINE",
"271 883 LINE",
"185 748 LINE",
"275 748 LINE",
"320 817 LINE",
"364 748 LINE",
"454 748 LINE"
);
}
);
width = 638;
}
);
unicode = 00D4;
},
{
glyphname = Odieresis;
lastChange = "2015-02-05 02:37:04 +0000";
layers = (
{
layerId = UUID0;
name = Regular;
paths = (
{
closed = 1;
nodes = (
"142 698 OFFCURVE",
"34 585 OFFCURVE",
"34 343 CURVE SMOOTH",
"34 101 OFFCURVE",
"142 -12 OFFCURVE",
"319 -12 CURVE SMOOTH",
"496 -12 OFFCURVE",
"604 101 OFFCURVE",
"604 343 CURVE SMOOTH",
"604 585 OFFCURVE",
"496 698 OFFCURVE",
"319 698 CURVE SMOOTH"
);
},
{
closed = 1;
nodes = (
"421 588 OFFCURVE",
"472 505 OFFCURVE",
"472 368 CURVE SMOOTH",
"472 318 LINE SMOOTH",
"472 181 OFFCURVE",
"421 98 OFFCURVE",
"319 98 CURVE SMOOTH",
"217 98 OFFCURVE",
"166 181 OFFCURVE",
"166 318 CURVE SMOOTH",
"166 368 LINE",
"166 505 OFFCURVE",
"217 588 OFFCURVE",
"319 588 CURVE SMOOTH"
);
},
{
closed = 1;
nodes = (
"282 883 LINE",
"182 883 LINE",
"182 774 LINE",
"282 774 LINE"
);
},
{
closed = 1;
nodes = (
"457 883 LINE",
"357 883 LINE",
"357 774 LINE",
"457 774 LINE"
);
}
);
width = 638;
}
);
unicode = 00D6;
},
{
glyphname = Ograve;
lastChange = "2015-02-05 02:37:04 +0000";
layers = (
{
layerId = UUID0;
name = Regular;
paths = (
{
closed = 1;
nodes = (
"142 698 OFFCURVE",
"34 585 OFFCURVE",
"34 343 CURVE SMOOTH",
"34 101 OFFCURVE",
"142 -12 OFFCURVE",
"319 -12 CURVE SMOOTH",
"496 -12 OFFCURVE",
"604 101 OFFCURVE",
"604 343 CURVE SMOOTH",
"604 585 OFFCURVE",
"496 698 OFFCURVE",
"319 698 CURVE SMOOTH"
);
},
{
closed = 1;
nodes = (
"421 588 OFFCURVE",
"472 505 OFFCURVE",
"472 368 CURVE SMOOTH",
"472 318 LINE SMOOTH",
"472 181 OFFCURVE",
"421 98 OFFCURVE",
"319 98 CURVE SMOOTH",
"217 98 OFFCURVE",
"166 181 OFFCURVE",
"166 318 CURVE SMOOTH",
"166 368 LINE",
"166 505 OFFCURVE",
"217 588 OFFCURVE",
"319 588 CURVE SMOOTH"
);
},
{
closed = 1;
nodes = (
"302 883 LINE",
"182 883 LINE",
"181 880 LINE",
"289 751 LINE",
"388 751 LINE"
);
}
);
width = 638;
}
);
unicode = 00D2;
},
{
glyphname = Ohungarumlaut;
lastChange = "2015-02-05 02:37:04 +0000";
layers = (
{
layerId = UUID0;
name = Regular;
paths = (
{
closed = 1;
nodes = (
"142 698 OFFCURVE",
"34 585 OFFCURVE",
"34 343 CURVE SMOOTH",
"34 101 OFFCURVE",
"142 -12 OFFCURVE",
"319 -12 CURVE SMOOTH",
"496 -12 OFFCURVE",
"604 101 OFFCURVE",
"604 343 CURVE SMOOTH",
"604 585 OFFCURVE",
"496 698 OFFCURVE",
"319 698 CURVE SMOOTH"
);
},
{
closed = 1;
nodes = (
"421 588 OFFCURVE",
"472 505 OFFCURVE",
"472 368 CURVE SMOOTH",
"472 318 LINE SMOOTH",
"472 181 OFFCURVE",
"421 98 OFFCURVE",
"319 98 CURVE SMOOTH",
"217 98 OFFCURVE",
"166 181 OFFCURVE",
"166 318 CURVE SMOOTH",
"166 368 LINE",
"166 505 OFFCURVE",
"217 588 OFFCURVE",
"319 588 CURVE SMOOTH"
);
},
{
closed = 1;
nodes = (
"369 883 LINE",
"269 883 LINE",
"207 751 LINE",
"286 751 LINE",
"370 880 LINE"
);
},
{
closed = 1;
nodes = (
"509 883 LINE",
"409 883 LINE",
"347 751 LINE",
"426 751 LINE",
"510 880 LINE"
);
}
);
width = 638;
}
);
unicode = 0150;
},
{
glyphname = Omacron;
lastChange = "2015-02-05 02:37:04 +0000";
layers = (
{
layerId = UUID0;
name = Regular;
paths = (
{
closed = 1;
nodes = (
"142 698 OFFCURVE",
"34 585 OFFCURVE",
"34 343 CURVE SMOOTH",
"34 101 OFFCURVE",
"142 -12 OFFCURVE",
"319 -12 CURVE SMOOTH",
"496 -12 OFFCURVE",
"604 101 OFFCURVE",
"604 343 CURVE SMOOTH",
"604 585 OFFCURVE",
"496 698 OFFCURVE",
"319 698 CURVE SMOOTH"
);
},
{
closed = 1;
nodes = (
"421 588 OFFCURVE",
"472 505 OFFCURVE",
"472 368 CURVE SMOOTH",
"472 318 LINE SMOOTH",
"472 181 OFFCURVE",
"421 98 OFFCURVE",
"319 98 CURVE SMOOTH",
"217 98 OFFCURVE",
"166 181 OFFCURVE",
"166 318 CURVE SMOOTH",
"166 368 LINE",
"166 505 OFFCURVE",
"217 588 OFFCURVE",
"319 588 CURVE SMOOTH"
);
},
{
closed = 1;
nodes = (
"447 846 LINE",
"192 846 LINE",
"192 759 LINE",
"447 759 LINE"
);
}
);
width = 638;
}
);
unicode = 014C;
},
{
glyphname = Oslash;
lastChange = "2015-02-05 02:37:04 +0000";
layers = (
{
anchors = (
{
name = top;
position = "{319, 686}";
}
);
layerId = UUID0;
name = Regular;
paths = (
{
closed = 1;
nodes = (
"599 723 LINE",
"515 723 LINE",
"474 658 LINE",
"431 685 OFFCURVE",
"379 698 OFFCURVE",
"319 698 CURVE SMOOTH",
"142 698 OFFCURVE",
"34 585 OFFCURVE",
"34 343 CURVE SMOOTH",
"34 222 OFFCURVE",
"61 133 OFFCURVE",
"110 75 CURVE",
"40 -37 LINE",
"124 -37 LINE",
"164 27 LINE",
"207 1 OFFCURVE",
"259 -12 OFFCURVE",
"319 -12 CURVE SMOOTH",
"496 -12 OFFCURVE",
"604 101 OFFCURVE",
"604 343 CURVE SMOOTH",
"604 463 OFFCURVE",
"577 552 OFFCURVE",
"528 610 CURVE"
);
},
{
closed = 1;
nodes = (
"453 490 LINE",
"466 457 OFFCURVE",
"472 415 OFFCURVE",
"472 368 CURVE",
"472 318 LINE SMOOTH",
"472 181 OFFCURVE",
"421 98 OFFCURVE",
"319 98 CURVE SMOOTH",
"282 98 OFFCURVE",
"251 109 OFFCURVE",
"228 129 CURVE"
);
},
{
closed = 1;
nodes = (
"356 588 OFFCURVE",
"387 577 OFFCURVE",
"410 556 CURVE",
"184 194 LINE",
"172 228 OFFCURVE",
"166 270 OFFCURVE",
"166 318 CURVE SMOOTH",
"166 368 LINE SMOOTH",
"166 505 OFFCURVE",
"217 588 OFFCURVE",
"319 588 CURVE SMOOTH"
);
}
);
width = 638;
}
);
unicode = 00D8;
},
{
glyphname = Oslashacute;
lastChange = "2015-02-05 02:37:04 +0000";
layers = (
{
layerId = UUID0;
name = Regular;
paths = (
{
closed = 1;
nodes = (
"599 723 LINE",
"515 723 LINE",
"474 658 LINE",
"431 685 OFFCURVE",
"379 698 OFFCURVE",
"319 698 CURVE SMOOTH",
"142 698 OFFCURVE",
"34 585 OFFCURVE",
"34 343 CURVE SMOOTH",
"34 222 OFFCURVE",
"61 133 OFFCURVE",
"110 75 CURVE",
"40 -37 LINE",
"124 -37 LINE",
"164 27 LINE",
"207 1 OFFCURVE",
"259 -12 OFFCURVE",
"319 -12 CURVE SMOOTH",
"496 -12 OFFCURVE",
"604 101 OFFCURVE",
"604 343 CURVE SMOOTH",
"604 463 OFFCURVE",
"577 552 OFFCURVE",
"528 610 CURVE"
);
},
{
closed = 1;
nodes = (
"453 490 LINE",
"466 457 OFFCURVE",
"472 415 OFFCURVE",
"472 368 CURVE",
"472 318 LINE SMOOTH",
"472 181 OFFCURVE",
"421 98 OFFCURVE",
"319 98 CURVE SMOOTH",
"282 98 OFFCURVE",
"251 109 OFFCURVE",
"228 129 CURVE"
);
},
{
closed = 1;
nodes = (
"356 588 OFFCURVE",
"387 577 OFFCURVE",
"410 556 CURVE",
"184 194 LINE",
"172 228 OFFCURVE",
"166 270 OFFCURVE",
"166 318 CURVE SMOOTH",
"166 368 LINE SMOOTH",
"166 505 OFFCURVE",
"217 588 OFFCURVE",
"319 588 CURVE SMOOTH"
);
},
{
closed = 1;
nodes = (
"457 883 LINE",
"336 883 LINE",
"250 751 LINE",
"350 751 LINE",
"458 880 LINE"
);
}
);
width = 638;
}
);
unicode = 01FE;
},
{
glyphname = Otilde;
lastChange = "2015-02-05 02:37:04 +0000";
layers = (
{
layerId = UUID0;
name = Regular;
paths = (
{
closed = 1;
nodes = (
"142 698 OFFCURVE",
"34 585 OFFCURVE",
"34 343 CURVE SMOOTH",
"34 101 OFFCURVE",
"142 -12 OFFCURVE",
"319 -12 CURVE SMOOTH",
"496 -12 OFFCURVE",
"604 101 OFFCURVE",
"604 343 CURVE SMOOTH",
"604 585 OFFCURVE",
"496 698 OFFCURVE",
"319 698 CURVE SMOOTH"
);
},
{
closed = 1;
nodes = (
"421 588 OFFCURVE",
"472 505 OFFCURVE",
"472 368 CURVE SMOOTH",
"472 318 LINE SMOOTH",
"472 181 OFFCURVE",
"421 98 OFFCURVE",
"319 98 CURVE SMOOTH",
"217 98 OFFCURVE",
"166 181 OFFCURVE",
"166 318 CURVE SMOOTH",
"166 368 LINE",
"166 505 OFFCURVE",
"217 588 OFFCURVE",
"319 588 CURVE SMOOTH"
);
},
{
closed = 1;
nodes = (
"421 883 LINE",
"417 855 OFFCURVE",
"404 846 OFFCURVE",
"383 846 CURVE SMOOTH",
"337 846 OFFCURVE",
"299 883 OFFCURVE",
"250 883 CURVE SMOOTH",
"180 883 OFFCURVE",
"151 816 OFFCURVE",
"151 761 CURVE",
"218 761 LINE",
"222 788 OFFCURVE",
"235 798 OFFCURVE",
"257 798 CURVE SMOOTH",
"302 798 OFFCURVE",
"341 761 OFFCURVE",
"389 761 CURVE SMOOTH",
"459 761 OFFCURVE",
"488 828 OFFCURVE",
"488 883 CURVE"
);
}
);
width = 638;
}
);
unicode = 00D5;
},
{
color = (31,255,0,1);
glyphname = OE;
lastChange = "2015-02-05 02:37:04 +0000";
layers = (
{
anchors = (
{
name = top;
position = "{408, 686}";
}
);
background = {
paths = (
{
closed = 1;
nodes = (
"117 698 OFFCURVE",
"30 585 OFFCURVE",
"30 343 CURVE SMOOTH",
"30 101 OFFCURVE",
"117 -12 OFFCURVE",
"258 -12 CURVE SMOOTH",
"319 -12 OFFCURVE",
"370 11 OFFCURVE",
"408 61 CURVE",
"408 0 LINE",
"800 0 LINE",
"783 114 LINE",
"536 114 LINE",
"536 294 LINE",
"753 294 LINE",
"753 408 LINE",
"536 408 LINE",
"536 572 LINE",
"777 572 LINE",
"793 686 LINE",
"408 686 LINE",
"408 624 LINE",
"370 674 OFFCURVE",
"319 698 OFFCURVE",
"258 698 CURVE SMOOTH"
);
},
{
closed = 1;
nodes = (
"366 588 OFFCURVE",
"407 525 OFFCURVE",
"407 368 CURVE SMOOTH",
"407 318 LINE SMOOTH",
"407 161 OFFCURVE",
"366 98 OFFCURVE",
"284 98 CURVE SMOOTH",
"203 98 OFFCURVE",
"162 161 OFFCURVE",
"162 318 CURVE SMOOTH",
"162 368 LINE",
"162 525 OFFCURVE",
"203 588 OFFCURVE",
"284 588 CURVE SMOOTH"
);
}
);
};
layerId = UUID0;
name = Regular;
paths = (
{
closed = 1;
nodes = (
"30 101 OFFCURVE",
"117 -12 OFFCURVE",
"258 -12 CURVE SMOOTH",
"319 -12 OFFCURVE",
"370 11 OFFCURVE",
"408 61 CURVE",
"408 0 LINE",
"792 0 LINE",
"792 114 LINE",
"536 114 LINE",
"536 294 LINE",
"742 294 LINE",
"742 408 LINE",
"536 408 LINE",
"536 572 LINE",
"785 572 LINE",
"785 686 LINE",
"408 686 LINE",
"408 624 LINE",
"370 674 OFFCURVE",
"319 698 OFFCURVE",
"258 698 CURVE SMOOTH",
"117 698 OFFCURVE",
"30 585 OFFCURVE",
"30 343 CURVE SMOOTH"
);
},
{
closed = 1;
nodes = (
"162 368 LINE",
"162 525 OFFCURVE",
"203 588 OFFCURVE",
"284 588 CURVE SMOOTH",
"366 588 OFFCURVE",
"407 525 OFFCURVE",
"407 368 CURVE SMOOTH",
"407 318 LINE SMOOTH",
"407 161 OFFCURVE",
"366 98 OFFCURVE",
"284 98 CURVE SMOOTH",
"203 98 OFFCURVE",
"162 161 OFFCURVE",
"162 318 CURVE SMOOTH"
);
}
);
width = 820;
}
);
unicode = 0152;
},
{
color = (31,255,0,1);
glyphname = P;
lastChange = "2015-02-05 02:37:04 +0000";
layers = (
{
background = {
paths = (
{
closed = 1;
nodes = (
"50 686 LINE",
"50 0 LINE",
"178 0 LINE",
"178 266 LINE",
"305 266 LINE",
"434 266 OFFCURVE",
"520 351 OFFCURVE",
"520 480 CURVE SMOOTH",
"520 599 OFFCURVE",
"447 686 OFFCURVE",
"305 686 CURVE SMOOTH"
);
},
{
closed = 1;
nodes = (
"292 572 LINE",
"353 572 OFFCURVE",
"388 536 OFFCURVE",
"388 480 CURVE SMOOTH",
"388 417 OFFCURVE",
"354 379 OFFCURVE",
"292 379 CURVE SMOOTH",
"178 379 LINE",
"178 572 LINE"
);
}
);
};
layerId = UUID0;
name = Regular;
paths = (
{
closed = 1;
nodes = (
"305 266 LINE",
"434 266 OFFCURVE",
"520 351 OFFCURVE",
"520 480 CURVE SMOOTH",
"520 599 OFFCURVE",
"447 686 OFFCURVE",
"305 686 CURVE SMOOTH",
"60 686 LINE",
"60 0 LINE",
"188 0 LINE",
"188 266 LINE"
);
},
{
closed = 1;
nodes = (
"292 572 LINE",
"353 572 OFFCURVE",
"388 536 OFFCURVE",
"388 480 CURVE SMOOTH",
"388 417 OFFCURVE",
"354 379 OFFCURVE",
"292 379 CURVE SMOOTH",
"188 379 LINE",
"188 572 LINE"
);
}
);
width = 547;
}
);
unicode = 0050;
},
{
color = (31,255,0,1);
glyphname = Thorn;
lastChange = "2015-02-05 02:37:04 +0000";
layers = (
{
background = {
paths = (
{
closed = 1;
nodes = (
"178 686 LINE",
"50 686 LINE",
"50 0 LINE",
"178 0 LINE",
"178 146 LINE",
"305 146 LINE SMOOTH",
"434 146 OFFCURVE",
"520 231 OFFCURVE",
"520 360 CURVE SMOOTH",
"520 479 OFFCURVE",
"447 566 OFFCURVE",
"305 566 CURVE SMOOTH",
"178 566 LINE"
);
},
{
closed = 1;
nodes = (
"292 452 LINE",
"353 452 OFFCURVE",
"388 416 OFFCURVE",
"388 360 CURVE SMOOTH",
"388 297 OFFCURVE",
"354 259 OFFCURVE",
"292 259 CURVE SMOOTH",
"178 259 LINE",
"178 452 LINE"
);
}
);
};
layerId = UUID0;
name = Regular;
paths = (
{
closed = 1;
nodes = (
"305 144 LINE",
"434 144 OFFCURVE",
"520 229 OFFCURVE",
"520 358 CURVE SMOOTH",
"520 477 OFFCURVE",
"447 564 OFFCURVE",
"305 564 CURVE SMOOTH",
"188 564 LINE",
"188 686 LINE",
"60 686 LINE",
"60 0 LINE",
"188 0 LINE",
"188 144 LINE"
);
},
{
closed = 1;
nodes = (
"292 450 LINE",
"353 450 OFFCURVE",
"388 414 OFFCURVE",
"388 358 CURVE SMOOTH",
"388 295 OFFCURVE",
"354 257 OFFCURVE",
"292 257 CURVE SMOOTH",
"188 257 LINE",
"188 450 LINE"
);
}
);
width = 547;
}
);
unicode = 00DE;
},
{
color = (31,255,0,1);
glyphname = Q;
lastChange = "2015-02-05 02:37:04 +0000";
layers = (
{
background = {
paths = (
{
closed = 1;
nodes = (
"142 698 OFFCURVE",
"34 585 OFFCURVE",
"34 343 CURVE SMOOTH",
"34 130 OFFCURVE",
"117 17 OFFCURVE",
"258 -7 CURVE",
"261 -91 OFFCURVE",
"308 -159 OFFCURVE",
"438 -159 CURVE SMOOTH",
"523 -159 OFFCURVE",
"588 -127 OFFCURVE",
"588 -127 CURVE",
"588 -60 LINE",
"469 -60 LINE SMOOTH",
"414 -60 OFFCURVE",
"390 -41 OFFCURVE",
"387 -5 CURVE",
"523 21 OFFCURVE",
"604 134 OFFCURVE",
"604 343 CURVE SMOOTH",
"604 585 OFFCURVE",
"496 698 OFFCURVE",
"319 698 CURVE SMOOTH"
);
},
{
closed = 1;
nodes = (
"421 588 OFFCURVE",
"472 505 OFFCURVE",
"472 368 CURVE SMOOTH",
"472 318 LINE SMOOTH",
"472 181 OFFCURVE",
"421 98 OFFCURVE",
"319 98 CURVE SMOOTH",
"217 98 OFFCURVE",
"166 181 OFFCURVE",
"166 318 CURVE SMOOTH",
"166 368 LINE SMOOTH",
"166 505 OFFCURVE",
"217 588 OFFCURVE",
"319 588 CURVE SMOOTH"
);
}
);
};
layerId = UUID0;
name = Regular;
paths = (
{
closed = 1;
nodes = (
"34 101 OFFCURVE",
"142 -12 OFFCURVE",
"319 -12 CURVE SMOOTH",
"331 -12 LINE",
"430 -124 LINE",
"587 -124 LINE",
"455 17 LINE",
"549 65 OFFCURVE",
"604 171 OFFCURVE",
"604 343 CURVE SMOOTH",
"604 585 OFFCURVE",
"496 698 OFFCURVE",
"319 698 CURVE SMOOTH",
"142 698 OFFCURVE",
"34 585 OFFCURVE",
"34 343 CURVE SMOOTH"
);
},
{
closed = 1;
nodes = (
"166 368 LINE SMOOTH",
"166 505 OFFCURVE",
"217 588 OFFCURVE",
"319 588 CURVE SMOOTH",
"421 588 OFFCURVE",
"472 505 OFFCURVE",
"472 368 CURVE SMOOTH",
"472 318 LINE SMOOTH",
"472 181 OFFCURVE",
"421 98 OFFCURVE",
"319 98 CURVE SMOOTH",
"217 98 OFFCURVE",
"166 181 OFFCURVE",
"166 318 CURVE SMOOTH"
);
}
);
width = 638;
}
);
unicode = 0051;
},
{
color = (31,255,0,1);
glyphname = R;
lastChange = "2015-02-05 02:37:04 +0000";
layers = (
{
anchors = (
{
name = bottom;
position = "{296, 0}";
},
{
name = top;
position = "{296, 686}";
}
);
background = {
paths = (
{
closed = 1;
nodes = (
"50 686 LINE",
"50 0 LINE",
"178 0 LINE",
"178 287 LINE",
"306 287 LINE SMOOTH",
"356 287 OFFCURVE",
"406 253 OFFCURVE",
"406 124 CURVE SMOOTH",
"406 20 OFFCURVE",
"463 -5 OFFCURVE",
"519 -5 CURVE SMOOTH",
"539 -5 OFFCURVE",
"575 1 OFFCURVE",
"584 7 CURVE",
"584 41 LINE",
"554 52 OFFCURVE",
"536 78 OFFCURVE",
"536 164 CURVE SMOOTH",
"536 296 OFFCURVE",
"469 336 OFFCURVE",
"435 348 CURVE",
"435 352 LINE",
"495 373 OFFCURVE",
"542 425 OFFCURVE",
"542 514 CURVE SMOOTH",
"542 615 OFFCURVE",
"461 686 OFFCURVE",
"351 686 CURVE SMOOTH"
);
},
{
closed = 1;
nodes = (
"321 572 LINE",
"374 572 OFFCURVE",
"410 542 OFFCURVE",
"410 489 CURVE SMOOTH",
"410 439 OFFCURVE",
"372 400 OFFCURVE",
"315 400 CURVE SMOOTH",
"178 400 LINE",
"178 572 LINE"
);
}
);
};
layerId = UUID0;
name = Regular;
paths = (
{
closed = 1;
nodes = (
"321 286 LINE",
"435 0 LINE",
"574 0 LINE",
"442 314 LINE",
"513 343 OFFCURVE",
"557 407 OFFCURVE",
"557 490 CURVE SMOOTH",
"557 603 OFFCURVE",
"486 686 OFFCURVE",
"347 686 CURVE SMOOTH",
"60 686 LINE",
"60 0 LINE",
"188 0 LINE",
"188 286 LINE"
);
},
{
closed = 1;
nodes = (
"334 572 LINE SMOOTH",
"393 572 OFFCURVE",
"419 540 OFFCURVE",
"419 490 CURVE SMOOTH",
"419 433 OFFCURVE",
"391 399 OFFCURVE",
"329 399 CURVE SMOOTH",
"188 399 LINE",
"188 572 LINE"
);
}
);
width = 592;
}
);
unicode = 0052;
},
{
color = (31,255,0,1);
glyphname = Racute;
lastChange = "2015-02-05 02:37:04 +0000";
layers = (
{
background = {
paths = (
{
closed = 1;
nodes = (
"50 686 LINE",
"50 0 LINE",
"178 0 LINE",
"178 287 LINE",
"306 287 LINE SMOOTH",
"356 287 OFFCURVE",
"406 253 OFFCURVE",
"406 124 CURVE SMOOTH",
"406 20 OFFCURVE",
"463 -5 OFFCURVE",
"519 -5 CURVE SMOOTH",
"539 -5 OFFCURVE",
"575 1 OFFCURVE",
"584 7 CURVE",
"584 41 LINE",
"554 52 OFFCURVE",
"536 78 OFFCURVE",
"536 164 CURVE SMOOTH",
"536 296 OFFCURVE",
"469 336 OFFCURVE",
"435 348 CURVE",
"435 352 LINE",
"495 373 OFFCURVE",
"542 425 OFFCURVE",
"542 514 CURVE SMOOTH",
"542 615 OFFCURVE",
"461 686 OFFCURVE",
"351 686 CURVE SMOOTH"
);
},
{
closed = 1;
nodes = (
"321 572 LINE SMOOTH",
"374 572 OFFCURVE",
"410 542 OFFCURVE",
"410 489 CURVE SMOOTH",
"410 439 OFFCURVE",
"372 400 OFFCURVE",
"315 400 CURVE SMOOTH",
"178 400 LINE",
"178 572 LINE"
);
}
);
};
layerId = UUID0;
name = Regular;
paths = (
{
closed = 1;
nodes = (
"433 883 LINE",
"313 883 LINE",
"227 751 LINE",
"326 751 LINE",
"434 880 LINE"
);
},
{
closed = 1;
nodes = (
"321 286 LINE",
"435 0 LINE",
"574 0 LINE",
"442 314 LINE",
"513 343 OFFCURVE",
"557 407 OFFCURVE",
"557 490 CURVE SMOOTH",
"557 603 OFFCURVE",
"486 686 OFFCURVE",
"347 686 CURVE SMOOTH",
"60 686 LINE",
"60 0 LINE",
"188 0 LINE",
"188 286 LINE"
);
},
{
closed = 1;
nodes = (
"334 572 LINE SMOOTH",
"393 572 OFFCURVE",
"419 540 OFFCURVE",
"419 490 CURVE SMOOTH",
"419 433 OFFCURVE",
"391 399 OFFCURVE",
"329 399 CURVE SMOOTH",
"188 399 LINE",
"188 572 LINE"
);
}
);
width = 592;
}
);
unicode = 0154;
},
{
color = (31,255,0,1);
glyphname = Rcaron;
lastChange = "2015-02-05 02:37:04 +0000";
layers = (
{
background = {
paths = (
{
closed = 1;
nodes = (
"50 686 LINE",
"50 0 LINE",
"178 0 LINE",
"178 287 LINE",
"306 287 LINE SMOOTH",
"356 287 OFFCURVE",
"406 253 OFFCURVE",
"406 124 CURVE SMOOTH",
"406 20 OFFCURVE",
"463 -5 OFFCURVE",
"519 -5 CURVE SMOOTH",
"539 -5 OFFCURVE",
"575 1 OFFCURVE",
"584 7 CURVE",
"584 41 LINE",
"554 52 OFFCURVE",
"536 78 OFFCURVE",
"536 164 CURVE SMOOTH",
"536 296 OFFCURVE",
"469 336 OFFCURVE",
"435 348 CURVE",
"435 352 LINE",
"495 373 OFFCURVE",
"542 425 OFFCURVE",
"542 514 CURVE SMOOTH",
"542 615 OFFCURVE",
"461 686 OFFCURVE",
"351 686 CURVE SMOOTH"
);
},
{
closed = 1;
nodes = (
"321 572 LINE SMOOTH",
"374 572 OFFCURVE",
"410 542 OFFCURVE",
"410 489 CURVE SMOOTH",
"410 439 OFFCURVE",
"372 400 OFFCURVE",
"315 400 CURVE SMOOTH",
"178 400 LINE",
"178 572 LINE"
);
}
);
};
layerId = UUID0;
name = Regular;
paths = (
{
closed = 1;
nodes = (
"431 883 LINE",
"341 883 LINE",
"296 814 LINE",
"251 883 LINE",
"162 883 LINE",
"248 748 LINE",
"346 748 LINE"
);
},
{
closed = 1;
nodes = (
"321 286 LINE",
"435 0 LINE",
"574 0 LINE",
"442 314 LINE",
"513 343 OFFCURVE",
"557 407 OFFCURVE",
"557 490 CURVE SMOOTH",
"557 603 OFFCURVE",
"486 686 OFFCURVE",
"347 686 CURVE SMOOTH",
"60 686 LINE",
"60 0 LINE",
"188 0 LINE",
"188 286 LINE"
);
},
{
closed = 1;
nodes = (
"334 572 LINE SMOOTH",
"393 572 OFFCURVE",
"419 540 OFFCURVE",
"419 490 CURVE SMOOTH",
"419 433 OFFCURVE",
"391 399 OFFCURVE",
"329 399 CURVE SMOOTH",
"188 399 LINE",
"188 572 LINE"
);
}
);
width = 592;
}
);
unicode = 0158;
},
{
color = (31,255,0,1);
glyphname = Rcommaaccent;
lastChange = "2015-02-05 02:37:04 +0000";
layers = (
{
background = {
paths = (
{
closed = 1;
nodes = (
"50 686 LINE",
"50 0 LINE",
"178 0 LINE",
"178 287 LINE",
"306 287 LINE SMOOTH",
"356 287 OFFCURVE",
"406 253 OFFCURVE",
"406 124 CURVE SMOOTH",
"406 20 OFFCURVE",
"463 -5 OFFCURVE",
"519 -5 CURVE SMOOTH",
"539 -5 OFFCURVE",
"575 1 OFFCURVE",
"584 7 CURVE",
"584 41 LINE",
"554 52 OFFCURVE",
"536 78 OFFCURVE",
"536 164 CURVE SMOOTH",
"536 296 OFFCURVE",
"469 336 OFFCURVE",
"435 348 CURVE",
"435 352 LINE",
"495 373 OFFCURVE",
"542 425 OFFCURVE",
"542 514 CURVE SMOOTH",
"542 615 OFFCURVE",
"461 686 OFFCURVE",
"351 686 CURVE SMOOTH"
);
},
{
closed = 1;
nodes = (
"321 572 LINE SMOOTH",
"374 572 OFFCURVE",
"410 542 OFFCURVE",
"410 489 CURVE SMOOTH",
"410 439 OFFCURVE",
"372 400 OFFCURVE",
"315 400 CURVE SMOOTH",
"178 400 LINE",
"178 572 LINE"
);
}
);
};
layerId = UUID0;
name = Regular;
paths = (
{
closed = 1;
nodes = (
"358 -55 LINE",
"234 -55 LINE",
"234 -178 LINE",
"283 -178 LINE",
"248 -263 LINE",
"312 -263 LINE",
"358 -167 LINE"
);
},
{
closed = 1;
nodes = (
"321 286 LINE",
"435 0 LINE",
"574 0 LINE",
"442 314 LINE",
"513 343 OFFCURVE",
"557 407 OFFCURVE",
"557 490 CURVE SMOOTH",
"557 603 OFFCURVE",
"486 686 OFFCURVE",
"347 686 CURVE SMOOTH",
"60 686 LINE",
"60 0 LINE",
"188 0 LINE",
"188 286 LINE"
);
},
{
closed = 1;
nodes = (
"334 572 LINE SMOOTH",
"393 572 OFFCURVE",
"419 540 OFFCURVE",
"419 490 CURVE SMOOTH",
"419 433 OFFCURVE",
"391 399 OFFCURVE",
"329 399 CURVE SMOOTH",
"188 399 LINE",
"188 572 LINE"
);
}
);
width = 592;
}
);
unicode = 0156;
},
{
glyphname = S;
lastChange = "2015-02-05 02:37:04 +0000";
layers = (
{
anchors = (
{
name = bottom;
position = "{273, 0}";
},
{
name = top;
position = "{273, 686}";
}
);
layerId = UUID0;
name = Regular;
paths = (
{
closed = 1;
nodes = (
"152 698 OFFCURVE",
"44 636 OFFCURVE",
"44 506 CURVE SMOOTH",
"44 245 OFFCURVE",
"377 342 OFFCURVE",
"377 179 CURVE SMOOTH",
"377 139 OFFCURVE",
"350 98 OFFCURVE",
"273 98 CURVE SMOOTH",
"203 98 OFFCURVE",
"163 142 OFFCURVE",
"163 207 CURVE SMOOTH",
"163 212 OFFCURVE",
"164 221 OFFCURVE",
"164 223 CURVE",
"31 223 LINE",
"31 218 OFFCURVE",
"30 209 OFFCURVE",
"30 201 CURVE SMOOTH",
"30 60 OFFCURVE",
"141 -12 OFFCURVE",
"267 -12 CURVE SMOOTH",
"409 -12 OFFCURVE",
"509 49 OFFCURVE",
"509 206 CURVE SMOOTH",
"509 458 OFFCURVE",
"176 376 OFFCURVE",
"176 515 CURVE SMOOTH",
"176 557 OFFCURVE",
"210 588 OFFCURVE",
"272 588 CURVE SMOOTH",
"330 588 OFFCURVE",
"365 551 OFFCURVE",
"365 493 CURVE SMOOTH",
"365 484 LINE",
"496 484 LINE",
"496 496 LINE SMOOTH",
"496 637 OFFCURVE",
"395 698 OFFCURVE",
"273 698 CURVE SMOOTH"
);
}
);
width = 547;
}
);
unicode = 0053;
},
{
glyphname = Sacute;
lastChange = "2015-02-05 02:37:04 +0000";
layers = (
{
layerId = UUID0;
name = Regular;
paths = (
{
closed = 1;
nodes = (
"152 698 OFFCURVE",
"44 636 OFFCURVE",
"44 506 CURVE SMOOTH",
"44 245 OFFCURVE",
"377 342 OFFCURVE",
"377 179 CURVE SMOOTH",
"377 139 OFFCURVE",
"350 98 OFFCURVE",
"273 98 CURVE SMOOTH",
"203 98 OFFCURVE",
"163 142 OFFCURVE",
"163 207 CURVE SMOOTH",
"163 212 OFFCURVE",
"164 221 OFFCURVE",
"164 223 CURVE",
"31 223 LINE",
"31 218 OFFCURVE",
"30 209 OFFCURVE",
"30 201 CURVE SMOOTH",
"30 60 OFFCURVE",
"141 -12 OFFCURVE",
"267 -12 CURVE SMOOTH",
"409 -12 OFFCURVE",
"509 49 OFFCURVE",
"509 206 CURVE SMOOTH",
"509 458 OFFCURVE",
"176 376 OFFCURVE",
"176 515 CURVE SMOOTH",
"176 557 OFFCURVE",
"210 588 OFFCURVE",
"272 588 CURVE SMOOTH",
"330 588 OFFCURVE",
"365 551 OFFCURVE",
"365 493 CURVE SMOOTH",
"365 484 LINE",
"496 484 LINE",
"496 496 LINE SMOOTH",
"496 637 OFFCURVE",
"395 698 OFFCURVE",
"273 698 CURVE SMOOTH"
);
},
{
closed = 1;
nodes = (
"411 883 LINE",
"291 883 LINE",
"205 751 LINE",
"304 751 LINE",
"412 880 LINE"
);
}
);
width = 547;
}
);
unicode = 015A;
},
{
glyphname = Scaron;
lastChange = "2015-02-05 02:37:04 +0000";
layers = (
{
layerId = UUID0;
name = Regular;
paths = (
{
closed = 1;
nodes = (
"152 698 OFFCURVE",
"44 636 OFFCURVE",
"44 506 CURVE SMOOTH",
"44 245 OFFCURVE",
"377 342 OFFCURVE",
"377 179 CURVE SMOOTH",
"377 139 OFFCURVE",
"350 98 OFFCURVE",
"273 98 CURVE SMOOTH",
"203 98 OFFCURVE",
"163 142 OFFCURVE",
"163 207 CURVE SMOOTH",
"163 212 OFFCURVE",
"164 221 OFFCURVE",
"164 223 CURVE",
"31 223 LINE",
"31 218 OFFCURVE",
"30 209 OFFCURVE",
"30 201 CURVE SMOOTH",
"30 60 OFFCURVE",
"141 -12 OFFCURVE",
"267 -12 CURVE SMOOTH",
"409 -12 OFFCURVE",
"509 49 OFFCURVE",
"509 206 CURVE SMOOTH",
"509 458 OFFCURVE",
"176 376 OFFCURVE",
"176 515 CURVE SMOOTH",
"176 557 OFFCURVE",
"210 588 OFFCURVE",
"272 588 CURVE SMOOTH",
"330 588 OFFCURVE",
"365 551 OFFCURVE",
"365 493 CURVE SMOOTH",
"365 484 LINE",
"496 484 LINE",
"496 496 LINE SMOOTH",
"496 637 OFFCURVE",
"395 698 OFFCURVE",
"273 698 CURVE SMOOTH"
);
},
{
closed = 1;
nodes = (
"408 883 LINE",
"318 883 LINE",
"274 814 LINE",
"229 883 LINE",
"139 883 LINE",
"225 748 LINE",
"323 748 LINE"
);
}
);
width = 547;
}
);
unicode = 0160;
},
{
glyphname = Scedilla;
lastChange = "2015-02-05 02:37:04 +0000";
layers = (
{
layerId = UUID0;
name = Regular;
paths = (
{
closed = 1;
nodes = (
"152 698 OFFCURVE",
"44 636 OFFCURVE",
"44 506 CURVE SMOOTH",
"44 245 OFFCURVE",
"377 342 OFFCURVE",
"377 179 CURVE SMOOTH",
"377 139 OFFCURVE",
"350 98 OFFCURVE",
"273 98 CURVE SMOOTH",
"203 98 OFFCURVE",
"163 142 OFFCURVE",
"163 207 CURVE SMOOTH",
"163 212 OFFCURVE",
"164 221 OFFCURVE",
"164 223 CURVE",
"31 223 LINE",
"31 218 OFFCURVE",
"30 209 OFFCURVE",
"30 201 CURVE SMOOTH",
"30 75 OFFCURVE",
"117 4 OFFCURVE",
"225 -9 CURVE",
"217 -77 LINE",
"250 -77 LINE SMOOTH",
"276 -77 OFFCURVE",
"284 -85 OFFCURVE",
"284 -101 CURVE SMOOTH",
"284 -120 OFFCURVE",
"270 -125 OFFCURVE",
"248 -125 CURVE SMOOTH",
"177 -125 LINE",
"177 -174 LINE",
"201 -179 OFFCURVE",
"233 -182 OFFCURVE",
"261 -182 CURVE SMOOTH",
"304 -182 OFFCURVE",
"370 -168 OFFCURVE",
"370 -101 CURVE SMOOTH",
"370 -55 OFFCURVE",
"334 -36 OFFCURVE",
"291 -33 CURVE",
"293 -11 LINE",
"421 -3 OFFCURVE",
"509 59 OFFCURVE",
"509 206 CURVE SMOOTH",
"509 458 OFFCURVE",
"176 376 OFFCURVE",
"176 515 CURVE SMOOTH",
"176 557 OFFCURVE",
"210 588 OFFCURVE",
"272 588 CURVE SMOOTH",
"330 588 OFFCURVE",
"365 551 OFFCURVE",
"365 493 CURVE SMOOTH",
"365 484 LINE",
"496 484 LINE",
"496 496 LINE SMOOTH",
"496 637 OFFCURVE",
"395 698 OFFCURVE",
"273 698 CURVE SMOOTH"
);
}
);
width = 547;
}
);
unicode = 015E;
},
{
glyphname = Scircumflex;
lastChange = "2015-02-05 02:37:04 +0000";
layers = (
{
layerId = UUID0;
name = Regular;
paths = (
{
closed = 1;
nodes = (
"152 698 OFFCURVE",
"44 636 OFFCURVE",
"44 506 CURVE SMOOTH",
"44 245 OFFCURVE",
"377 342 OFFCURVE",
"377 179 CURVE SMOOTH",
"377 139 OFFCURVE",
"350 98 OFFCURVE",
"273 98 CURVE SMOOTH",
"203 98 OFFCURVE",
"163 142 OFFCURVE",
"163 207 CURVE SMOOTH",
"163 212 OFFCURVE",
"164 221 OFFCURVE",
"164 223 CURVE",
"31 223 LINE",
"31 218 OFFCURVE",
"30 209 OFFCURVE",
"30 201 CURVE SMOOTH",
"30 60 OFFCURVE",
"141 -12 OFFCURVE",
"267 -12 CURVE SMOOTH",
"409 -12 OFFCURVE",
"509 49 OFFCURVE",
"509 206 CURVE SMOOTH",
"509 458 OFFCURVE",
"176 376 OFFCURVE",
"176 515 CURVE SMOOTH",
"176 557 OFFCURVE",
"210 588 OFFCURVE",
"272 588 CURVE SMOOTH",
"330 588 OFFCURVE",
"365 551 OFFCURVE",
"365 493 CURVE SMOOTH",
"365 484 LINE",
"496 484 LINE",
"496 496 LINE SMOOTH",
"496 637 OFFCURVE",
"395 698 OFFCURVE",
"273 698 CURVE SMOOTH"
);
},
{
closed = 1;
nodes = (
"323 883 LINE",
"225 883 LINE",
"139 748 LINE",
"229 748 LINE",
"274 817 LINE",
"318 748 LINE",
"408 748 LINE"
);
}
);
width = 547;
}
);
unicode = 015C;
},
{
glyphname = T;
lastChange = "2015-02-05 02:37:04 +0000";
layers = (
{
anchors = (
{
name = bottom;
position = "{250, 0}";
},
{
name = center;
position = "{250, 343}";
},
{
name = top;
position = "{250, 686}";
}
);
layerId = UUID0;
name = Regular;
paths = (
{
closed = 1;
nodes = (
"485 686 LINE",
"17 686 LINE",
"17 572 LINE",
"187 572 LINE",
"187 0 LINE",
"315 0 LINE",
"315 572 LINE",
"485 572 LINE"
);
}
);
width = 501;
}
);
unicode = 0054;
},
{
glyphname = Tbar;
lastChange = "2015-02-05 02:37:04 +0000";
layers = (
{
layerId = UUID0;
name = Regular;
paths = (
{
closed = 1;
nodes = (
"427 393 LINE",
"315 393 LINE",
"315 572 LINE",
"485 572 LINE",
"485 686 LINE",
"17 686 LINE",
"17 572 LINE",
"187 572 LINE",
"187 393 LINE",
"74 393 LINE",
"74 306 LINE",
"187 306 LINE",
"187 0 LINE",
"315 0 LINE",
"315 306 LINE",
"427 306 LINE"
);
}
);
width = 501;
}
);
unicode = 0166;
},
{
glyphname = Tcaron;
lastChange = "2015-02-05 02:37:04 +0000";
layers = (
{
layerId = UUID0;
name = Regular;
paths = (
{
closed = 1;
nodes = (
"485 686 LINE",
"17 686 LINE",
"17 572 LINE",
"187 572 LINE",
"187 0 LINE",
"315 0 LINE",
"315 572 LINE",
"485 572 LINE"
);
},
{
closed = 1;
nodes = (
"385 883 LINE",
"295 883 LINE",
"251 814 LINE",
"206 883 LINE",
"116 883 LINE",
"202 748 LINE",
"300 748 LINE"
);
}
);
width = 501;
}
);
unicode = 0164;
},
{
glyphname = Tcommaaccent;
lastChange = "2015-02-05 02:37:04 +0000";
layers = (
{
layerId = UUID0;
name = Regular;
paths = (
{
closed = 1;
nodes = (
"485 686 LINE",
"17 686 LINE",
"17 572 LINE",
"187 572 LINE",
"187 0 LINE",
"315 0 LINE",
"315 572 LINE",
"485 572 LINE"
);
},
{
closed = 1;
nodes = (
"312 -55 LINE",
"189 -55 LINE",
"189 -178 LINE",
"238 -178 LINE",
"202 -263 LINE",
"267 -263 LINE",
"312 -167 LINE"
);
}
);
width = 501;
}
);
unicode = 0162;
},
{
color = (31,255,0,1);
glyphname = U;
lastChange = "2015-02-05 02:37:04 +0000";
layers = (
{
anchors = (
{
name = ogonek;
position = "{405, 5}";
},
{
name = top;
position = "{296, 686}";
}
);
background = {
paths = (
{
closed = 1;
nodes = (
"542 686 LINE",
"414 686 LINE",
"414 227 LINE SMOOTH",
"414 143 OFFCURVE",
"370 98 OFFCURVE",
"296 98 CURVE SMOOTH",
"222 98 OFFCURVE",
"179 143 OFFCURVE",
"179 227 CURVE SMOOTH",
"179 686 LINE",
"51 686 LINE",
"51 223 LINE",
"51 69 OFFCURVE",
"143 -12 OFFCURVE",
"296 -12 CURVE SMOOTH",
"449 -12 OFFCURVE",
"542 69 OFFCURVE",
"542 223 CURVE SMOOTH"
);
}
);
};
layerId = UUID0;
name = Regular;
paths = (
{
closed = 1;
nodes = (
"61 215 LINE",
"61 66 OFFCURVE",
"149 -12 OFFCURVE",
"296 -12 CURVE SMOOTH",
"443 -12 OFFCURVE",
"532 66 OFFCURVE",
"532 215 CURVE SMOOTH",
"532 686 LINE",
"404 686 LINE",
"404 219 LINE SMOOTH",
"404 140 OFFCURVE",
"364 98 OFFCURVE",
"296 98 CURVE SMOOTH",
"228 98 OFFCURVE",
"189 140 OFFCURVE",
"189 219 CURVE SMOOTH",
"189 686 LINE",
"61 686 LINE"
);
}
);
width = 592;
}
);
unicode = 0055;
},
{
color = (31,255,0,1);
glyphname = Uacute;
lastChange = "2015-02-05 02:37:04 +0000";
layers = (
{
background = {
paths = (
{
closed = 1;
nodes = (
"542 686 LINE",
"414 686 LINE",
"414 227 LINE SMOOTH",
"414 143 OFFCURVE",
"370 98 OFFCURVE",
"296 98 CURVE SMOOTH",
"222 98 OFFCURVE",
"179 143 OFFCURVE",
"179 227 CURVE SMOOTH",
"179 686 LINE",
"51 686 LINE",
"51 223 LINE SMOOTH",
"51 69 OFFCURVE",
"143 -12 OFFCURVE",
"296 -12 CURVE SMOOTH",
"449 -12 OFFCURVE",
"542 69 OFFCURVE",
"542 223 CURVE SMOOTH"
);
}
);
};
layerId = UUID0;
name = Regular;
paths = (
{
closed = 1;
nodes = (
"433 883 LINE",
"313 883 LINE",
"227 751 LINE",
"326 751 LINE",
"434 880 LINE"
);
},
{
closed = 1;
nodes = (
"61 215 LINE SMOOTH",
"61 66 OFFCURVE",
"149 -12 OFFCURVE",
"296 -12 CURVE SMOOTH",
"443 -12 OFFCURVE",
"532 66 OFFCURVE",
"532 215 CURVE SMOOTH",
"532 686 LINE",
"404 686 LINE",
"404 219 LINE SMOOTH",
"404 140 OFFCURVE",
"364 98 OFFCURVE",
"296 98 CURVE SMOOTH",
"228 98 OFFCURVE",
"189 140 OFFCURVE",
"189 219 CURVE SMOOTH",
"189 686 LINE",
"61 686 LINE"
);
}
);
width = 592;
}
);
unicode = 00DA;
},
{
color = (31,255,0,1);
glyphname = Ubreve;
lastChange = "2015-02-05 02:37:04 +0000";
layers = (
{
background = {
paths = (
{
closed = 1;
nodes = (
"542 686 LINE",
"414 686 LINE",
"414 227 LINE SMOOTH",
"414 143 OFFCURVE",
"370 98 OFFCURVE",
"296 98 CURVE SMOOTH",
"222 98 OFFCURVE",
"179 143 OFFCURVE",
"179 227 CURVE SMOOTH",
"179 686 LINE",
"51 686 LINE",
"51 223 LINE SMOOTH",
"51 69 OFFCURVE",
"143 -12 OFFCURVE",
"296 -12 CURVE SMOOTH",
"449 -12 OFFCURVE",
"542 69 OFFCURVE",
"542 223 CURVE SMOOTH"
);
}
);
};
layerId = UUID0;
name = Regular;
paths = (
{
closed = 1;
nodes = (
"355 883 LINE",
"354 869 OFFCURVE",
"330 850 OFFCURVE",
"295 850 CURVE SMOOTH",
"263 850 OFFCURVE",
"240 869 OFFCURVE",
"237 883 CURVE",
"163 883 LINE",
"163 833 OFFCURVE",
"213 776 OFFCURVE",
"295 776 CURVE SMOOTH",
"378 776 OFFCURVE",
"430 833 OFFCURVE",
"430 883 CURVE"
);
},
{
closed = 1;
nodes = (
"61 215 LINE SMOOTH",
"61 66 OFFCURVE",
"149 -12 OFFCURVE",
"296 -12 CURVE SMOOTH",
"443 -12 OFFCURVE",
"532 66 OFFCURVE",
"532 215 CURVE SMOOTH",
"532 686 LINE",
"404 686 LINE",
"404 219 LINE SMOOTH",
"404 140 OFFCURVE",
"364 98 OFFCURVE",
"296 98 CURVE SMOOTH",
"228 98 OFFCURVE",
"189 140 OFFCURVE",
"189 219 CURVE SMOOTH",
"189 686 LINE",
"61 686 LINE"
);
}
);
width = 592;
}
);
unicode = 016C;
},
{
color = (31,255,0,1);
glyphname = Ucircumflex;
lastChange = "2015-02-05 02:37:04 +0000";
layers = (
{
background = {
paths = (
{
closed = 1;
nodes = (
"542 686 LINE",
"414 686 LINE",
"414 227 LINE SMOOTH",
"414 143 OFFCURVE",
"370 98 OFFCURVE",
"296 98 CURVE SMOOTH",
"222 98 OFFCURVE",
"179 143 OFFCURVE",
"179 227 CURVE SMOOTH",
"179 686 LINE",
"51 686 LINE",
"51 223 LINE SMOOTH",
"51 69 OFFCURVE",
"143 -12 OFFCURVE",
"296 -12 CURVE SMOOTH",
"449 -12 OFFCURVE",
"542 69 OFFCURVE",
"542 223 CURVE SMOOTH"
);
}
);
};
layerId = UUID0;
name = Regular;
paths = (
{
closed = 1;
nodes = (
"346 883 LINE",
"248 883 LINE",
"162 748 LINE",
"251 748 LINE",
"296 817 LINE",
"341 748 LINE",
"431 748 LINE"
);
},
{
closed = 1;
nodes = (
"61 215 LINE SMOOTH",
"61 66 OFFCURVE",
"149 -12 OFFCURVE",
"296 -12 CURVE SMOOTH",
"443 -12 OFFCURVE",
"532 66 OFFCURVE",
"532 215 CURVE SMOOTH",
"532 686 LINE",
"404 686 LINE",
"404 219 LINE SMOOTH",
"404 140 OFFCURVE",
"364 98 OFFCURVE",
"296 98 CURVE SMOOTH",
"228 98 OFFCURVE",
"189 140 OFFCURVE",
"189 219 CURVE SMOOTH",
"189 686 LINE",
"61 686 LINE"
);
}
);
width = 592;
}
);
unicode = 00DB;
},
{
color = (31,255,0,1);
glyphname = Udieresis;
lastChange = "2015-02-05 02:37:04 +0000";
layers = (
{
background = {
paths = (
{
closed = 1;
nodes = (
"542 686 LINE",
"414 686 LINE",
"414 227 LINE SMOOTH",
"414 143 OFFCURVE",
"370 98 OFFCURVE",
"296 98 CURVE SMOOTH",
"222 98 OFFCURVE",
"179 143 OFFCURVE",
"179 227 CURVE SMOOTH",
"179 686 LINE",
"51 686 LINE",
"51 223 LINE SMOOTH",
"51 69 OFFCURVE",
"143 -12 OFFCURVE",
"296 -12 CURVE SMOOTH",
"449 -12 OFFCURVE",
"542 69 OFFCURVE",
"542 223 CURVE SMOOTH"
);
}
);
};
layerId = UUID0;
name = Regular;
paths = (
{
closed = 1;
nodes = (
"259 883 LINE",
"159 883 LINE",
"159 774 LINE",
"259 774 LINE"
);
},
{
closed = 1;
nodes = (
"434 883 LINE",
"333 883 LINE",
"333 774 LINE",
"434 774 LINE"
);
},
{
closed = 1;
nodes = (
"61 215 LINE SMOOTH",
"61 66 OFFCURVE",
"149 -12 OFFCURVE",
"296 -12 CURVE SMOOTH",
"443 -12 OFFCURVE",
"532 66 OFFCURVE",
"532 215 CURVE SMOOTH",
"532 686 LINE",
"404 686 LINE",
"404 219 LINE SMOOTH",
"404 140 OFFCURVE",
"364 98 OFFCURVE",
"296 98 CURVE SMOOTH",
"228 98 OFFCURVE",
"189 140 OFFCURVE",
"189 219 CURVE SMOOTH",
"189 686 LINE",
"61 686 LINE"
);
}
);
width = 592;
}
);
unicode = 00DC;
},
{
color = (31,255,0,1);
glyphname = Ugrave;
lastChange = "2015-02-05 02:37:04 +0000";
layers = (
{
background = {
paths = (
{
closed = 1;
nodes = (
"542 686 LINE",
"414 686 LINE",
"414 227 LINE SMOOTH",
"414 143 OFFCURVE",
"370 98 OFFCURVE",
"296 98 CURVE SMOOTH",
"222 98 OFFCURVE",
"179 143 OFFCURVE",
"179 227 CURVE SMOOTH",
"179 686 LINE",
"51 686 LINE",
"51 223 LINE SMOOTH",
"51 69 OFFCURVE",
"143 -12 OFFCURVE",
"296 -12 CURVE SMOOTH",
"449 -12 OFFCURVE",
"542 69 OFFCURVE",
"542 223 CURVE SMOOTH"
);
}
);
};
layerId = UUID0;
name = Regular;
paths = (
{
closed = 1;
nodes = (
"279 883 LINE",
"159 883 LINE",
"158 880 LINE",
"266 751 LINE",
"365 751 LINE"
);
},
{
closed = 1;
nodes = (
"61 215 LINE SMOOTH",
"61 66 OFFCURVE",
"149 -12 OFFCURVE",
"296 -12 CURVE SMOOTH",
"443 -12 OFFCURVE",
"532 66 OFFCURVE",
"532 215 CURVE SMOOTH",
"532 686 LINE",
"404 686 LINE",
"404 219 LINE SMOOTH",
"404 140 OFFCURVE",
"364 98 OFFCURVE",
"296 98 CURVE SMOOTH",
"228 98 OFFCURVE",
"189 140 OFFCURVE",
"189 219 CURVE SMOOTH",
"189 686 LINE",
"61 686 LINE"
);
}
);
width = 592;
}
);
unicode = 00D9;
},
{
color = (31,255,0,1);
glyphname = Uhungarumlaut;
lastChange = "2015-02-05 02:37:04 +0000";
layers = (
{
background = {
paths = (
{
closed = 1;
nodes = (
"542 686 LINE",
"414 686 LINE",
"414 227 LINE SMOOTH",
"414 143 OFFCURVE",
"370 98 OFFCURVE",
"296 98 CURVE SMOOTH",
"222 98 OFFCURVE",
"179 143 OFFCURVE",
"179 227 CURVE SMOOTH",
"179 686 LINE",
"51 686 LINE",
"51 223 LINE SMOOTH",
"51 69 OFFCURVE",
"143 -12 OFFCURVE",
"296 -12 CURVE SMOOTH",
"449 -12 OFFCURVE",
"542 69 OFFCURVE",
"542 223 CURVE SMOOTH"
);
}
);
};
layerId = UUID0;
name = Regular;
paths = (
{
closed = 1;
nodes = (
"345 883 LINE",
"245 883 LINE",
"183 751 LINE",
"262 751 LINE",
"346 880 LINE"
);
},
{
closed = 1;
nodes = (
"485 883 LINE",
"385 883 LINE",
"323 751 LINE",
"402 751 LINE",
"486 880 LINE"
);
},
{
closed = 1;
nodes = (
"61 215 LINE SMOOTH",
"61 66 OFFCURVE",
"149 -12 OFFCURVE",
"296 -12 CURVE SMOOTH",
"443 -12 OFFCURVE",
"532 66 OFFCURVE",
"532 215 CURVE SMOOTH",
"532 686 LINE",
"404 686 LINE",
"404 219 LINE SMOOTH",
"404 140 OFFCURVE",
"364 98 OFFCURVE",
"296 98 CURVE SMOOTH",
"228 98 OFFCURVE",
"189 140 OFFCURVE",
"189 219 CURVE SMOOTH",
"189 686 LINE",
"61 686 LINE"
);
}
);
width = 592;
}
);
unicode = 0170;
},
{
color = (31,255,0,1);
glyphname = Umacron;
lastChange = "2015-02-05 02:37:04 +0000";
layers = (
{
background = {
paths = (
{
closed = 1;
nodes = (
"542 686 LINE",
"414 686 LINE",
"414 227 LINE SMOOTH",
"414 143 OFFCURVE",
"370 98 OFFCURVE",
"296 98 CURVE SMOOTH",
"222 98 OFFCURVE",
"179 143 OFFCURVE",
"179 227 CURVE SMOOTH",
"179 686 LINE",
"51 686 LINE",
"51 223 LINE SMOOTH",
"51 69 OFFCURVE",
"143 -12 OFFCURVE",
"296 -12 CURVE SMOOTH",
"449 -12 OFFCURVE",
"542 69 OFFCURVE",
"542 223 CURVE SMOOTH"
);
}
);
};
layerId = UUID0;
name = Regular;
paths = (
{
closed = 1;
nodes = (
"424 846 LINE",
"168 846 LINE",
"168 759 LINE",
"424 759 LINE"
);
},
{
closed = 1;
nodes = (
"61 215 LINE SMOOTH",
"61 66 OFFCURVE",
"149 -12 OFFCURVE",
"296 -12 CURVE SMOOTH",
"443 -12 OFFCURVE",
"532 66 OFFCURVE",
"532 215 CURVE SMOOTH",
"532 686 LINE",
"404 686 LINE",
"404 219 LINE SMOOTH",
"404 140 OFFCURVE",
"364 98 OFFCURVE",
"296 98 CURVE SMOOTH",
"228 98 OFFCURVE",
"189 140 OFFCURVE",
"189 219 CURVE SMOOTH",
"189 686 LINE",
"61 686 LINE"
);
}
);
width = 592;
}
);
unicode = 016A;
},
{
color = (31,255,0,1);
glyphname = Uogonek;
lastChange = "2015-02-05 02:37:04 +0000";
layers = (
{
background = {
paths = (
{
closed = 1;
nodes = (
"61 215 LINE SMOOTH",
"61 66 OFFCURVE",
"149 -12 OFFCURVE",
"296 -12 CURVE SMOOTH",
"443 -12 OFFCURVE",
"532 66 OFFCURVE",
"532 215 CURVE SMOOTH",
"532 686 LINE",
"404 686 LINE",
"404 219 LINE SMOOTH",
"404 140 OFFCURVE",
"364 98 OFFCURVE",
"296 98 CURVE SMOOTH",
"228 98 OFFCURVE",
"189 140 OFFCURVE",
"189 219 CURVE SMOOTH",
"189 686 LINE",
"61 686 LINE"
);
}
);
};
layerId = UUID0;
name = Regular;
paths = (
{
closed = 1;
nodes = (
"532 686 LINE",
"404 686 LINE",
"404 227 LINE SMOOTH",
"404 143 OFFCURVE",
"364 98 OFFCURVE",
"296 98 CURVE SMOOTH",
"228 98 OFFCURVE",
"189 143 OFFCURVE",
"189 227 CURVE SMOOTH",
"189 686 LINE",
"61 686 LINE",
"61 223 LINE SMOOTH",
"61 69 OFFCURVE",
"149 -12 OFFCURVE",
"296 -12 CURVE SMOOTH",
"306 -12 LINE",
"289 -33 OFFCURVE",
"277 -59 OFFCURVE",
"277 -95 CURVE SMOOTH",
"277 -164 OFFCURVE",
"330 -185 OFFCURVE",
"376 -185 CURVE SMOOTH",
"398 -185 OFFCURVE",
"419 -180 OFFCURVE",
"442 -171 CURVE",
"442 -116 LINE",
"420 -116 LINE SMOOTH",
"387 -116 OFFCURVE",
"375 -91 OFFCURVE",
"375 -65 CURVE SMOOTH",
"375 -37 OFFCURVE",
"393 -9 OFFCURVE",
"405 5 CURVE",
"486 36 OFFCURVE",
"532 110 OFFCURVE",
"532 223 CURVE SMOOTH"
);
}
);
width = 592;
}
);
unicode = 0172;
},
{
color = (31,255,0,1);
glyphname = Uring;
lastChange = "2015-02-05 02:37:04 +0000";
layers = (
{
background = {
paths = (
{
closed = 1;
nodes = (
"542 686 LINE",
"414 686 LINE",
"414 227 LINE SMOOTH",
"414 143 OFFCURVE",
"370 98 OFFCURVE",
"296 98 CURVE SMOOTH",
"222 98 OFFCURVE",
"179 143 OFFCURVE",
"179 227 CURVE SMOOTH",
"179 686 LINE",
"51 686 LINE",
"51 223 LINE SMOOTH",
"51 69 OFFCURVE",
"143 -12 OFFCURVE",
"296 -12 CURVE SMOOTH",
"449 -12 OFFCURVE",
"542 69 OFFCURVE",
"542 223 CURVE SMOOTH"
);
}
);
};
layerId = UUID0;
name = Regular;
paths = (
{
closed = 1;
nodes = (
"243 913 OFFCURVE",
"200 870 OFFCURVE",
"200 817 CURVE SMOOTH",
"200 763 OFFCURVE",
"244 721 OFFCURVE",
"296 721 CURVE SMOOTH",
"349 721 OFFCURVE",
"392 764 OFFCURVE",
"392 817 CURVE SMOOTH",
"392 869 OFFCURVE",
"350 913 OFFCURVE",
"296 913 CURVE SMOOTH"
);
},
{
closed = 1;
nodes = (
"321 863 OFFCURVE",
"342 843 OFFCURVE",
"342 817 CURVE SMOOTH",
"342 791 OFFCURVE",
"321 771 OFFCURVE",
"296 771 CURVE SMOOTH",
"270 771 OFFCURVE",
"250 791 OFFCURVE",
"250 817 CURVE SMOOTH",
"250 843 OFFCURVE",
"270 863 OFFCURVE",
"296 863 CURVE SMOOTH"
);
},
{
closed = 1;
nodes = (
"61 215 LINE SMOOTH",
"61 66 OFFCURVE",
"149 -12 OFFCURVE",
"296 -12 CURVE SMOOTH",
"443 -12 OFFCURVE",
"532 66 OFFCURVE",
"532 215 CURVE SMOOTH",
"532 686 LINE",
"404 686 LINE",
"404 219 LINE SMOOTH",
"404 140 OFFCURVE",
"364 98 OFFCURVE",
"296 98 CURVE SMOOTH",
"228 98 OFFCURVE",
"189 140 OFFCURVE",
"189 219 CURVE SMOOTH",
"189 686 LINE",
"61 686 LINE"
);
}
);
width = 592;
}
);
unicode = 016E;
},
{
color = (31,255,0,1);
glyphname = Utilde;
lastChange = "2015-02-05 02:37:04 +0000";
layers = (
{
background = {
paths = (
{
closed = 1;
nodes = (
"542 686 LINE",
"414 686 LINE",
"414 227 LINE SMOOTH",
"414 143 OFFCURVE",
"370 98 OFFCURVE",
"296 98 CURVE SMOOTH",
"222 98 OFFCURVE",
"179 143 OFFCURVE",
"179 227 CURVE SMOOTH",
"179 686 LINE",
"51 686 LINE",
"51 223 LINE SMOOTH",
"51 69 OFFCURVE",
"143 -12 OFFCURVE",
"296 -12 CURVE SMOOTH",
"449 -12 OFFCURVE",
"542 69 OFFCURVE",
"542 223 CURVE SMOOTH"
);
}
);
};
layerId = UUID0;
name = Regular;
paths = (
{
closed = 1;
nodes = (
"398 883 LINE",
"394 855 OFFCURVE",
"380 846 OFFCURVE",
"359 846 CURVE SMOOTH",
"314 846 OFFCURVE",
"275 883 OFFCURVE",
"226 883 CURVE SMOOTH",
"156 883 OFFCURVE",
"128 816 OFFCURVE",
"128 761 CURVE",
"194 761 LINE",
"198 788 OFFCURVE",
"212 798 OFFCURVE",
"233 798 CURVE SMOOTH",
"278 798 OFFCURVE",
"317 761 OFFCURVE",
"365 761 CURVE SMOOTH",
"436 761 OFFCURVE",
"464 828 OFFCURVE",
"464 883 CURVE"
);
},
{
closed = 1;
nodes = (
"61 215 LINE SMOOTH",
"61 66 OFFCURVE",
"149 -12 OFFCURVE",
"296 -12 CURVE SMOOTH",
"443 -12 OFFCURVE",
"532 66 OFFCURVE",
"532 215 CURVE SMOOTH",
"532 686 LINE",
"404 686 LINE",
"404 219 LINE SMOOTH",
"404 140 OFFCURVE",
"364 98 OFFCURVE",
"296 98 CURVE SMOOTH",
"228 98 OFFCURVE",
"189 140 OFFCURVE",
"189 219 CURVE SMOOTH",
"189 686 LINE",
"61 686 LINE"
);
}
);
width = 592;
}
);
unicode = 0168;
},
{
glyphname = V;
lastChange = "2015-02-05 02:37:04 +0000";
layers = (
{
layerId = UUID0;
name = Regular;
paths = (
{
closed = 1;
nodes = (
"547 686 LINE",
"422 686 LINE",
"280 195 LINE",
"276 195 LINE",
"132 686 LINE",
"0 686 LINE",
"209 0 LINE",
"338 0 LINE"
);
}
);
width = 547;
}
);
unicode = 0056;
},
{
glyphname = W;
lastChange = "2015-02-05 02:37:04 +0000";
layers = (
{
anchors = (
{
name = top;
position = "{387, 686}";
}
);
layerId = UUID0;
name = Regular;
paths = (
{
closed = 1;
nodes = (
"773 686 LINE",
"663 686 LINE",
"579 264 LINE SMOOTH",
"572 230 OFFCURVE",
"566 168 OFFCURVE",
"566 168 CURVE",
"562 168 LINE",
"562 168 OFFCURVE",
"554 237 OFFCURVE",
"549 264 CURVE SMOOTH",
"467 686 LINE",
"322 686 LINE",
"239 264 LINE SMOOTH",
"233 235 OFFCURVE",
"226 168 OFFCURVE",
"226 168 CURVE",
"222 168 LINE",
"222 168 OFFCURVE",
"215 234 OFFCURVE",
"209 264 CURVE SMOOTH",
"127 686 LINE",
"0 686 LINE",
"149 0 LINE",
"278 0 LINE",
"370 437 LINE SMOOTH",
"376 466 OFFCURVE",
"384 534 OFFCURVE",
"384 534 CURVE",
"388 534 LINE",
"388 534 OFFCURVE",
"394 472 OFFCURVE",
"402 437 CURVE SMOOTH",
"495 0 LINE",
"624 0 LINE"
);
}
);
width = 774;
}
);
unicode = 0057;
},
{
glyphname = Wacute;
lastChange = "2015-02-05 02:37:04 +0000";
layers = (
{
layerId = UUID0;
name = Regular;
paths = (
{
closed = 1;
nodes = (
"773 686 LINE",
"663 686 LINE",
"579 264 LINE SMOOTH",
"572 230 OFFCURVE",
"566 168 OFFCURVE",
"566 168 CURVE",
"562 168 LINE",
"562 168 OFFCURVE",
"554 237 OFFCURVE",
"549 264 CURVE SMOOTH",
"467 686 LINE",
"322 686 LINE",
"239 264 LINE SMOOTH",
"233 235 OFFCURVE",
"226 168 OFFCURVE",
"226 168 CURVE",
"222 168 LINE",
"222 168 OFFCURVE",
"215 234 OFFCURVE",
"209 264 CURVE SMOOTH",
"127 686 LINE",
"0 686 LINE",
"149 0 LINE",
"278 0 LINE",
"370 437 LINE SMOOTH",
"376 466 OFFCURVE",
"384 534 OFFCURVE",
"384 534 CURVE",
"388 534 LINE",
"388 534 OFFCURVE",
"394 472 OFFCURVE",
"402 437 CURVE SMOOTH",
"495 0 LINE",
"624 0 LINE"
);
},
{
closed = 1;
nodes = (
"524 883 LINE",
"404 883 LINE",
"318 751 LINE",
"417 751 LINE",
"525 880 LINE"
);
}
);
width = 774;
}
);
unicode = 1E82;
},
{
glyphname = Wcircumflex;
lastChange = "2015-02-05 02:37:04 +0000";
layers = (
{
layerId = UUID0;
name = Regular;
paths = (
{
closed = 1;
nodes = (
"773 686 LINE",
"663 686 LINE",
"579 264 LINE SMOOTH",
"572 230 OFFCURVE",
"566 168 OFFCURVE",
"566 168 CURVE",
"562 168 LINE",
"562 168 OFFCURVE",
"554 237 OFFCURVE",
"549 264 CURVE SMOOTH",
"467 686 LINE",
"322 686 LINE",
"239 264 LINE SMOOTH",
"233 235 OFFCURVE",
"226 168 OFFCURVE",
"226 168 CURVE",
"222 168 LINE",
"222 168 OFFCURVE",
"215 234 OFFCURVE",
"209 264 CURVE SMOOTH",
"127 686 LINE",
"0 686 LINE",
"149 0 LINE",
"278 0 LINE",
"370 437 LINE SMOOTH",
"376 466 OFFCURVE",
"384 534 OFFCURVE",
"384 534 CURVE",
"388 534 LINE",
"388 534 OFFCURVE",
"394 472 OFFCURVE",
"402 437 CURVE SMOOTH",
"495 0 LINE",
"624 0 LINE"
);
},
{
closed = 1;
nodes = (
"437 883 LINE",
"339 883 LINE",
"253 748 LINE",
"343 748 LINE",
"388 817 LINE",
"432 748 LINE",
"522 748 LINE"
);
}
);
width = 774;
}
);
unicode = 0174;
},
{
glyphname = Wdieresis;
lastChange = "2015-02-05 02:37:04 +0000";
layers = (
{
layerId = UUID0;
name = Regular;
paths = (
{
closed = 1;
nodes = (
"773 686 LINE",
"663 686 LINE",
"579 264 LINE SMOOTH",
"572 230 OFFCURVE",
"566 168 OFFCURVE",
"566 168 CURVE",
"562 168 LINE",
"562 168 OFFCURVE",
"554 237 OFFCURVE",
"549 264 CURVE SMOOTH",
"467 686 LINE",
"322 686 LINE",
"239 264 LINE SMOOTH",
"233 235 OFFCURVE",
"226 168 OFFCURVE",
"226 168 CURVE",
"222 168 LINE",
"222 168 OFFCURVE",
"215 234 OFFCURVE",
"209 264 CURVE SMOOTH",
"127 686 LINE",
"0 686 LINE",
"149 0 LINE",
"278 0 LINE",
"370 437 LINE SMOOTH",
"376 466 OFFCURVE",
"384 534 OFFCURVE",
"384 534 CURVE",
"388 534 LINE",
"388 534 OFFCURVE",
"394 472 OFFCURVE",
"402 437 CURVE SMOOTH",
"495 0 LINE",
"624 0 LINE"
);
},
{
closed = 1;
nodes = (
"350 883 LINE",
"250 883 LINE",
"250 774 LINE",
"350 774 LINE"
);
},
{
closed = 1;
nodes = (
"525 883 LINE",
"425 883 LINE",
"425 774 LINE",
"525 774 LINE"
);
}
);
width = 774;
}
);
unicode = 1E84;
},
{
glyphname = Wgrave;
lastChange = "2015-02-05 02:37:04 +0000";
layers = (
{
layerId = UUID0;
name = Regular;
paths = (
{
closed = 1;
nodes = (
"773 686 LINE",
"663 686 LINE",
"579 264 LINE SMOOTH",
"572 230 OFFCURVE",
"566 168 OFFCURVE",
"566 168 CURVE",
"562 168 LINE",
"562 168 OFFCURVE",
"554 237 OFFCURVE",
"549 264 CURVE SMOOTH",
"467 686 LINE",
"322 686 LINE",
"239 264 LINE SMOOTH",
"233 235 OFFCURVE",
"226 168 OFFCURVE",
"226 168 CURVE",
"222 168 LINE",
"222 168 OFFCURVE",
"215 234 OFFCURVE",
"209 264 CURVE SMOOTH",
"127 686 LINE",
"0 686 LINE",
"149 0 LINE",
"278 0 LINE",
"370 437 LINE SMOOTH",
"376 466 OFFCURVE",
"384 534 OFFCURVE",
"384 534 CURVE",
"388 534 LINE",
"388 534 OFFCURVE",
"394 472 OFFCURVE",
"402 437 CURVE SMOOTH",
"495 0 LINE",
"624 0 LINE"
);
},
{
closed = 1;
nodes = (
"370 883 LINE",
"250 883 LINE",
"249 880 LINE",
"357 751 LINE",
"456 751 LINE"
);
}
);
width = 774;
}
);
unicode = 1E80;
},
{
glyphname = X;
lastChange = "2015-02-05 02:37:04 +0000";
layers = (
{
layerId = UUID0;
name = Regular;
paths = (
{
closed = 1;
nodes = (
"528 686 LINE",
"395 686 LINE",
"280 462 LINE",
"276 462 LINE",
"161 686 LINE",
"18 686 LINE",
"194 360 LINE",
"0 0 LINE",
"133 0 LINE",
"266 259 LINE",
"270 259 LINE",
"404 0 LINE",
"546 0 LINE",
"351 362 LINE"
);
}
);
width = 547;
}
);
unicode = 0058;
},
{
glyphname = Y;
lastChange = "2015-02-05 02:37:04 +0000";
layers = (
{
anchors = (
{
name = top;
position = "{273, 686}";
}
);
layerId = UUID0;
name = Regular;
paths = (
{
closed = 1;
nodes = (
"547 686 LINE",
"418 686 LINE",
"279 385 LINE",
"275 385 LINE",
"135 686 LINE",
"0 686 LINE",
"210 259 LINE",
"210 0 LINE",
"338 0 LINE",
"338 259 LINE"
);
}
);
width = 547;
}
);
unicode = 0059;
},
{
glyphname = Yacute;
lastChange = "2015-02-05 02:37:04 +0000";
layers = (
{
layerId = UUID0;
name = Regular;
paths = (
{
closed = 1;
nodes = (
"547 686 LINE",
"418 686 LINE",
"279 385 LINE",
"275 385 LINE",
"135 686 LINE",
"0 686 LINE",
"210 259 LINE",
"210 0 LINE",
"338 0 LINE",
"338 259 LINE"
);
},
{
closed = 1;
nodes = (
"411 883 LINE",
"291 883 LINE",
"205 751 LINE",
"304 751 LINE",
"412 880 LINE"
);
}
);
width = 547;
}
);
unicode = 00DD;
},
{
glyphname = Ycircumflex;
lastChange = "2015-02-05 02:37:04 +0000";
layers = (
{
layerId = UUID0;
name = Regular;
paths = (
{
closed = 1;
nodes = (
"547 686 LINE",
"418 686 LINE",
"279 385 LINE",
"275 385 LINE",
"135 686 LINE",
"0 686 LINE",
"210 259 LINE",
"210 0 LINE",
"338 0 LINE",
"338 259 LINE"
);
},
{
closed = 1;
nodes = (
"323 883 LINE",
"225 883 LINE",
"139 748 LINE",
"229 748 LINE",
"274 817 LINE",
"318 748 LINE",
"408 748 LINE"
);
}
);
width = 547;
}
);
unicode = 0176;
},
{
glyphname = Ydieresis;
lastChange = "2015-02-05 02:37:04 +0000";
layers = (
{
layerId = UUID0;
name = Regular;
paths = (
{
closed = 1;
nodes = (
"547 686 LINE",
"418 686 LINE",
"279 385 LINE",
"275 385 LINE",
"135 686 LINE",
"0 686 LINE",
"210 259 LINE",
"210 0 LINE",
"338 0 LINE",
"338 259 LINE"
);
},
{
closed = 1;
nodes = (
"236 883 LINE",
"136 883 LINE",
"136 774 LINE",
"236 774 LINE"
);
},
{
closed = 1;
nodes = (
"411 883 LINE",
"311 883 LINE",
"311 774 LINE",
"411 774 LINE"
);
}
);
width = 547;
}
);
unicode = 0178;
},
{
glyphname = Ygrave;
lastChange = "2015-02-05 02:37:04 +0000";
layers = (
{
layerId = UUID0;
name = Regular;
paths = (
{
closed = 1;
nodes = (
"547 686 LINE",
"418 686 LINE",
"279 385 LINE",
"275 385 LINE",
"135 686 LINE",
"0 686 LINE",
"210 259 LINE",
"210 0 LINE",
"338 0 LINE",
"338 259 LINE"
);
},
{
closed = 1;
nodes = (
"256 883 LINE",
"136 883 LINE",
"135 880 LINE",
"243 751 LINE",
"342 751 LINE"
);
}
);
width = 547;
}
);
unicode = 1EF2;
},
{
glyphname = Z;
lastChange = "2015-02-05 02:37:04 +0000";
layers = (
{
anchors = (
{
name = top;
position = "{250, 686}";
}
);
layerId = UUID0;
name = Regular;
paths = (
{
closed = 1;
nodes = (
"473 686 LINE",
"37 686 LINE",
"37 572 LINE",
"298 572 LINE",
"16 49 LINE",
"16 0 LINE",
"480 0 LINE",
"480 114 LINE",
"191 114 LINE",
"473 636 LINE"
);
}
);
width = 501;
}
);
unicode = 005A;
},
{
glyphname = Zacute;
lastChange = "2015-02-05 02:37:04 +0000";
layers = (
{
layerId = UUID0;
name = Regular;
paths = (
{
closed = 1;
nodes = (
"473 686 LINE",
"37 686 LINE",
"37 572 LINE",
"298 572 LINE",
"16 49 LINE",
"16 0 LINE",
"480 0 LINE",
"480 114 LINE",
"191 114 LINE",
"473 636 LINE"
);
},
{
closed = 1;
nodes = (
"388 883 LINE",
"268 883 LINE",
"182 751 LINE",
"281 751 LINE",
"389 880 LINE"
);
}
);
width = 501;
}
);
unicode = 0179;
},
{
glyphname = Zcaron;
lastChange = "2015-02-05 02:37:04 +0000";
layers = (
{
layerId = UUID0;
name = Regular;
paths = (
{
closed = 1;
nodes = (
"473 686 LINE",
"37 686 LINE",
"37 572 LINE",
"298 572 LINE",
"16 49 LINE",
"16 0 LINE",
"480 0 LINE",
"480 114 LINE",
"191 114 LINE",
"473 636 LINE"
);
},
{
closed = 1;
nodes = (
"385 883 LINE",
"295 883 LINE",
"251 814 LINE",
"206 883 LINE",
"116 883 LINE",
"202 748 LINE",
"300 748 LINE"
);
}
);
width = 501;
}
);
unicode = 017D;
},
{
glyphname = Zdotaccent;
lastChange = "2015-02-05 02:37:04 +0000";
layers = (
{
layerId = UUID0;
name = Regular;
paths = (
{
closed = 1;
nodes = (
"473 686 LINE",
"37 686 LINE",
"37 572 LINE",
"298 572 LINE",
"16 49 LINE",
"16 0 LINE",
"480 0 LINE",
"480 114 LINE",
"191 114 LINE",
"473 636 LINE"
);
},
{
closed = 1;
nodes = (
"304 883 LINE",
"197 883 LINE",
"197 768 LINE",
"304 768 LINE"
);
}
);
width = 501;
}
);
unicode = 017B;
},
{
glyphname = a;
lastChange = "2015-02-05 02:37:04 +0000";
layers = (
{
anchors = (
{
name = ogonek;
position = "{448, 4}";
},
{
name = top;
position = "{217, 526}";
}
);
layerId = UUID0;
name = Regular;
paths = (
{
closed = 1;
nodes = (
"109 538 OFFCURVE",
"39 480 OFFCURVE",
"39 392 CURVE SMOOTH",
"39 383 OFFCURVE",
"39 376 OFFCURVE",
"40 370 CURVE",
"157 370 LINE",
"157 385 LINE SMOOTH",
"157 410 OFFCURVE",
"171 440 OFFCURVE",
"220 440 CURVE SMOOTH",
"266 440 OFFCURVE",
"275 411 OFFCURVE",
"275 375 CURVE SMOOTH",
"275 320 LINE",
"122 320 OFFCURVE",
"14 278 OFFCURVE",
"14 136 CURVE SMOOTH",
"14 14 OFFCURVE",
"97 -12 OFFCURVE",
"146 -12 CURVE SMOOTH",
"216 -12 OFFCURVE",
"249 15 OFFCURVE",
"279 57 CURVE",
"284 57 LINE",
"296 16 OFFCURVE",
"329 -12 OFFCURVE",
"377 -12 CURVE SMOOTH",
"413 -12 OFFCURVE",
"435 -3 OFFCURVE",
"448 4 CURVE",
"448 89 LINE",
"424 89 LINE SMOOTH",
"410 89 OFFCURVE",
"396 99 OFFCURVE",
"396 124 CURVE SMOOTH",
"396 383 LINE SMOOTH",
"396 481 OFFCURVE",
"339 538 OFFCURVE",
"217 538 CURVE SMOOTH"
);
},
{
closed = 1;
nodes = (
"275 203 LINE",
"275 141 OFFCURVE",
"253 88 OFFCURVE",
"196 88 CURVE SMOOTH",
"155 88 OFFCURVE",
"137 111 OFFCURVE",
"137 147 CURVE SMOOTH",
"137 215 OFFCURVE",
"205 233 OFFCURVE",
"275 233 CURVE"
);
}
);
width = 456;
}
);
unicode = 0061;
},
{
glyphname = aacute;
lastChange = "2015-02-05 02:37:04 +0000";
layers = (
{
layerId = UUID0;
name = Regular;
paths = (
{
closed = 1;
nodes = (
"109 538 OFFCURVE",
"39 480 OFFCURVE",
"39 392 CURVE SMOOTH",
"39 383 OFFCURVE",
"39 376 OFFCURVE",
"40 370 CURVE",
"157 370 LINE",
"157 385 LINE SMOOTH",
"157 410 OFFCURVE",
"171 440 OFFCURVE",
"220 440 CURVE SMOOTH",
"266 440 OFFCURVE",
"275 411 OFFCURVE",
"275 375 CURVE SMOOTH",
"275 320 LINE",
"122 320 OFFCURVE",
"14 278 OFFCURVE",
"14 136 CURVE SMOOTH",
"14 14 OFFCURVE",
"97 -12 OFFCURVE",
"146 -12 CURVE SMOOTH",
"216 -12 OFFCURVE",
"249 15 OFFCURVE",
"279 57 CURVE",
"284 57 LINE",
"296 16 OFFCURVE",
"329 -12 OFFCURVE",
"377 -12 CURVE SMOOTH",
"413 -12 OFFCURVE",
"435 -3 OFFCURVE",
"448 4 CURVE",
"448 89 LINE",
"424 89 LINE SMOOTH",
"410 89 OFFCURVE",
"396 99 OFFCURVE",
"396 124 CURVE SMOOTH",
"396 383 LINE SMOOTH",
"396 481 OFFCURVE",
"339 538 OFFCURVE",
"217 538 CURVE SMOOTH"
);
},
{
closed = 1;
nodes = (
"275 203 LINE",
"275 141 OFFCURVE",
"253 88 OFFCURVE",
"196 88 CURVE SMOOTH",
"155 88 OFFCURVE",
"137 111 OFFCURVE",
"137 147 CURVE SMOOTH",
"137 215 OFFCURVE",
"205 233 OFFCURVE",
"275 233 CURVE"
);
},
{
closed = 1;
nodes = (
"354 723 LINE",
"234 723 LINE",
"148 591 LINE",
"247 591 LINE",
"355 720 LINE"
);
}
);
width = 456;
}
);
unicode = 00E1;
},
{
glyphname = abreve;
lastChange = "2015-02-05 02:37:04 +0000";
layers = (
{
layerId = UUID0;
name = Regular;
paths = (
{
closed = 1;
nodes = (
"109 538 OFFCURVE",
"39 480 OFFCURVE",
"39 392 CURVE SMOOTH",
"39 383 OFFCURVE",
"39 376 OFFCURVE",
"40 370 CURVE",
"157 370 LINE",
"157 385 LINE SMOOTH",
"157 410 OFFCURVE",
"171 440 OFFCURVE",
"220 440 CURVE SMOOTH",
"266 440 OFFCURVE",
"275 411 OFFCURVE",
"275 375 CURVE SMOOTH",
"275 320 LINE",
"122 320 OFFCURVE",
"14 278 OFFCURVE",
"14 136 CURVE SMOOTH",
"14 14 OFFCURVE",
"97 -12 OFFCURVE",
"146 -12 CURVE SMOOTH",
"216 -12 OFFCURVE",
"249 15 OFFCURVE",
"279 57 CURVE",
"284 57 LINE",
"296 16 OFFCURVE",
"329 -12 OFFCURVE",
"377 -12 CURVE SMOOTH",
"413 -12 OFFCURVE",
"435 -3 OFFCURVE",
"448 4 CURVE",
"448 89 LINE",
"424 89 LINE SMOOTH",
"410 89 OFFCURVE",
"396 99 OFFCURVE",
"396 124 CURVE SMOOTH",
"396 383 LINE SMOOTH",
"396 481 OFFCURVE",
"339 538 OFFCURVE",
"217 538 CURVE SMOOTH"
);
},
{
closed = 1;
nodes = (
"275 203 LINE",
"275 141 OFFCURVE",
"253 88 OFFCURVE",
"196 88 CURVE SMOOTH",
"155 88 OFFCURVE",
"137 111 OFFCURVE",
"137 147 CURVE SMOOTH",
"137 215 OFFCURVE",
"205 233 OFFCURVE",
"275 233 CURVE"
);
},
{
closed = 1;
nodes = (
"276 723 LINE",
"274 709 OFFCURVE",
"250 690 OFFCURVE",
"216 690 CURVE SMOOTH",
"184 690 OFFCURVE",
"161 709 OFFCURVE",
"158 723 CURVE",
"83 723 LINE",
"83 673 OFFCURVE",
"134 616 OFFCURVE",
"216 616 CURVE SMOOTH",
"299 616 OFFCURVE",
"351 673 OFFCURVE",
"351 723 CURVE"
);
}
);
width = 456;
}
);
unicode = 0103;
},
{
glyphname = acircumflex;
lastChange = "2015-02-05 02:37:04 +0000";
layers = (
{
layerId = UUID0;
name = Regular;
paths = (
{
closed = 1;
nodes = (
"109 538 OFFCURVE",
"39 480 OFFCURVE",
"39 392 CURVE SMOOTH",
"39 383 OFFCURVE",
"39 376 OFFCURVE",
"40 370 CURVE",
"157 370 LINE",
"157 385 LINE SMOOTH",
"157 410 OFFCURVE",
"171 440 OFFCURVE",
"220 440 CURVE SMOOTH",
"266 440 OFFCURVE",
"275 411 OFFCURVE",
"275 375 CURVE SMOOTH",
"275 320 LINE",
"122 320 OFFCURVE",
"14 278 OFFCURVE",
"14 136 CURVE SMOOTH",
"14 14 OFFCURVE",
"97 -12 OFFCURVE",
"146 -12 CURVE SMOOTH",
"216 -12 OFFCURVE",
"249 15 OFFCURVE",
"279 57 CURVE",
"284 57 LINE",
"296 16 OFFCURVE",
"329 -12 OFFCURVE",
"377 -12 CURVE SMOOTH",
"413 -12 OFFCURVE",
"435 -3 OFFCURVE",
"448 4 CURVE",
"448 89 LINE",
"424 89 LINE SMOOTH",
"410 89 OFFCURVE",
"396 99 OFFCURVE",
"396 124 CURVE SMOOTH",
"396 383 LINE SMOOTH",
"396 481 OFFCURVE",
"339 538 OFFCURVE",
"217 538 CURVE SMOOTH"
);
},
{
closed = 1;
nodes = (
"275 203 LINE",
"275 141 OFFCURVE",
"253 88 OFFCURVE",
"196 88 CURVE SMOOTH",
"155 88 OFFCURVE",
"137 111 OFFCURVE",
"137 147 CURVE SMOOTH",
"137 215 OFFCURVE",
"205 233 OFFCURVE",
"275 233 CURVE"
);
},
{
closed = 1;
nodes = (
"267 723 LINE",
"168 723 LINE",
"83 588 LINE",
"172 588 LINE",
"217 657 LINE",
"262 588 LINE",
"352 588 LINE"
);
}
);
width = 456;
}
);
unicode = 00E2;
},
{
glyphname = adieresis;
lastChange = "2015-02-05 02:37:04 +0000";
layers = (
{
layerId = UUID0;
name = Regular;
paths = (
{
closed = 1;
nodes = (
"109 538 OFFCURVE",
"39 480 OFFCURVE",
"39 392 CURVE SMOOTH",
"39 383 OFFCURVE",
"39 376 OFFCURVE",
"40 370 CURVE",
"157 370 LINE",
"157 385 LINE SMOOTH",
"157 410 OFFCURVE",
"171 440 OFFCURVE",
"220 440 CURVE SMOOTH",
"266 440 OFFCURVE",
"275 411 OFFCURVE",
"275 375 CURVE SMOOTH",
"275 320 LINE",
"122 320 OFFCURVE",
"14 278 OFFCURVE",
"14 136 CURVE SMOOTH",
"14 14 OFFCURVE",
"97 -12 OFFCURVE",
"146 -12 CURVE SMOOTH",
"216 -12 OFFCURVE",
"249 15 OFFCURVE",
"279 57 CURVE",
"284 57 LINE",
"296 16 OFFCURVE",
"329 -12 OFFCURVE",
"377 -12 CURVE SMOOTH",
"413 -12 OFFCURVE",
"435 -3 OFFCURVE",
"448 4 CURVE",
"448 89 LINE",
"424 89 LINE SMOOTH",
"410 89 OFFCURVE",
"396 99 OFFCURVE",
"396 124 CURVE SMOOTH",
"396 383 LINE SMOOTH",
"396 481 OFFCURVE",
"339 538 OFFCURVE",
"217 538 CURVE SMOOTH"
);
},
{
closed = 1;
nodes = (
"275 203 LINE",
"275 141 OFFCURVE",
"253 88 OFFCURVE",
"196 88 CURVE SMOOTH",
"155 88 OFFCURVE",
"137 111 OFFCURVE",
"137 147 CURVE SMOOTH",
"137 215 OFFCURVE",
"205 233 OFFCURVE",
"275 233 CURVE"
);
},
{
closed = 1;
nodes = (
"180 723 LINE",
"80 723 LINE",
"80 614 LINE",
"180 614 LINE"
);
},
{
closed = 1;
nodes = (
"354 723 LINE",
"254 723 LINE",
"254 614 LINE",
"354 614 LINE"
);
}
);
width = 456;
}
);
unicode = 00E4;
},
{
glyphname = agrave;
lastChange = "2015-02-05 02:37:04 +0000";
layers = (
{
layerId = UUID0;
name = Regular;
paths = (
{
closed = 1;
nodes = (
"109 538 OFFCURVE",
"39 480 OFFCURVE",
"39 392 CURVE SMOOTH",
"39 383 OFFCURVE",
"39 376 OFFCURVE",
"40 370 CURVE",
"157 370 LINE",
"157 385 LINE SMOOTH",
"157 410 OFFCURVE",
"171 440 OFFCURVE",
"220 440 CURVE SMOOTH",
"266 440 OFFCURVE",
"275 411 OFFCURVE",
"275 375 CURVE SMOOTH",
"275 320 LINE",
"122 320 OFFCURVE",
"14 278 OFFCURVE",
"14 136 CURVE SMOOTH",
"14 14 OFFCURVE",
"97 -12 OFFCURVE",
"146 -12 CURVE SMOOTH",
"216 -12 OFFCURVE",
"249 15 OFFCURVE",
"279 57 CURVE",
"284 57 LINE",
"296 16 OFFCURVE",
"329 -12 OFFCURVE",
"377 -12 CURVE SMOOTH",
"413 -12 OFFCURVE",
"435 -3 OFFCURVE",
"448 4 CURVE",
"448 89 LINE",
"424 89 LINE SMOOTH",
"410 89 OFFCURVE",
"396 99 OFFCURVE",
"396 124 CURVE SMOOTH",
"396 383 LINE SMOOTH",
"396 481 OFFCURVE",
"339 538 OFFCURVE",
"217 538 CURVE SMOOTH"
);
},
{
closed = 1;
nodes = (
"275 203 LINE",
"275 141 OFFCURVE",
"253 88 OFFCURVE",
"196 88 CURVE SMOOTH",
"155 88 OFFCURVE",
"137 111 OFFCURVE",
"137 147 CURVE SMOOTH",
"137 215 OFFCURVE",
"205 233 OFFCURVE",
"275 233 CURVE"
);
},
{
closed = 1;
nodes = (
"200 723 LINE",
"80 723 LINE",
"79 720 LINE",
"187 591 LINE",
"286 591 LINE"
);
}
);
width = 456;
}
);
unicode = 00E0;
},
{
glyphname = amacron;
lastChange = "2015-02-05 02:37:04 +0000";
layers = (
{
layerId = UUID0;
name = Regular;
paths = (
{
closed = 1;
nodes = (
"109 538 OFFCURVE",
"39 480 OFFCURVE",
"39 392 CURVE SMOOTH",
"39 383 OFFCURVE",
"39 376 OFFCURVE",
"40 370 CURVE",
"157 370 LINE",
"157 385 LINE SMOOTH",
"157 410 OFFCURVE",
"171 440 OFFCURVE",
"220 440 CURVE SMOOTH",
"266 440 OFFCURVE",
"275 411 OFFCURVE",
"275 375 CURVE SMOOTH",
"275 320 LINE",
"122 320 OFFCURVE",
"14 278 OFFCURVE",
"14 136 CURVE SMOOTH",
"14 14 OFFCURVE",
"97 -12 OFFCURVE",
"146 -12 CURVE SMOOTH",
"216 -12 OFFCURVE",
"249 15 OFFCURVE",
"279 57 CURVE",
"284 57 LINE",
"296 16 OFFCURVE",
"329 -12 OFFCURVE",
"377 -12 CURVE SMOOTH",
"413 -12 OFFCURVE",
"435 -3 OFFCURVE",
"448 4 CURVE",
"448 89 LINE",
"424 89 LINE SMOOTH",
"410 89 OFFCURVE",
"396 99 OFFCURVE",
"396 124 CURVE SMOOTH",
"396 383 LINE SMOOTH",
"396 481 OFFCURVE",
"339 538 OFFCURVE",
"217 538 CURVE SMOOTH"
);
},
{
closed = 1;
nodes = (
"275 203 LINE",
"275 141 OFFCURVE",
"253 88 OFFCURVE",
"196 88 CURVE SMOOTH",
"155 88 OFFCURVE",
"137 111 OFFCURVE",
"137 147 CURVE SMOOTH",
"137 215 OFFCURVE",
"205 233 OFFCURVE",
"275 233 CURVE"
);
},
{
closed = 1;
nodes = (
"345 686 LINE",
"89 686 LINE",
"89 599 LINE",
"345 599 LINE"
);
}
);
width = 456;
}
);
unicode = 0101;
},
{
glyphname = aogonek;
lastChange = "2015-02-05 02:37:04 +0000";
layers = (
{
layerId = UUID0;
name = Regular;
paths = (
{
closed = 1;
nodes = (
"109 538 OFFCURVE",
"39 480 OFFCURVE",
"39 392 CURVE SMOOTH",
"39 383 OFFCURVE",
"39 376 OFFCURVE",
"40 370 CURVE",
"157 370 LINE",
"157 385 LINE SMOOTH",
"157 410 OFFCURVE",
"171 440 OFFCURVE",
"220 440 CURVE SMOOTH",
"266 440 OFFCURVE",
"275 411 OFFCURVE",
"275 375 CURVE SMOOTH",
"275 320 LINE",
"122 320 OFFCURVE",
"14 278 OFFCURVE",
"14 136 CURVE SMOOTH",
"14 14 OFFCURVE",
"97 -12 OFFCURVE",
"146 -12 CURVE SMOOTH",
"216 -12 OFFCURVE",
"249 15 OFFCURVE",
"279 57 CURVE",
"284 57 LINE",
"294 23 OFFCURVE",
"317 -1 OFFCURVE",
"352 -9 CURVE",
"334 -31 OFFCURVE",
"320 -57 OFFCURVE",
"320 -96 CURVE SMOOTH",
"320 -165 OFFCURVE",
"374 -186 OFFCURVE",
"419 -186 CURVE SMOOTH",
"441 -186 OFFCURVE",
"462 -181 OFFCURVE",
"485 -172 CURVE",
"485 -117 LINE",
"463 -117 LINE SMOOTH",
"430 -117 OFFCURVE",
"418 -92 OFFCURVE",
"418 -66 CURVE SMOOTH",
"418 -38 OFFCURVE",
"437 -10 OFFCURVE",
"448 4 CURVE",
"448 89 LINE",
"424 89 LINE SMOOTH",
"410 89 OFFCURVE",
"396 99 OFFCURVE",
"396 124 CURVE SMOOTH",
"396 383 LINE SMOOTH",
"396 481 OFFCURVE",
"339 538 OFFCURVE",
"217 538 CURVE SMOOTH"
);
},
{
closed = 1;
nodes = (
"275 203 LINE SMOOTH",
"275 141 OFFCURVE",
"253 88 OFFCURVE",
"196 88 CURVE SMOOTH",
"155 88 OFFCURVE",
"137 111 OFFCURVE",
"137 147 CURVE SMOOTH",
"137 215 OFFCURVE",
"205 233 OFFCURVE",
"275 233 CURVE"
);
}
);
width = 456;
}
);
unicode = 0105;
},
{
glyphname = aring;
lastChange = "2015-02-05 02:37:04 +0000";
layers = (
{
layerId = UUID0;
name = Regular;
paths = (
{
closed = 1;
nodes = (
"109 538 OFFCURVE",
"39 480 OFFCURVE",
"39 392 CURVE SMOOTH",
"39 383 OFFCURVE",
"39 376 OFFCURVE",
"40 370 CURVE",
"157 370 LINE",
"157 385 LINE SMOOTH",
"157 410 OFFCURVE",
"171 440 OFFCURVE",
"220 440 CURVE SMOOTH",
"266 440 OFFCURVE",
"275 411 OFFCURVE",
"275 375 CURVE SMOOTH",
"275 320 LINE",
"122 320 OFFCURVE",
"14 278 OFFCURVE",
"14 136 CURVE SMOOTH",
"14 14 OFFCURVE",
"97 -12 OFFCURVE",
"146 -12 CURVE SMOOTH",
"216 -12 OFFCURVE",
"249 15 OFFCURVE",
"279 57 CURVE",
"284 57 LINE",
"296 16 OFFCURVE",
"329 -12 OFFCURVE",
"377 -12 CURVE SMOOTH",
"413 -12 OFFCURVE",
"435 -3 OFFCURVE",
"448 4 CURVE",
"448 89 LINE",
"424 89 LINE SMOOTH",
"410 89 OFFCURVE",
"396 99 OFFCURVE",
"396 124 CURVE SMOOTH",
"396 383 LINE SMOOTH",
"396 481 OFFCURVE",
"339 538 OFFCURVE",
"217 538 CURVE SMOOTH"
);
},
{
closed = 1;
nodes = (
"275 203 LINE",
"275 141 OFFCURVE",
"253 88 OFFCURVE",
"196 88 CURVE SMOOTH",
"155 88 OFFCURVE",
"137 111 OFFCURVE",
"137 147 CURVE SMOOTH",
"137 215 OFFCURVE",
"205 233 OFFCURVE",
"275 233 CURVE"
);
},
{
closed = 1;
nodes = (
"164 753 OFFCURVE",
"121 710 OFFCURVE",
"121 657 CURVE SMOOTH",
"121 603 OFFCURVE",
"165 561 OFFCURVE",
"217 561 CURVE SMOOTH",
"270 561 OFFCURVE",
"313 604 OFFCURVE",
"313 657 CURVE SMOOTH",
"313 709 OFFCURVE",
"271 753 OFFCURVE",
"217 753 CURVE SMOOTH"
);
},
{
closed = 1;
nodes = (
"242 703 OFFCURVE",
"263 683 OFFCURVE",
"263 657 CURVE SMOOTH",
"263 631 OFFCURVE",
"242 611 OFFCURVE",
"217 611 CURVE SMOOTH",
"191 611 OFFCURVE",
"171 631 OFFCURVE",
"171 657 CURVE SMOOTH",
"171 683 OFFCURVE",
"191 703 OFFCURVE",
"217 703 CURVE SMOOTH"
);
}
);
width = 456;
}
);
unicode = 00E5;
},
{
glyphname = aringacute;
lastChange = "2015-02-05 02:37:04 +0000";
layers = (
{
layerId = UUID0;
name = Regular;
paths = (
{
closed = 1;
nodes = (
"109 538 OFFCURVE",
"39 480 OFFCURVE",
"39 392 CURVE SMOOTH",
"39 383 OFFCURVE",
"39 376 OFFCURVE",
"40 370 CURVE",
"157 370 LINE",
"157 385 LINE SMOOTH",
"157 410 OFFCURVE",
"171 440 OFFCURVE",
"220 440 CURVE SMOOTH",
"266 440 OFFCURVE",
"275 411 OFFCURVE",
"275 375 CURVE SMOOTH",
"275 320 LINE",
"122 320 OFFCURVE",
"14 278 OFFCURVE",
"14 136 CURVE SMOOTH",
"14 14 OFFCURVE",
"97 -12 OFFCURVE",
"146 -12 CURVE SMOOTH",
"216 -12 OFFCURVE",
"249 15 OFFCURVE",
"279 57 CURVE",
"284 57 LINE",
"296 16 OFFCURVE",
"329 -12 OFFCURVE",
"377 -12 CURVE SMOOTH",
"413 -12 OFFCURVE",
"435 -3 OFFCURVE",
"448 4 CURVE",
"448 89 LINE",
"424 89 LINE SMOOTH",
"410 89 OFFCURVE",
"396 99 OFFCURVE",
"396 124 CURVE SMOOTH",
"396 383 LINE SMOOTH",
"396 481 OFFCURVE",
"339 538 OFFCURVE",
"217 538 CURVE SMOOTH"
);
},
{
closed = 1;
nodes = (
"275 203 LINE",
"275 141 OFFCURVE",
"253 88 OFFCURVE",
"196 88 CURVE SMOOTH",
"155 88 OFFCURVE",
"137 111 OFFCURVE",
"137 147 CURVE SMOOTH",
"137 215 OFFCURVE",
"205 233 OFFCURVE",
"275 233 CURVE"
);
},
{
closed = 1;
nodes = (
"164 747 OFFCURVE",
"121 705 OFFCURVE",
"121 654 CURVE SMOOTH",
"121 602 OFFCURVE",
"165 561 OFFCURVE",
"217 561 CURVE SMOOTH",
"270 561 OFFCURVE",
"313 603 OFFCURVE",
"313 654 CURVE SMOOTH",
"313 704 OFFCURVE",
"271 747 OFFCURVE",
"217 747 CURVE SMOOTH"
);
},
{
closed = 1;
nodes = (
"242 698 OFFCURVE",
"263 679 OFFCURVE",
"263 654 CURVE SMOOTH",
"263 628 OFFCURVE",
"242 609 OFFCURVE",
"217 609 CURVE SMOOTH",
"191 609 OFFCURVE",
"171 628 OFFCURVE",
"171 654 CURVE SMOOTH",
"171 679 OFFCURVE",
"191 698 OFFCURVE",
"217 698 CURVE SMOOTH"
);
},
{
closed = 1;
nodes = (
"369 883 LINE",
"249 883 LINE",
"174 768 LINE",
"273 768 LINE",
"370 880 LINE"
);
}
);
width = 500;
}
);
unicode = 01FB;
},
{
glyphname = atilde;
lastChange = "2015-02-05 02:37:04 +0000";
layers = (
{
layerId = UUID0;
name = Regular;
paths = (
{
closed = 1;
nodes = (
"109 538 OFFCURVE",
"39 480 OFFCURVE",
"39 392 CURVE SMOOTH",
"39 383 OFFCURVE",
"39 376 OFFCURVE",
"40 370 CURVE",
"157 370 LINE",
"157 385 LINE SMOOTH",
"157 410 OFFCURVE",
"171 440 OFFCURVE",
"220 440 CURVE SMOOTH",
"266 440 OFFCURVE",
"275 411 OFFCURVE",
"275 375 CURVE SMOOTH",
"275 320 LINE",
"122 320 OFFCURVE",
"14 278 OFFCURVE",
"14 136 CURVE SMOOTH",
"14 14 OFFCURVE",
"97 -12 OFFCURVE",
"146 -12 CURVE SMOOTH",
"216 -12 OFFCURVE",
"249 15 OFFCURVE",
"279 57 CURVE",
"284 57 LINE",
"296 16 OFFCURVE",
"329 -12 OFFCURVE",
"377 -12 CURVE SMOOTH",
"413 -12 OFFCURVE",
"435 -3 OFFCURVE",
"448 4 CURVE",
"448 89 LINE",
"424 89 LINE SMOOTH",
"410 89 OFFCURVE",
"396 99 OFFCURVE",
"396 124 CURVE SMOOTH",
"396 383 LINE SMOOTH",
"396 481 OFFCURVE",
"339 538 OFFCURVE",
"217 538 CURVE SMOOTH"
);
},
{
closed = 1;
nodes = (
"275 203 LINE",
"275 141 OFFCURVE",
"253 88 OFFCURVE",
"196 88 CURVE SMOOTH",
"155 88 OFFCURVE",
"137 111 OFFCURVE",
"137 147 CURVE SMOOTH",
"137 215 OFFCURVE",
"205 233 OFFCURVE",
"275 233 CURVE"
);
},
{
closed = 1;
nodes = (
"319 723 LINE",
"315 695 OFFCURVE",
"301 686 OFFCURVE",
"280 686 CURVE SMOOTH",
"235 686 OFFCURVE",
"196 723 OFFCURVE",
"147 723 CURVE SMOOTH",
"77 723 OFFCURVE",
"49 656 OFFCURVE",
"49 601 CURVE",
"115 601 LINE",
"119 628 OFFCURVE",
"133 638 OFFCURVE",
"154 638 CURVE SMOOTH",
"199 638 OFFCURVE",
"238 601 OFFCURVE",
"286 601 CURVE SMOOTH",
"357 601 OFFCURVE",
"385 668 OFFCURVE",
"385 723 CURVE"
);
}
);
width = 456;
}
);
unicode = 00E3;
},
{
glyphname = ae;
lastChange = "2015-02-05 02:37:04 +0000";
layers = (
{
anchors = (
{
name = top;
position = "{365, 526}";
}
);
layerId = UUID0;
name = Regular;
paths = (
{
closed = 1;
nodes = (
"449 538 OFFCURVE",
"407 522 OFFCURVE",
"375 488 CURVE",
"345 520 OFFCURVE",
"300 538 OFFCURVE",
"240 538 CURVE SMOOTH",
"132 538 OFFCURVE",
"62 480 OFFCURVE",
"62 392 CURVE SMOOTH",
"62 383 OFFCURVE",
"62 376 OFFCURVE",
"63 370 CURVE",
"180 370 LINE",
"180 385 LINE SMOOTH",
"180 410 OFFCURVE",
"194 440 OFFCURVE",
"243 440 CURVE SMOOTH",
"289 440 OFFCURVE",
"298 411 OFFCURVE",
"298 375 CURVE SMOOTH",
"298 320 LINE",
"145 320 OFFCURVE",
"37 278 OFFCURVE",
"37 136 CURVE SMOOTH",
"37 14 OFFCURVE",
"132 -12 OFFCURVE",
"189 -12 CURVE SMOOTH",
"262 -12 OFFCURVE",
"309 17 OFFCURVE",
"347 59 CURVE",
"381 11 OFFCURVE",
"434 -12 OFFCURVE",
"504 -12 CURVE SMOOTH",
"611 -12 OFFCURVE",
"690 51 OFFCURVE",
"690 186 CURVE",
"571 186 LINE",
"571 123 OFFCURVE",
"545 86 OFFCURVE",
"504 86 CURVE SMOOTH",
"445 86 OFFCURVE",
"424 139 OFFCURVE",
"423 233 CURVE",
"690 233 LINE",
"690 263 LINE SMOOTH",
"690 452 OFFCURVE",
"627 538 OFFCURVE",
"500 538 CURVE SMOOTH"
);
},
{
closed = 1;
nodes = (
"298 203 LINE",
"298 141 OFFCURVE",
"276 88 OFFCURVE",
"219 88 CURVE SMOOTH",
"178 88 OFFCURVE",
"160 111 OFFCURVE",
"160 147 CURVE SMOOTH",
"160 215 OFFCURVE",
"228 233 OFFCURVE",
"298 233 CURVE"
);
},
{
closed = 1;
nodes = (
"544 440 OFFCURVE",
"564 396 OFFCURVE",
"564 320 CURVE",
"424 320 LINE",
"428 396 OFFCURVE",
"449 440 OFFCURVE",
"500 440 CURVE SMOOTH"
);
}
);
width = 729;
}
);
unicode = 00E6;
},
{
glyphname = aeacute;
lastChange = "2015-02-05 02:37:04 +0000";
layers = (
{
layerId = UUID0;
name = Regular;
paths = (
{
closed = 1;
nodes = (
"449 538 OFFCURVE",
"407 522 OFFCURVE",
"375 488 CURVE",
"345 520 OFFCURVE",
"300 538 OFFCURVE",
"240 538 CURVE SMOOTH",
"132 538 OFFCURVE",
"62 480 OFFCURVE",
"62 392 CURVE SMOOTH",
"62 383 OFFCURVE",
"62 376 OFFCURVE",
"63 370 CURVE",
"180 370 LINE",
"180 385 LINE SMOOTH",
"180 410 OFFCURVE",
"194 440 OFFCURVE",
"243 440 CURVE SMOOTH",
"289 440 OFFCURVE",
"298 411 OFFCURVE",
"298 375 CURVE SMOOTH",
"298 320 LINE",
"145 320 OFFCURVE",
"37 278 OFFCURVE",
"37 136 CURVE SMOOTH",
"37 14 OFFCURVE",
"132 -12 OFFCURVE",
"189 -12 CURVE SMOOTH",
"262 -12 OFFCURVE",
"309 17 OFFCURVE",
"347 59 CURVE",
"381 11 OFFCURVE",
"434 -12 OFFCURVE",
"504 -12 CURVE SMOOTH",
"611 -12 OFFCURVE",
"690 51 OFFCURVE",
"690 186 CURVE",
"571 186 LINE",
"571 123 OFFCURVE",
"545 86 OFFCURVE",
"504 86 CURVE SMOOTH",
"445 86 OFFCURVE",
"424 139 OFFCURVE",
"423 233 CURVE",
"690 233 LINE",
"690 263 LINE SMOOTH",
"690 452 OFFCURVE",
"627 538 OFFCURVE",
"500 538 CURVE SMOOTH"
);
},
{
closed = 1;
nodes = (
"298 203 LINE",
"298 141 OFFCURVE",
"276 88 OFFCURVE",
"219 88 CURVE SMOOTH",
"178 88 OFFCURVE",
"160 111 OFFCURVE",
"160 147 CURVE SMOOTH",
"160 215 OFFCURVE",
"228 233 OFFCURVE",
"298 233 CURVE"
);
},
{
closed = 1;
nodes = (
"544 440 OFFCURVE",
"564 396 OFFCURVE",
"564 320 CURVE",
"424 320 LINE",
"428 396 OFFCURVE",
"449 440 OFFCURVE",
"500 440 CURVE SMOOTH"
);
},
{
closed = 1;
nodes = (
"502 723 LINE",
"382 723 LINE",
"296 591 LINE",
"395 591 LINE",
"503 720 LINE"
);
}
);
width = 729;
}
);
unicode = 01FD;
},
{
color = (31,255,0,1);
glyphname = b;
lastChange = "2015-02-05 02:37:04 +0000";
layers = (
{
background = {
paths = (
{
closed = 1;
nodes = (
"175 723 LINE",
"55 723 LINE",
"55 0 LINE",
"129 0 LINE",
"162 65 LINE",
"167 65 LINE",
"194 14 OFFCURVE",
"239 -12 OFFCURVE",
"291 -12 CURVE SMOOTH",
"395 -12 OFFCURVE",
"460 73 OFFCURVE",
"460 264 CURVE SMOOTH",
"460 455 OFFCURVE",
"390 538 OFFCURVE",
"297 538 CURVE SMOOTH",
"244 538 OFFCURVE",
"199 514 OFFCURVE",
"180 472 CURVE",
"175 472 LINE"
);
},
{
closed = 1;
nodes = (
"313 429 OFFCURVE",
"335 377 OFFCURVE",
"335 282 CURVE SMOOTH",
"335 244 LINE SMOOTH",
"335 149 OFFCURVE",
"313 97 OFFCURVE",
"255 97 CURVE SMOOTH",
"197 97 OFFCURVE",
"175 149 OFFCURVE",
"175 244 CURVE",
"175 280 LINE SMOOTH",
"175 375 OFFCURVE",
"197 429 OFFCURVE",
"255 429 CURVE SMOOTH"
);
}
);
};
layerId = UUID0;
name = Regular;
paths = (
{
closed = 1;
nodes = (
"167 65 LINE",
"155 0 LINE",
"55 0 LINE",
"55 723 LINE",
"175 723 LINE",
"175 472 LINE",
"180 472 LINE",
"199 514 OFFCURVE",
"244 538 OFFCURVE",
"297 538 CURVE SMOOTH",
"390 538 OFFCURVE",
"460 455 OFFCURVE",
"460 264 CURVE SMOOTH",
"460 73 OFFCURVE",
"395 -12 OFFCURVE",
"291 -12 CURVE SMOOTH",
"241 -12 OFFCURVE",
"198 14 OFFCURVE",
"172 65 CURVE"
);
},
{
closed = 1;
nodes = (
"175 244 LINE",
"175 149 OFFCURVE",
"197 97 OFFCURVE",
"255 97 CURVE SMOOTH",
"313 97 OFFCURVE",
"335 149 OFFCURVE",
"335 244 CURVE SMOOTH",
"335 282 LINE SMOOTH",
"335 377 OFFCURVE",
"313 429 OFFCURVE",
"255 429 CURVE SMOOTH",
"197 429 OFFCURVE",
"175 375 OFFCURVE",
"175 280 CURVE SMOOTH"
);
}
);
width = 501;
}
);
unicode = 0062;
},
{
glyphname = c;
lastChange = "2015-02-05 02:37:04 +0000";
layers = (
{
anchors = (
{
name = bottom;
position = "{243, 0}";
},
{
name = top;
position = "{237, 526}";
}
);
layerId = UUID0;
name = Regular;
paths = (
{
closed = 1;
nodes = (
"106 538 OFFCURVE",
"41 452 OFFCURVE",
"41 263 CURVE SMOOTH",
"41 74 OFFCURVE",
"103 -12 OFFCURVE",
"240 -12 CURVE SMOOTH",
"350 -12 OFFCURVE",
"420 51 OFFCURVE",
"420 198 CURVE",
"301 198 LINE",
"301 126 OFFCURVE",
"283 89 OFFCURVE",
"240 89 CURVE SMOOTH",
"186 89 OFFCURVE",
"166 143 OFFCURVE",
"166 244 CURVE SMOOTH",
"166 282 LINE SMOOTH",
"166 383 OFFCURVE",
"185 437 OFFCURVE",
"236 437 CURVE SMOOTH",
"277 437 OFFCURVE",
"297 402 OFFCURVE",
"297 328 CURVE",
"420 328 LINE",
"420 475 OFFCURVE",
"348 538 OFFCURVE",
"236 538 CURVE SMOOTH"
);
}
);
width = 456;
}
);
unicode = 0063;
},
{
glyphname = cacute;
lastChange = "2015-02-05 02:37:04 +0000";
layers = (
{
layerId = UUID0;
name = Regular;
paths = (
{
closed = 1;
nodes = (
"106 538 OFFCURVE",
"41 452 OFFCURVE",
"41 263 CURVE SMOOTH",
"41 74 OFFCURVE",
"103 -12 OFFCURVE",
"240 -12 CURVE SMOOTH",
"350 -12 OFFCURVE",
"420 51 OFFCURVE",
"420 198 CURVE",
"301 198 LINE",
"301 126 OFFCURVE",
"283 89 OFFCURVE",
"240 89 CURVE SMOOTH",
"186 89 OFFCURVE",
"166 143 OFFCURVE",
"166 244 CURVE SMOOTH",
"166 282 LINE SMOOTH",
"166 383 OFFCURVE",
"185 437 OFFCURVE",
"236 437 CURVE SMOOTH",
"277 437 OFFCURVE",
"297 402 OFFCURVE",
"297 328 CURVE",
"420 328 LINE",
"420 475 OFFCURVE",
"348 538 OFFCURVE",
"236 538 CURVE SMOOTH"
);
},
{
closed = 1;
nodes = (
"375 723 LINE",
"254 723 LINE",
"168 591 LINE",
"268 591 LINE",
"375 720 LINE"
);
}
);
width = 456;
}
);
unicode = 0107;
},
{
glyphname = ccaron;
lastChange = "2015-02-05 02:37:04 +0000";
layers = (
{
layerId = UUID0;
name = Regular;
paths = (
{
closed = 1;
nodes = (
"106 538 OFFCURVE",
"41 452 OFFCURVE",
"41 263 CURVE SMOOTH",
"41 74 OFFCURVE",
"103 -12 OFFCURVE",
"240 -12 CURVE SMOOTH",
"350 -12 OFFCURVE",
"420 51 OFFCURVE",
"420 198 CURVE",
"301 198 LINE",
"301 126 OFFCURVE",
"283 89 OFFCURVE",
"240 89 CURVE SMOOTH",
"186 89 OFFCURVE",
"166 143 OFFCURVE",
"166 244 CURVE SMOOTH",
"166 282 LINE SMOOTH",
"166 383 OFFCURVE",
"185 437 OFFCURVE",
"236 437 CURVE SMOOTH",
"277 437 OFFCURVE",
"297 402 OFFCURVE",
"297 328 CURVE",
"420 328 LINE",
"420 475 OFFCURVE",
"348 538 OFFCURVE",
"236 538 CURVE SMOOTH"
);
},
{
closed = 1;
nodes = (
"372 723 LINE",
"282 723 LINE",
"238 654 LINE",
"193 723 LINE",
"103 723 LINE",
"189 588 LINE",
"287 588 LINE"
);
}
);
width = 456;
}
);
unicode = 010D;
},
{
glyphname = ccedilla;
lastChange = "2015-02-05 02:37:04 +0000";
layers = (
{
layerId = UUID0;
name = Regular;
paths = (
{
closed = 1;
nodes = (
"106 538 OFFCURVE",
"41 452 OFFCURVE",
"41 263 CURVE SMOOTH",
"41 96 OFFCURVE",
"89 9 OFFCURVE",
"195 -8 CURVE",
"187 -77 LINE",
"219 -77 LINE SMOOTH",
"245 -77 OFFCURVE",
"253 -85 OFFCURVE",
"253 -101 CURVE SMOOTH",
"253 -120 OFFCURVE",
"239 -125 OFFCURVE",
"217 -125 CURVE SMOOTH",
"146 -125 LINE",
"146 -174 LINE",
"170 -179 OFFCURVE",
"202 -182 OFFCURVE",
"230 -182 CURVE SMOOTH",
"273 -182 OFFCURVE",
"339 -168 OFFCURVE",
"339 -101 CURVE SMOOTH",
"339 -55 OFFCURVE",
"303 -36 OFFCURVE",
"260 -33 CURVE",
"262 -11 LINE",
"359 -2 OFFCURVE",
"420 61 OFFCURVE",
"420 198 CURVE",
"301 198 LINE",
"301 126 OFFCURVE",
"283 89 OFFCURVE",
"240 89 CURVE SMOOTH",
"186 89 OFFCURVE",
"166 143 OFFCURVE",
"166 244 CURVE SMOOTH",
"166 282 LINE SMOOTH",
"166 383 OFFCURVE",
"185 437 OFFCURVE",
"236 437 CURVE SMOOTH",
"277 437 OFFCURVE",
"297 402 OFFCURVE",
"297 328 CURVE",
"420 328 LINE",
"420 475 OFFCURVE",
"348 538 OFFCURVE",
"236 538 CURVE SMOOTH"
);
}
);
width = 456;
}
);
unicode = 00E7;
},
{
glyphname = ccircumflex;
lastChange = "2015-02-05 02:37:04 +0000";
layers = (
{
layerId = UUID0;
name = Regular;
paths = (
{
closed = 1;
nodes = (
"106 538 OFFCURVE",
"41 452 OFFCURVE",
"41 263 CURVE SMOOTH",
"41 74 OFFCURVE",
"103 -12 OFFCURVE",
"240 -12 CURVE SMOOTH",
"350 -12 OFFCURVE",
"420 51 OFFCURVE",
"420 198 CURVE",
"301 198 LINE",
"301 126 OFFCURVE",
"283 89 OFFCURVE",
"240 89 CURVE SMOOTH",
"186 89 OFFCURVE",
"166 143 OFFCURVE",
"166 244 CURVE SMOOTH",
"166 282 LINE SMOOTH",
"166 383 OFFCURVE",
"185 437 OFFCURVE",
"236 437 CURVE SMOOTH",
"277 437 OFFCURVE",
"297 402 OFFCURVE",
"297 328 CURVE",
"420 328 LINE",
"420 475 OFFCURVE",
"348 538 OFFCURVE",
"236 538 CURVE SMOOTH"
);
},
{
closed = 1;
nodes = (
"287 723 LINE",
"189 723 LINE",
"103 588 LINE",
"193 588 LINE",
"238 657 LINE",
"282 588 LINE",
"372 588 LINE"
);
}
);
width = 456;
}
);
unicode = 0109;
},
{
glyphname = cdotaccent;
lastChange = "2015-02-05 02:37:04 +0000";
layers = (
{
layerId = UUID0;
name = Regular;
paths = (
{
closed = 1;
nodes = (
"106 538 OFFCURVE",
"41 452 OFFCURVE",
"41 263 CURVE SMOOTH",
"41 74 OFFCURVE",
"103 -12 OFFCURVE",
"240 -12 CURVE SMOOTH",
"350 -12 OFFCURVE",
"420 51 OFFCURVE",
"420 198 CURVE",
"301 198 LINE",
"301 126 OFFCURVE",
"283 89 OFFCURVE",
"240 89 CURVE SMOOTH",
"186 89 OFFCURVE",
"166 143 OFFCURVE",
"166 244 CURVE SMOOTH",
"166 282 LINE SMOOTH",
"166 383 OFFCURVE",
"185 437 OFFCURVE",
"236 437 CURVE SMOOTH",
"277 437 OFFCURVE",
"297 402 OFFCURVE",
"297 328 CURVE",
"420 328 LINE",
"420 475 OFFCURVE",
"348 538 OFFCURVE",
"236 538 CURVE SMOOTH"
);
},
{
closed = 1;
nodes = (
"291 723 LINE",
"184 723 LINE",
"184 608 LINE",
"291 608 LINE"
);
}
);
width = 456;
}
);
unicode = 010B;
},
{
glyphname = d;
lastChange = "2015-02-05 02:37:04 +0000";
layers = (
{
anchors = (
{
name = center;
position = "{250, 263}";
}
);
layerId = UUID0;
name = Regular;
paths = (
{
closed = 1;
nodes = (
"446 723 LINE",
"326 723 LINE",
"326 472 LINE",
"321 472 LINE",
"302 514 OFFCURVE",
"257 538 OFFCURVE",
"204 538 CURVE SMOOTH",
"111 538 OFFCURVE",
"41 455 OFFCURVE",
"41 264 CURVE SMOOTH",
"41 73 OFFCURVE",
"106 -12 OFFCURVE",
"210 -12 CURVE SMOOTH",
"260 -12 OFFCURVE",
"303 14 OFFCURVE",
"329 65 CURVE",
"334 65 LINE",
"346 0 LINE",
"446 0 LINE"
);
},
{
closed = 1;
nodes = (
"304 429 OFFCURVE",
"326 375 OFFCURVE",
"326 280 CURVE SMOOTH",
"326 244 LINE",
"326 149 OFFCURVE",
"304 97 OFFCURVE",
"246 97 CURVE SMOOTH",
"188 97 OFFCURVE",
"166 149 OFFCURVE",
"166 244 CURVE SMOOTH",
"166 282 LINE SMOOTH",
"166 377 OFFCURVE",
"188 429 OFFCURVE",
"246 429 CURVE SMOOTH"
);
}
);
width = 501;
}
);
unicode = 0064;
},
{
glyphname = eth;
lastChange = "2015-02-05 02:37:04 +0000";
layers = (
{
layerId = UUID0;
name = Regular;
paths = (
{
closed = 1;
nodes = (
"132 723 LINE",
"130 719 LINE",
"143 706 OFFCURVE",
"163 687 OFFCURVE",
"183 664 CURVE",
"108 657 LINE",
"108 584 LINE",
"237 595 LINE",
"251 575 OFFCURVE",
"265 553 OFFCURVE",
"275 534 CURVE",
"272 530 LINE",
"257 535 OFFCURVE",
"238 538 OFFCURVE",
"223 538 CURVE SMOOTH",
"111 538 OFFCURVE",
"41 444 OFFCURVE",
"41 263 CURVE SMOOTH",
"41 74 OFFCURVE",
"111 -12 OFFCURVE",
"251 -12 CURVE SMOOTH",
"391 -12 OFFCURVE",
"461 74 OFFCURVE",
"461 263 CURVE SMOOTH",
"461 421 OFFCURVE",
"415 531 OFFCURVE",
"363 607 CURVE",
"438 614 LINE",
"438 687 LINE",
"308 675 LINE",
"289 695 OFFCURVE",
"272 711 OFFCURVE",
"258 723 CURVE"
);
},
{
closed = 1;
nodes = (
"313 437 OFFCURVE",
"336 383 OFFCURVE",
"336 282 CURVE SMOOTH",
"336 244 LINE SMOOTH",
"336 143 OFFCURVE",
"313 89 OFFCURVE",
"251 89 CURVE SMOOTH",
"189 89 OFFCURVE",
"166 143 OFFCURVE",
"166 244 CURVE SMOOTH",
"166 282 LINE SMOOTH",
"166 383 OFFCURVE",
"189 437 OFFCURVE",
"251 437 CURVE SMOOTH"
);
}
);
width = 501;
}
);
unicode = 00F0;
},
{
glyphname = dcaron;
lastChange = "2015-02-05 02:37:04 +0000";
layers = (
{
layerId = UUID0;
name = Regular;
paths = (
{
closed = 1;
nodes = (
"446 723 LINE",
"326 723 LINE",
"326 472 LINE",
"321 472 LINE",
"302 514 OFFCURVE",
"257 538 OFFCURVE",
"204 538 CURVE SMOOTH",
"111 538 OFFCURVE",
"41 455 OFFCURVE",
"41 264 CURVE SMOOTH",
"41 73 OFFCURVE",
"106 -12 OFFCURVE",
"210 -12 CURVE SMOOTH",
"260 -12 OFFCURVE",
"303 14 OFFCURVE",
"329 65 CURVE",
"334 65 LINE",
"346 0 LINE",
"446 0 LINE"
);
},
{
closed = 1;
nodes = (
"304 429 OFFCURVE",
"326 375 OFFCURVE",
"326 280 CURVE SMOOTH",
"326 244 LINE",
"326 149 OFFCURVE",
"304 97 OFFCURVE",
"246 97 CURVE SMOOTH",
"188 97 OFFCURVE",
"166 149 OFFCURVE",
"166 244 CURVE SMOOTH",
"166 282 LINE SMOOTH",
"166 377 OFFCURVE",
"188 429 OFFCURVE",
"246 429 CURVE SMOOTH"
);
},
{
closed = 1;
nodes = (
"615 686 LINE",
"477 686 LINE",
"477 549 LINE",
"532 549 LINE",
"477 393 LINE",
"549 393 LINE",
"615 561 LINE"
);
}
);
width = 589;
}
);
unicode = 010F;
},
{
glyphname = dcroat;
lastChange = "2015-02-05 02:37:04 +0000";
layers = (
{
layerId = UUID0;
name = Regular;
paths = (
{
closed = 1;
nodes = (
"500 670 LINE",
"446 670 LINE",
"446 723 LINE",
"326 723 LINE",
"326 670 LINE",
"194 670 LINE",
"194 583 LINE",
"326 583 LINE",
"326 472 LINE",
"321 472 LINE",
"302 514 OFFCURVE",
"257 538 OFFCURVE",
"204 538 CURVE SMOOTH",
"111 538 OFFCURVE",
"41 455 OFFCURVE",
"41 264 CURVE SMOOTH",
"41 73 OFFCURVE",
"106 -12 OFFCURVE",
"210 -12 CURVE SMOOTH",
"260 -12 OFFCURVE",
"303 14 OFFCURVE",
"329 65 CURVE",
"334 65 LINE",
"346 0 LINE",
"446 0 LINE",
"446 583 LINE",
"500 583 LINE"
);
},
{
closed = 1;
nodes = (
"304 429 OFFCURVE",
"326 375 OFFCURVE",
"326 280 CURVE SMOOTH",
"326 244 LINE SMOOTH",
"326 149 OFFCURVE",
"304 97 OFFCURVE",
"246 97 CURVE SMOOTH",
"188 97 OFFCURVE",
"166 149 OFFCURVE",
"166 244 CURVE SMOOTH",
"166 282 LINE SMOOTH",
"166 377 OFFCURVE",
"188 429 OFFCURVE",
"246 429 CURVE SMOOTH"
);
}
);
width = 504;
}
);
unicode = 0111;
},
{
glyphname = e;
lastChange = "2015-02-05 02:37:04 +0000";
layers = (
{
anchors = (
{
name = bottom;
position = "{228, 0}";
},
{
name = ogonek;
position = "{324, 5}";
},
{
name = top;
position = "{228, 526}";
}
);
layerId = UUID0;
name = Regular;
paths = (
{
closed = 1;
nodes = (
"103 538 OFFCURVE",
"31 452 OFFCURVE",
"31 263 CURVE SMOOTH",
"31 74 OFFCURVE",
"102 -12 OFFCURVE",
"237 -12 CURVE SMOOTH",
"344 -12 OFFCURVE",
"423 51 OFFCURVE",
"423 186 CURVE",
"304 186 LINE",
"304 123 OFFCURVE",
"278 86 OFFCURVE",
"237 86 CURVE SMOOTH",
"178 86 OFFCURVE",
"157 139 OFFCURVE",
"156 233 CURVE",
"423 233 LINE",
"423 263 LINE SMOOTH",
"423 452 OFFCURVE",
"360 538 OFFCURVE",
"233 538 CURVE SMOOTH"
);
},
{
closed = 1;
nodes = (
"277 440 OFFCURVE",
"297 396 OFFCURVE",
"297 320 CURVE",
"157 320 LINE",
"161 396 OFFCURVE",
"182 440 OFFCURVE",
"233 440 CURVE SMOOTH"
);
}
);
width = 456;
}
);
unicode = 0065;
},
{
glyphname = eacute;
lastChange = "2015-02-05 02:37:04 +0000";
layers = (
{
layerId = UUID0;
name = Regular;
paths = (
{
closed = 1;
nodes = (
"103 538 OFFCURVE",
"31 452 OFFCURVE",
"31 263 CURVE SMOOTH",
"31 74 OFFCURVE",
"102 -12 OFFCURVE",
"237 -12 CURVE SMOOTH",
"344 -12 OFFCURVE",
"423 51 OFFCURVE",
"423 186 CURVE",
"304 186 LINE",
"304 123 OFFCURVE",
"278 86 OFFCURVE",
"237 86 CURVE SMOOTH",
"178 86 OFFCURVE",
"157 139 OFFCURVE",
"156 233 CURVE",
"423 233 LINE",
"423 263 LINE SMOOTH",
"423 452 OFFCURVE",
"360 538 OFFCURVE",
"233 538 CURVE SMOOTH"
);
},
{
closed = 1;
nodes = (
"277 440 OFFCURVE",
"297 396 OFFCURVE",
"297 320 CURVE",
"157 320 LINE",
"161 396 OFFCURVE",
"182 440 OFFCURVE",
"233 440 CURVE SMOOTH"
);
},
{
closed = 1;
nodes = (
"365 723 LINE",
"245 723 LINE",
"159 591 LINE",
"258 591 LINE",
"366 720 LINE"
);
}
);
width = 456;
}
);
unicode = 00E9;
},
{
glyphname = ebreve;
lastChange = "2015-02-05 02:37:04 +0000";
layers = (
{
layerId = UUID0;
name = Regular;
paths = (
{
closed = 1;
nodes = (
"103 538 OFFCURVE",
"31 452 OFFCURVE",
"31 263 CURVE SMOOTH",
"31 74 OFFCURVE",
"102 -12 OFFCURVE",
"237 -12 CURVE SMOOTH",
"344 -12 OFFCURVE",
"423 51 OFFCURVE",
"423 186 CURVE",
"304 186 LINE",
"304 123 OFFCURVE",
"278 86 OFFCURVE",
"237 86 CURVE SMOOTH",
"178 86 OFFCURVE",
"157 139 OFFCURVE",
"156 233 CURVE",
"423 233 LINE",
"423 263 LINE SMOOTH",
"423 452 OFFCURVE",
"360 538 OFFCURVE",
"233 538 CURVE SMOOTH"
);
},
{
closed = 1;
nodes = (
"277 440 OFFCURVE",
"297 396 OFFCURVE",
"297 320 CURVE",
"157 320 LINE",
"161 396 OFFCURVE",
"182 440 OFFCURVE",
"233 440 CURVE SMOOTH"
);
},
{
closed = 1;
nodes = (
"288 723 LINE",
"286 709 OFFCURVE",
"262 690 OFFCURVE",
"228 690 CURVE SMOOTH",
"195 690 OFFCURVE",
"172 709 OFFCURVE",
"169 723 CURVE",
"95 723 LINE",
"95 673 OFFCURVE",
"146 616 OFFCURVE",
"228 616 CURVE SMOOTH",
"311 616 OFFCURVE",
"362 673 OFFCURVE",
"362 723 CURVE"
);
}
);
width = 456;
}
);
unicode = 0115;
},
{
glyphname = ecaron;
lastChange = "2015-02-05 02:37:04 +0000";
layers = (
{
layerId = UUID0;
name = Regular;
paths = (
{
closed = 1;
nodes = (
"103 538 OFFCURVE",
"31 452 OFFCURVE",
"31 263 CURVE SMOOTH",
"31 74 OFFCURVE",
"102 -12 OFFCURVE",
"237 -12 CURVE SMOOTH",
"344 -12 OFFCURVE",
"423 51 OFFCURVE",
"423 186 CURVE",
"304 186 LINE",
"304 123 OFFCURVE",
"278 86 OFFCURVE",
"237 86 CURVE SMOOTH",
"178 86 OFFCURVE",
"157 139 OFFCURVE",
"156 233 CURVE",
"423 233 LINE",
"423 263 LINE SMOOTH",
"423 452 OFFCURVE",
"360 538 OFFCURVE",
"233 538 CURVE SMOOTH"
);
},
{
closed = 1;
nodes = (
"277 440 OFFCURVE",
"297 396 OFFCURVE",
"297 320 CURVE",
"157 320 LINE",
"161 396 OFFCURVE",
"182 440 OFFCURVE",
"233 440 CURVE SMOOTH"
);
},
{
closed = 1;
nodes = (
"363 723 LINE",
"273 723 LINE",
"229 654 LINE",
"184 723 LINE",
"94 723 LINE",
"180 588 LINE",
"278 588 LINE"
);
}
);
width = 456;
}
);
unicode = 011B;
},
{
glyphname = ecircumflex;
lastChange = "2015-02-05 02:37:04 +0000";
layers = (
{
layerId = UUID0;
name = Regular;
paths = (
{
closed = 1;
nodes = (
"103 538 OFFCURVE",
"31 452 OFFCURVE",
"31 263 CURVE SMOOTH",
"31 74 OFFCURVE",
"102 -12 OFFCURVE",
"237 -12 CURVE SMOOTH",
"344 -12 OFFCURVE",
"423 51 OFFCURVE",
"423 186 CURVE",
"304 186 LINE",
"304 123 OFFCURVE",
"278 86 OFFCURVE",
"237 86 CURVE SMOOTH",
"178 86 OFFCURVE",
"157 139 OFFCURVE",
"156 233 CURVE",
"423 233 LINE",
"423 263 LINE SMOOTH",
"423 452 OFFCURVE",
"360 538 OFFCURVE",
"233 538 CURVE SMOOTH"
);
},
{
closed = 1;
nodes = (
"277 440 OFFCURVE",
"297 396 OFFCURVE",
"297 320 CURVE",
"157 320 LINE",
"161 396 OFFCURVE",
"182 440 OFFCURVE",
"233 440 CURVE SMOOTH"
);
},
{
closed = 1;
nodes = (
"278 723 LINE",
"180 723 LINE",
"94 588 LINE",
"184 588 LINE",
"229 657 LINE",
"273 588 LINE",
"363 588 LINE"
);
}
);
width = 456;
}
);
unicode = 00EA;
},
{
glyphname = edieresis;
lastChange = "2015-02-05 02:37:04 +0000";
layers = (
{
layerId = UUID0;
name = Regular;
paths = (
{
closed = 1;
nodes = (
"103 538 OFFCURVE",
"31 452 OFFCURVE",
"31 263 CURVE SMOOTH",
"31 74 OFFCURVE",
"102 -12 OFFCURVE",
"237 -12 CURVE SMOOTH",
"344 -12 OFFCURVE",
"423 51 OFFCURVE",
"423 186 CURVE",
"304 186 LINE",
"304 123 OFFCURVE",
"278 86 OFFCURVE",
"237 86 CURVE SMOOTH",
"178 86 OFFCURVE",
"157 139 OFFCURVE",
"156 233 CURVE",
"423 233 LINE",
"423 263 LINE SMOOTH",
"423 452 OFFCURVE",
"360 538 OFFCURVE",
"233 538 CURVE SMOOTH"
);
},
{
closed = 1;
nodes = (
"277 440 OFFCURVE",
"297 396 OFFCURVE",
"297 320 CURVE",
"157 320 LINE",
"161 396 OFFCURVE",
"182 440 OFFCURVE",
"233 440 CURVE SMOOTH"
);
},
{
closed = 1;
nodes = (
"191 723 LINE",
"91 723 LINE",
"91 614 LINE",
"191 614 LINE"
);
},
{
closed = 1;
nodes = (
"366 723 LINE",
"266 723 LINE",
"266 614 LINE",
"366 614 LINE"
);
}
);
width = 456;
}
);
unicode = 00EB;
},
{
glyphname = edotaccent;
lastChange = "2015-02-05 02:37:04 +0000";
layers = (
{
layerId = UUID0;
name = Regular;
paths = (
{
closed = 1;
nodes = (
"103 538 OFFCURVE",
"31 452 OFFCURVE",
"31 263 CURVE SMOOTH",
"31 74 OFFCURVE",
"102 -12 OFFCURVE",
"237 -12 CURVE SMOOTH",
"344 -12 OFFCURVE",
"423 51 OFFCURVE",
"423 186 CURVE",
"304 186 LINE",
"304 123 OFFCURVE",
"278 86 OFFCURVE",
"237 86 CURVE SMOOTH",
"178 86 OFFCURVE",
"157 139 OFFCURVE",
"156 233 CURVE",
"423 233 LINE",
"423 263 LINE SMOOTH",
"423 452 OFFCURVE",
"360 538 OFFCURVE",
"233 538 CURVE SMOOTH"
);
},
{
closed = 1;
nodes = (
"277 440 OFFCURVE",
"297 396 OFFCURVE",
"297 320 CURVE",
"157 320 LINE",
"161 396 OFFCURVE",
"182 440 OFFCURVE",
"233 440 CURVE SMOOTH"
);
},
{
closed = 1;
nodes = (
"282 723 LINE",
"175 723 LINE",
"175 608 LINE",
"282 608 LINE"
);
}
);
width = 456;
}
);
unicode = 0117;
},
{
glyphname = egrave;
lastChange = "2015-02-05 02:37:04 +0000";
layers = (
{
layerId = UUID0;
name = Regular;
paths = (
{
closed = 1;
nodes = (
"103 538 OFFCURVE",
"31 452 OFFCURVE",
"31 263 CURVE SMOOTH",
"31 74 OFFCURVE",
"102 -12 OFFCURVE",
"237 -12 CURVE SMOOTH",
"344 -12 OFFCURVE",
"423 51 OFFCURVE",
"423 186 CURVE",
"304 186 LINE",
"304 123 OFFCURVE",
"278 86 OFFCURVE",
"237 86 CURVE SMOOTH",
"178 86 OFFCURVE",
"157 139 OFFCURVE",
"156 233 CURVE",
"423 233 LINE",
"423 263 LINE SMOOTH",
"423 452 OFFCURVE",
"360 538 OFFCURVE",
"233 538 CURVE SMOOTH"
);
},
{
closed = 1;
nodes = (
"277 440 OFFCURVE",
"297 396 OFFCURVE",
"297 320 CURVE",
"157 320 LINE",
"161 396 OFFCURVE",
"182 440 OFFCURVE",
"233 440 CURVE SMOOTH"
);
},
{
closed = 1;
nodes = (
"211 723 LINE",
"91 723 LINE",
"90 720 LINE",
"198 591 LINE",
"297 591 LINE"
);
}
);
width = 456;
}
);
unicode = 00E8;
},
{
glyphname = emacron;
lastChange = "2015-02-05 02:37:04 +0000";
layers = (
{
layerId = UUID0;
name = Regular;
paths = (
{
closed = 1;
nodes = (
"103 538 OFFCURVE",
"31 452 OFFCURVE",
"31 263 CURVE SMOOTH",
"31 74 OFFCURVE",
"102 -12 OFFCURVE",
"237 -12 CURVE SMOOTH",
"344 -12 OFFCURVE",
"423 51 OFFCURVE",
"423 186 CURVE",
"304 186 LINE",
"304 123 OFFCURVE",
"278 86 OFFCURVE",
"237 86 CURVE SMOOTH",
"178 86 OFFCURVE",
"157 139 OFFCURVE",
"156 233 CURVE",
"423 233 LINE",
"423 263 LINE SMOOTH",
"423 452 OFFCURVE",
"360 538 OFFCURVE",
"233 538 CURVE SMOOTH"
);
},
{
closed = 1;
nodes = (
"277 440 OFFCURVE",
"297 396 OFFCURVE",
"297 320 CURVE",
"157 320 LINE",
"161 396 OFFCURVE",
"182 440 OFFCURVE",
"233 440 CURVE SMOOTH"
);
},
{
closed = 1;
nodes = (
"356 686 LINE",
"101 686 LINE",
"101 599 LINE",
"356 599 LINE"
);
}
);
width = 456;
}
);
unicode = 0113;
},
{
glyphname = eogonek;
lastChange = "2015-02-05 02:37:04 +0000";
layers = (
{
layerId = UUID0;
name = Regular;
paths = (
{
closed = 1;
nodes = (
"103 538 OFFCURVE",
"31 452 OFFCURVE",
"31 263 CURVE SMOOTH",
"31 79 OFFCURVE",
"98 -7 OFFCURVE",
"225 -12 CURVE",
"208 -33 OFFCURVE",
"196 -58 OFFCURVE",
"196 -95 CURVE SMOOTH",
"196 -164 OFFCURVE",
"250 -185 OFFCURVE",
"295 -185 CURVE SMOOTH",
"317 -185 OFFCURVE",
"338 -180 OFFCURVE",
"361 -171 CURVE",
"361 -116 LINE",
"339 -116 LINE SMOOTH",
"306 -116 OFFCURVE",
"294 -91 OFFCURVE",
"294 -65 CURVE SMOOTH",
"294 -37 OFFCURVE",
"312 -9 OFFCURVE",
"324 5 CURVE",
"384 32 OFFCURVE",
"423 91 OFFCURVE",
"423 186 CURVE",
"304 186 LINE",
"304 123 OFFCURVE",
"278 86 OFFCURVE",
"237 86 CURVE SMOOTH",
"178 86 OFFCURVE",
"157 139 OFFCURVE",
"156 233 CURVE",
"423 233 LINE",
"423 263 LINE SMOOTH",
"423 452 OFFCURVE",
"360 538 OFFCURVE",
"233 538 CURVE SMOOTH"
);
},
{
closed = 1;
nodes = (
"277 440 OFFCURVE",
"297 396 OFFCURVE",
"297 320 CURVE",
"157 320 LINE",
"161 396 OFFCURVE",
"182 440 OFFCURVE",
"233 440 CURVE SMOOTH"
);
}
);
width = 456;
}
);
unicode = 0119;
},
{
glyphname = f;
lastChange = "2015-02-05 02:37:04 +0000";
layers = (
{
layerId = UUID0;
name = Regular;
paths = (
{
closed = 1;
nodes = (
"90 731 OFFCURVE",
"62 660 OFFCURVE",
"62 590 CURVE SMOOTH",
"62 526 LINE",
"9 526 LINE",
"9 425 LINE",
"62 425 LINE",
"62 0 LINE",
"182 0 LINE",
"182 425 LINE",
"273 425 LINE",
"273 526 LINE",
"182 526 LINE",
"182 587 LINE",
"182 615 OFFCURVE",
"197 630 OFFCURVE",
"224 630 CURVE SMOOTH",
"273 630 LINE",
"273 719 LINE",
"253 725 OFFCURVE",
"214 731 OFFCURVE",
"186 731 CURVE SMOOTH"
);
}
);
width = 273;
}
);
unicode = 0066;
},
{
glyphname = g;
lastChange = "2015-02-05 02:37:04 +0000";
layers = (
{
anchors = (
{
name = top;
position = "{250, 526}";
}
);
layerId = UUID0;
name = Regular;
paths = (
{
closed = 1;
nodes = (
"387 614 LINE",
"387 595 OFFCURVE",
"376 552 OFFCURVE",
"336 523 CURVE",
"311 533 OFFCURVE",
"281 538 OFFCURVE",
"248 538 CURVE SMOOTH",
"122 538 OFFCURVE",
"54 467 OFFCURVE",
"54 359 CURVE SMOOTH",
"54 297 OFFCURVE",
"76 248 OFFCURVE",
"118 217 CURVE",
"76 202 OFFCURVE",
"41 171 OFFCURVE",
"41 125 CURVE SMOOTH",
"41 89 OFFCURVE",
"57 62 OFFCURVE",
"83 46 CURVE",
"45 25 OFFCURVE",
"16 -9 OFFCURVE",
"16 -61 CURVE SMOOTH",
"16 -133 OFFCURVE",
"68 -182 OFFCURVE",
"132 -182 CURVE SMOOTH",
"325 -182 LINE SMOOTH",
"419 -182 OFFCURVE",
"495 -118 OFFCURVE",
"495 -20 CURVE SMOOTH",
"495 64 OFFCURVE",
"441 117 OFFCURVE",
"375 117 CURVE SMOOTH",
"193 117 LINE SMOOTH",
"175 117 OFFCURVE",
"162 130 OFFCURVE",
"162 148 CURVE SMOOTH",
"162 166 OFFCURVE",
"177 180 OFFCURVE",
"198 180 CURVE SMOOTH",
"248 180 LINE SMOOTH",
"375 180 OFFCURVE",
"443 251 OFFCURVE",
"443 359 CURVE SMOOTH",
"443 408 OFFCURVE",
"428 450 OFFCURVE",
"401 480 CURVE",
"454 496 OFFCURVE",
"486 539 OFFCURVE",
"486 614 CURVE"
);
},
{
closed = 1;
nodes = (
"325 6 LINE",
"352 6 OFFCURVE",
"374 -12 OFFCURVE",
"374 -42 CURVE SMOOTH",
"374 -72 OFFCURVE",
"350 -91 OFFCURVE",
"320 -91 CURVE SMOOTH",
"185 -91 LINE SMOOTH",
"158 -91 OFFCURVE",
"137 -72 OFFCURVE",
"137 -42 CURVE SMOOTH",
"137 -16 OFFCURVE",
"158 6 OFFCURVE",
"185 6 CURVE SMOOTH"
);
},
{
closed = 1;
nodes = (
"298 449 OFFCURVE",
"323 415 OFFCURVE",
"323 359 CURVE SMOOTH",
"323 303 OFFCURVE",
"298 269 OFFCURVE",
"248 269 CURVE SMOOTH",
"199 269 OFFCURVE",
"174 303 OFFCURVE",
"174 359 CURVE SMOOTH",
"174 415 OFFCURVE",
"199 449 OFFCURVE",
"248 449 CURVE SMOOTH"
);
}
);
width = 501;
}
);
unicode = 0067;
},
{
glyphname = gbreve;
lastChange = "2015-02-05 02:37:04 +0000";
layers = (
{
layerId = UUID0;
name = Regular;
paths = (
{
closed = 1;
nodes = (
"387 614 LINE",
"387 595 OFFCURVE",
"376 552 OFFCURVE",
"336 523 CURVE",
"311 533 OFFCURVE",
"281 538 OFFCURVE",
"248 538 CURVE SMOOTH",
"122 538 OFFCURVE",
"54 467 OFFCURVE",
"54 359 CURVE SMOOTH",
"54 297 OFFCURVE",
"76 248 OFFCURVE",
"118 217 CURVE",
"76 202 OFFCURVE",
"41 171 OFFCURVE",
"41 125 CURVE SMOOTH",
"41 89 OFFCURVE",
"57 62 OFFCURVE",
"83 46 CURVE",
"45 25 OFFCURVE",
"16 -9 OFFCURVE",
"16 -61 CURVE SMOOTH",
"16 -133 OFFCURVE",
"68 -182 OFFCURVE",
"132 -182 CURVE SMOOTH",
"325 -182 LINE SMOOTH",
"419 -182 OFFCURVE",
"495 -118 OFFCURVE",
"495 -20 CURVE SMOOTH",
"495 64 OFFCURVE",
"441 117 OFFCURVE",
"375 117 CURVE SMOOTH",
"193 117 LINE SMOOTH",
"175 117 OFFCURVE",
"162 130 OFFCURVE",
"162 148 CURVE SMOOTH",
"162 166 OFFCURVE",
"177 180 OFFCURVE",
"198 180 CURVE SMOOTH",
"248 180 LINE SMOOTH",
"375 180 OFFCURVE",
"443 251 OFFCURVE",
"443 359 CURVE SMOOTH",
"443 408 OFFCURVE",
"428 450 OFFCURVE",
"401 480 CURVE",
"454 496 OFFCURVE",
"486 539 OFFCURVE",
"486 614 CURVE"
);
},
{
closed = 1;
nodes = (
"325 6 LINE",
"352 6 OFFCURVE",
"374 -12 OFFCURVE",
"374 -42 CURVE SMOOTH",
"374 -72 OFFCURVE",
"350 -91 OFFCURVE",
"320 -91 CURVE SMOOTH",
"185 -91 LINE SMOOTH",
"158 -91 OFFCURVE",
"137 -72 OFFCURVE",
"137 -42 CURVE SMOOTH",
"137 -16 OFFCURVE",
"158 6 OFFCURVE",
"185 6 CURVE SMOOTH"
);
},
{
closed = 1;
nodes = (
"298 449 OFFCURVE",
"323 415 OFFCURVE",
"323 359 CURVE SMOOTH",
"323 303 OFFCURVE",
"298 269 OFFCURVE",
"248 269 CURVE SMOOTH",
"199 269 OFFCURVE",
"174 303 OFFCURVE",
"174 359 CURVE SMOOTH",
"174 415 OFFCURVE",
"199 449 OFFCURVE",
"248 449 CURVE SMOOTH"
);
},
{
closed = 1;
nodes = (
"310 723 LINE",
"308 709 OFFCURVE",
"284 690 OFFCURVE",
"250 690 CURVE SMOOTH",
"217 690 OFFCURVE",
"194 709 OFFCURVE",
"191 723 CURVE",
"117 723 LINE",
"117 673 OFFCURVE",
"168 616 OFFCURVE",
"250 616 CURVE SMOOTH",
"333 616 OFFCURVE",
"384 673 OFFCURVE",
"384 723 CURVE"
);
}
);
width = 501;
}
);
unicode = 011F;
},
{
glyphname = gcircumflex;
lastChange = "2015-02-05 02:37:04 +0000";
layers = (
{
layerId = UUID0;
name = Regular;
paths = (
{
closed = 1;
nodes = (
"408 614 LINE",
"408 595 OFFCURVE",
"410 526 OFFCURVE",
"336 523 CURVE",
"311 533 OFFCURVE",
"281 538 OFFCURVE",
"248 538 CURVE SMOOTH",
"122 538 OFFCURVE",
"54 467 OFFCURVE",
"54 359 CURVE SMOOTH",
"54 297 OFFCURVE",
"76 248 OFFCURVE",
"118 217 CURVE",
"76 202 OFFCURVE",
"41 171 OFFCURVE",
"41 125 CURVE SMOOTH",
"41 89 OFFCURVE",
"57 62 OFFCURVE",
"83 46 CURVE",
"45 25 OFFCURVE",
"16 -9 OFFCURVE",
"16 -61 CURVE SMOOTH",
"16 -133 OFFCURVE",
"68 -182 OFFCURVE",
"132 -182 CURVE SMOOTH",
"325 -182 LINE SMOOTH",
"419 -182 OFFCURVE",
"495 -118 OFFCURVE",
"495 -20 CURVE SMOOTH",
"495 64 OFFCURVE",
"441 117 OFFCURVE",
"375 117 CURVE SMOOTH",
"193 117 LINE SMOOTH",
"175 117 OFFCURVE",
"162 130 OFFCURVE",
"162 148 CURVE SMOOTH",
"162 166 OFFCURVE",
"177 180 OFFCURVE",
"198 180 CURVE SMOOTH",
"248 180 LINE SMOOTH",
"375 180 OFFCURVE",
"443 251 OFFCURVE",
"443 359 CURVE SMOOTH",
"443 408 OFFCURVE",
"428 450 OFFCURVE",
"401 480 CURVE",
"454 496 OFFCURVE",
"486 539 OFFCURVE",
"486 614 CURVE"
);
},
{
closed = 1;
nodes = (
"325 6 LINE",
"352 6 OFFCURVE",
"374 -12 OFFCURVE",
"374 -42 CURVE SMOOTH",
"374 -72 OFFCURVE",
"350 -91 OFFCURVE",
"320 -91 CURVE SMOOTH",
"185 -91 LINE SMOOTH",
"158 -91 OFFCURVE",
"137 -72 OFFCURVE",
"137 -42 CURVE SMOOTH",
"137 -16 OFFCURVE",
"158 6 OFFCURVE",
"185 6 CURVE SMOOTH"
);
},
{
closed = 1;
nodes = (
"298 449 OFFCURVE",
"323 415 OFFCURVE",
"323 359 CURVE SMOOTH",
"323 303 OFFCURVE",
"298 269 OFFCURVE",
"248 269 CURVE SMOOTH",
"199 269 OFFCURVE",
"174 303 OFFCURVE",
"174 359 CURVE SMOOTH",
"174 415 OFFCURVE",
"199 449 OFFCURVE",
"248 449 CURVE SMOOTH"
);
},
{
closed = 1;
nodes = (
"300 723 LINE",
"202 723 LINE",
"116 588 LINE",
"206 588 LINE",
"251 657 LINE",
"295 588 LINE",
"385 588 LINE"
);
}
);
width = 501;
}
);
unicode = 011D;
},
{
glyphname = gcommaaccent;
lastChange = "2015-02-05 02:37:04 +0000";
layers = (
{
layerId = UUID0;
name = Regular;
paths = (
{
closed = 1;
nodes = (
"387 614 LINE",
"387 595 OFFCURVE",
"376 552 OFFCURVE",
"336 523 CURVE",
"311 533 OFFCURVE",
"281 538 OFFCURVE",
"248 538 CURVE SMOOTH",
"122 538 OFFCURVE",
"54 467 OFFCURVE",
"54 359 CURVE SMOOTH",
"54 297 OFFCURVE",
"76 248 OFFCURVE",
"118 217 CURVE",
"76 202 OFFCURVE",
"41 171 OFFCURVE",
"41 125 CURVE SMOOTH",
"41 89 OFFCURVE",
"57 62 OFFCURVE",
"83 46 CURVE",
"45 25 OFFCURVE",
"16 -9 OFFCURVE",
"16 -61 CURVE SMOOTH",
"16 -133 OFFCURVE",
"68 -182 OFFCURVE",
"132 -182 CURVE SMOOTH",
"325 -182 LINE SMOOTH",
"419 -182 OFFCURVE",
"495 -118 OFFCURVE",
"495 -20 CURVE SMOOTH",
"495 64 OFFCURVE",
"441 117 OFFCURVE",
"375 117 CURVE SMOOTH",
"193 117 LINE SMOOTH",
"175 117 OFFCURVE",
"162 130 OFFCURVE",
"162 148 CURVE SMOOTH",
"162 166 OFFCURVE",
"177 180 OFFCURVE",
"198 180 CURVE SMOOTH",
"248 180 LINE SMOOTH",
"375 180 OFFCURVE",
"443 251 OFFCURVE",
"443 359 CURVE SMOOTH",
"443 408 OFFCURVE",
"428 450 OFFCURVE",
"401 480 CURVE",
"454 496 OFFCURVE",
"486 539 OFFCURVE",
"486 614 CURVE"
);
},
{
closed = 1;
nodes = (
"325 6 LINE",
"352 6 OFFCURVE",
"374 -12 OFFCURVE",
"374 -42 CURVE SMOOTH",
"374 -72 OFFCURVE",
"350 -91 OFFCURVE",
"320 -91 CURVE SMOOTH",
"185 -91 LINE SMOOTH",
"158 -91 OFFCURVE",
"137 -72 OFFCURVE",
"137 -42 CURVE SMOOTH",
"137 -16 OFFCURVE",
"158 6 OFFCURVE",
"185 6 CURVE SMOOTH"
);
},
{
closed = 1;
nodes = (
"298 449 OFFCURVE",
"323 415 OFFCURVE",
"323 359 CURVE SMOOTH",
"323 303 OFFCURVE",
"298 269 OFFCURVE",
"248 269 CURVE SMOOTH",
"199 269 OFFCURVE",
"174 303 OFFCURVE",
"174 359 CURVE SMOOTH",
"174 415 OFFCURVE",
"199 449 OFFCURVE",
"248 449 CURVE SMOOTH"
);
},
{
closed = 1;
nodes = (
"288 798 LINE",
"223 798 LINE",
"177 702 LINE",
"177 590 LINE",
"301 590 LINE",
"301 713 LINE",
"252 713 LINE"
);
}
);
width = 501;
}
);
unicode = 0123;
},
{
glyphname = gdotaccent;
lastChange = "2015-02-05 02:37:04 +0000";
layers = (
{
layerId = UUID0;
name = Regular;
paths = (
{
closed = 1;
nodes = (
"387 614 LINE",
"387 595 OFFCURVE",
"376 552 OFFCURVE",
"336 523 CURVE",
"311 533 OFFCURVE",
"281 538 OFFCURVE",
"248 538 CURVE SMOOTH",
"122 538 OFFCURVE",
"54 467 OFFCURVE",
"54 359 CURVE SMOOTH",
"54 297 OFFCURVE",
"76 248 OFFCURVE",
"118 217 CURVE",
"76 202 OFFCURVE",
"41 171 OFFCURVE",
"41 125 CURVE SMOOTH",
"41 89 OFFCURVE",
"57 62 OFFCURVE",
"83 46 CURVE",
"45 25 OFFCURVE",
"16 -9 OFFCURVE",
"16 -61 CURVE SMOOTH",
"16 -133 OFFCURVE",
"68 -182 OFFCURVE",
"132 -182 CURVE SMOOTH",
"325 -182 LINE SMOOTH",
"419 -182 OFFCURVE",
"495 -118 OFFCURVE",
"495 -20 CURVE SMOOTH",
"495 64 OFFCURVE",
"441 117 OFFCURVE",
"375 117 CURVE SMOOTH",
"193 117 LINE SMOOTH",
"175 117 OFFCURVE",
"162 130 OFFCURVE",
"162 148 CURVE SMOOTH",
"162 166 OFFCURVE",
"177 180 OFFCURVE",
"198 180 CURVE SMOOTH",
"248 180 LINE SMOOTH",
"375 180 OFFCURVE",
"443 251 OFFCURVE",
"443 359 CURVE SMOOTH",
"443 408 OFFCURVE",
"428 450 OFFCURVE",
"401 480 CURVE",
"454 496 OFFCURVE",
"486 539 OFFCURVE",
"486 614 CURVE"
);
},
{
closed = 1;
nodes = (
"325 6 LINE",
"352 6 OFFCURVE",
"374 -12 OFFCURVE",
"374 -42 CURVE SMOOTH",
"374 -72 OFFCURVE",
"350 -91 OFFCURVE",
"320 -91 CURVE SMOOTH",
"185 -91 LINE SMOOTH",
"158 -91 OFFCURVE",
"137 -72 OFFCURVE",
"137 -42 CURVE SMOOTH",
"137 -16 OFFCURVE",
"158 6 OFFCURVE",
"185 6 CURVE SMOOTH"
);
},
{
closed = 1;
nodes = (
"298 449 OFFCURVE",
"323 415 OFFCURVE",
"323 359 CURVE SMOOTH",
"323 303 OFFCURVE",
"298 269 OFFCURVE",
"248 269 CURVE SMOOTH",
"199 269 OFFCURVE",
"174 303 OFFCURVE",
"174 359 CURVE SMOOTH",
"174 415 OFFCURVE",
"199 449 OFFCURVE",
"248 449 CURVE SMOOTH"
);
},
{
closed = 1;
nodes = (
"304 723 LINE",
"197 723 LINE",
"197 608 LINE",
"304 608 LINE"
);
}
);
width = 501;
}
);
unicode = 0121;
},
{
glyphname = h;
lastChange = "2015-02-05 02:37:04 +0000";
layers = (
{
anchors = (
{
name = center;
position = "{250, 263}";
},
{
name = top;
position = "{112, 686}";
}
);
layerId = UUID0;
name = Regular;
paths = (
{
closed = 1;
nodes = (
"175 723 LINE",
"55 723 LINE",
"55 0 LINE",
"175 0 LINE",
"175 324 LINE SMOOTH",
"175 383 OFFCURVE",
"210 429 OFFCURVE",
"257 429 CURVE SMOOTH",
"300 429 OFFCURVE",
"326 404 OFFCURVE",
"326 336 CURVE SMOOTH",
"326 0 LINE",
"446 0 LINE",
"446 369 LINE SMOOTH",
"446 493 OFFCURVE",
"387 538 OFFCURVE",
"306 538 CURVE SMOOTH",
"244 538 OFFCURVE",
"202 503 OFFCURVE",
"179 470 CURVE",
"175 470 LINE"
);
}
);
width = 501;
}
);
unicode = 0068;
},
{
glyphname = hbar;
lastChange = "2015-02-05 02:37:04 +0000";
layers = (
{
layerId = UUID0;
name = Regular;
paths = (
{
closed = 1;
nodes = (
"306 670 LINE",
"175 670 LINE",
"175 723 LINE",
"55 723 LINE",
"55 670 LINE",
"0 670 LINE",
"0 583 LINE",
"55 583 LINE",
"55 0 LINE",
"175 0 LINE",
"175 324 LINE SMOOTH",
"175 383 OFFCURVE",
"210 429 OFFCURVE",
"257 429 CURVE SMOOTH",
"300 429 OFFCURVE",
"326 404 OFFCURVE",
"326 336 CURVE SMOOTH",
"326 0 LINE",
"446 0 LINE",
"446 369 LINE SMOOTH",
"446 493 OFFCURVE",
"387 538 OFFCURVE",
"306 538 CURVE SMOOTH",
"244 538 OFFCURVE",
"202 503 OFFCURVE",
"179 470 CURVE",
"175 470 LINE",
"175 583 LINE",
"306 583 LINE"
);
}
);
width = 501;
}
);
unicode = 0127;
},
{
glyphname = hcircumflex;
lastChange = "2015-02-05 02:37:04 +0000";
layers = (
{
layerId = UUID0;
name = Regular;
paths = (
{
closed = 1;
nodes = (
"175 723 LINE",
"55 723 LINE",
"55 0 LINE",
"175 0 LINE",
"175 324 LINE SMOOTH",
"175 383 OFFCURVE",
"210 429 OFFCURVE",
"257 429 CURVE SMOOTH",
"300 429 OFFCURVE",
"326 404 OFFCURVE",
"326 336 CURVE SMOOTH",
"326 0 LINE",
"446 0 LINE",
"446 369 LINE SMOOTH",
"446 493 OFFCURVE",
"387 538 OFFCURVE",
"306 538 CURVE SMOOTH",
"244 538 OFFCURVE",
"202 503 OFFCURVE",
"179 470 CURVE",
"175 470 LINE"
);
},
{
closed = 1;
nodes = (
"162 883 LINE",
"64 883 LINE",
"-22 748 LINE",
"68 748 LINE",
"113 817 LINE",
"157 748 LINE",
"247 748 LINE"
);
}
);
width = 501;
}
);
unicode = 0125;
},
{
glyphname = i;
lastChange = "2015-02-05 02:37:04 +0000";
layers = (
{
layerId = UUID0;
name = Regular;
paths = (
{
closed = 1;
nodes = (
"174 526 LINE",
"54 526 LINE",
"54 0 LINE",
"174 0 LINE"
);
},
{
closed = 1;
nodes = (
"174 723 LINE",
"54 723 LINE",
"54 614 LINE",
"174 614 LINE"
);
}
);
width = 228;
}
);
unicode = 0069;
},
{
glyphname = dotlessi;
lastChange = "2015-02-05 02:37:04 +0000";
layers = (
{
anchors = (
{
name = ogonek;
position = "{174, 0}";
},
{
name = top;
position = "{114, 526}";
}
);
layerId = UUID0;
name = Regular;
paths = (
{
closed = 1;
nodes = (
"174 526 LINE",
"54 526 LINE",
"54 0 LINE",
"174 0 LINE"
);
}
);
width = 228;
}
);
unicode = 0131;
},
{
glyphname = iacute;
lastChange = "2015-02-05 02:37:04 +0000";
layers = (
{
layerId = UUID0;
name = Regular;
paths = (
{
closed = 1;
nodes = (
"174 526 LINE",
"54 526 LINE",
"54 0 LINE",
"174 0 LINE"
);
},
{
closed = 1;
nodes = (
"251 723 LINE",
"131 723 LINE",
"45 591 LINE",
"145 591 LINE",
"252 720 LINE"
);
}
);
width = 228;
}
);
unicode = 00ED;
},
{
glyphname = ibreve;
lastChange = "2015-02-05 02:37:04 +0000";
layers = (
{
layerId = UUID0;
name = Regular;
paths = (
{
closed = 1;
nodes = (
"174 526 LINE",
"54 526 LINE",
"54 0 LINE",
"174 0 LINE"
);
},
{
closed = 1;
nodes = (
"174 723 LINE",
"172 709 OFFCURVE",
"148 690 OFFCURVE",
"114 690 CURVE SMOOTH",
"81 690 OFFCURVE",
"58 709 OFFCURVE",
"55 723 CURVE",
"-20 723 LINE",
"-20 673 OFFCURVE",
"32 616 OFFCURVE",
"114 616 CURVE SMOOTH",
"197 616 OFFCURVE",
"248 673 OFFCURVE",
"248 723 CURVE"
);
}
);
width = 228;
}
);
unicode = 012D;
},
{
glyphname = icircumflex;
lastChange = "2015-02-05 02:37:04 +0000";
layers = (
{
layerId = UUID0;
name = Regular;
paths = (
{
closed = 1;
nodes = (
"174 526 LINE",
"54 526 LINE",
"54 0 LINE",
"174 0 LINE"
);
},
{
closed = 1;
nodes = (
"164 723 LINE",
"66 723 LINE",
"-21 588 LINE",
"70 588 LINE",
"115 657 LINE",
"159 588 LINE",
"249 588 LINE"
);
}
);
width = 228;
}
);
unicode = 00EE;
},
{
glyphname = idieresis;
lastChange = "2015-02-05 02:37:04 +0000";
layers = (
{
layerId = UUID0;
name = Regular;
paths = (
{
closed = 1;
nodes = (
"174 526 LINE",
"54 526 LINE",
"54 0 LINE",
"174 0 LINE"
);
},
{
closed = 1;
nodes = (
"77 723 LINE",
"-23 723 LINE",
"-23 614 LINE",
"77 614 LINE"
);
},
{
closed = 1;
nodes = (
"252 723 LINE",
"152 723 LINE",
"152 614 LINE",
"252 614 LINE"
);
}
);
width = 228;
}
);
unicode = 00EF;
},
{
glyphname = igrave;
lastChange = "2015-02-05 02:37:04 +0000";
layers = (
{
layerId = UUID0;
name = Regular;
paths = (
{
closed = 1;
nodes = (
"174 526 LINE",
"54 526 LINE",
"54 0 LINE",
"174 0 LINE"
);
},
{
closed = 1;
nodes = (
"97 723 LINE",
"-23 723 LINE",
"-24 720 LINE",
"84 591 LINE",
"183 591 LINE"
);
}
);
width = 228;
}
);
unicode = 00EC;
},
{
glyphname = ij;
lastChange = "2015-02-05 02:37:04 +0000";
layers = (
{
layerId = UUID0;
name = Regular;
paths = (
{
closed = 1;
nodes = (
"402 526 LINE",
"282 526 LINE",
"282 -33 LINE",
"282 -64 OFFCURVE",
"266 -81 OFFCURVE",
"235 -81 CURVE SMOOTH",
"191 -81 LINE",
"191 -170 LINE",
"212 -176 OFFCURVE",
"250 -182 OFFCURVE",
"280 -182 CURVE SMOOTH",
"376 -182 OFFCURVE",
"402 -111 OFFCURVE",
"402 -41 CURVE SMOOTH"
);
},
{
closed = 1;
nodes = (
"174 526 LINE",
"54 526 LINE",
"54 0 LINE",
"174 0 LINE"
);
},
{
closed = 1;
nodes = (
"174 723 LINE",
"54 723 LINE",
"54 614 LINE",
"174 614 LINE"
);
},
{
closed = 1;
nodes = (
"402 723 LINE",
"282 723 LINE",
"282 614 LINE",
"402 614 LINE"
);
}
);
width = 456;
}
);
unicode = 0133;
},
{
glyphname = imacron;
lastChange = "2015-02-05 02:37:04 +0000";
layers = (
{
layerId = UUID0;
name = Regular;
paths = (
{
closed = 1;
nodes = (
"174 526 LINE",
"54 526 LINE",
"54 0 LINE",
"174 0 LINE"
);
},
{
closed = 1;
nodes = (
"242 686 LINE",
"-14 686 LINE",
"-14 599 LINE",
"242 599 LINE"
);
}
);
width = 228;
}
);
unicode = 012B;
},
{
glyphname = iogonek;
lastChange = "2015-02-05 02:37:04 +0000";
layers = (
{
layerId = UUID0;
name = Regular;
paths = (
{
closed = 1;
nodes = (
"174 526 LINE",
"54 526 LINE",
"54 0 LINE",
"90 0 LINE",
"66 -25 OFFCURVE",
"46 -53 OFFCURVE",
"46 -100 CURVE SMOOTH",
"46 -169 OFFCURVE",
"99 -190 OFFCURVE",
"145 -190 CURVE SMOOTH",
"167 -190 OFFCURVE",
"188 -185 OFFCURVE",
"211 -176 CURVE",
"211 -121 LINE",
"189 -121 LINE SMOOTH",
"156 -121 OFFCURVE",
"144 -96 OFFCURVE",
"144 -70 CURVE SMOOTH",
"144 -42 OFFCURVE",
"162 -14 OFFCURVE",
"174 0 CURVE"
);
},
{
closed = 1;
nodes = (
"168 723 LINE",
"61 723 LINE",
"61 608 LINE",
"168 608 LINE"
);
}
);
width = 228;
}
);
unicode = 012F;
},
{
glyphname = itilde;
lastChange = "2015-02-05 02:37:04 +0000";
layers = (
{
layerId = UUID0;
name = Regular;
paths = (
{
closed = 1;
nodes = (
"174 526 LINE",
"54 526 LINE",
"54 0 LINE",
"174 0 LINE"
);
},
{
closed = 1;
nodes = (
"216 723 LINE",
"212 695 OFFCURVE",
"199 686 OFFCURVE",
"178 686 CURVE SMOOTH",
"132 686 OFFCURVE",
"94 723 OFFCURVE",
"44 723 CURVE SMOOTH",
"-26 723 OFFCURVE",
"-54 656 OFFCURVE",
"-54 601 CURVE",
"13 601 LINE",
"17 628 OFFCURVE",
"30 638 OFFCURVE",
"52 638 CURVE SMOOTH",
"97 638 OFFCURVE",
"136 601 OFFCURVE",
"184 601 CURVE SMOOTH",
"254 601 OFFCURVE",
"283 668 OFFCURVE",
"283 723 CURVE"
);
}
);
width = 228;
}
);
unicode = 0129;
},
{
glyphname = j;
lastChange = "2015-02-05 02:37:04 +0000";
layers = (
{
layerId = UUID0;
name = Regular;
paths = (
{
closed = 1;
nodes = (
"174 526 LINE",
"54 526 LINE",
"54 -33 LINE",
"54 -64 OFFCURVE",
"38 -81 OFFCURVE",
"7 -81 CURVE SMOOTH",
"-37 -81 LINE",
"-37 -170 LINE",
"-16 -176 OFFCURVE",
"22 -182 OFFCURVE",
"52 -182 CURVE SMOOTH",
"148 -182 OFFCURVE",
"174 -111 OFFCURVE",
"174 -41 CURVE SMOOTH"
);
},
{
closed = 1;
nodes = (
"174 723 LINE",
"54 723 LINE",
"54 614 LINE",
"174 614 LINE"
);
}
);
width = 228;
}
);
unicode = 006A;
},
{
glyphname = jcircumflex;
lastChange = "2015-02-05 02:37:04 +0000";
layers = (
{
layerId = UUID0;
name = Regular;
paths = (
{
closed = 1;
nodes = (
"174 526 LINE",
"54 526 LINE",
"54 -33 LINE",
"54 -64 OFFCURVE",
"38 -81 OFFCURVE",
"7 -81 CURVE SMOOTH",
"-37 -81 LINE",
"-37 -170 LINE",
"-16 -176 OFFCURVE",
"22 -182 OFFCURVE",
"52 -182 CURVE SMOOTH",
"148 -182 OFFCURVE",
"174 -111 OFFCURVE",
"174 -41 CURVE SMOOTH"
);
},
{
closed = 1;
nodes = (
"166 723 LINE",
"67 723 LINE",
"-19 588 LINE",
"71 588 LINE",
"116 657 LINE",
"161 588 LINE",
"250 588 LINE"
);
}
);
width = 228;
}
);
unicode = 0135;
},
{
glyphname = k;
lastChange = "2015-02-05 02:37:04 +0000";
layers = (
{
anchors = (
{
name = bottom;
position = "{228, 0}";
}
);
layerId = UUID0;
name = Regular;
paths = (
{
closed = 1;
nodes = (
"174 723 LINE",
"54 723 LINE",
"54 0 LINE",
"174 0 LINE",
"174 164 LINE",
"218 218 LINE",
"324 0 LINE",
"457 0 LINE",
"293 312 LINE",
"449 526 LINE",
"321 526 LINE",
"174 317 LINE"
);
}
);
width = 456;
}
);
unicode = 006B;
},
{
glyphname = kcommaaccent;
lastChange = "2015-02-05 02:37:04 +0000";
layers = (
{
layerId = UUID0;
name = Regular;
paths = (
{
closed = 1;
nodes = (
"174 723 LINE",
"54 723 LINE",
"54 0 LINE",
"174 0 LINE",
"174 164 LINE",
"218 218 LINE",
"324 0 LINE",
"457 0 LINE",
"293 312 LINE",
"449 526 LINE",
"321 526 LINE",
"174 317 LINE"
);
},
{
closed = 1;
nodes = (
"290 -55 LINE",
"167 -55 LINE",
"167 -178 LINE",
"215 -178 LINE",
"180 -263 LINE",
"245 -263 LINE",
"290 -167 LINE"
);
}
);
width = 456;
}
);
unicode = 0137;
},
{
glyphname = kgreenlandic;
lastChange = "2015-02-05 02:37:04 +0000";
layers = (
{
layerId = UUID0;
name = Regular;
paths = (
{
closed = 1;
nodes = (
"449 526 LINE",
"321 526 LINE",
"174 317 LINE",
"174 526 LINE",
"54 526 LINE",
"54 0 LINE",
"174 0 LINE",
"174 164 LINE",
"218 218 LINE",
"324 0 LINE",
"457 0 LINE",
"293 312 LINE"
);
}
);
width = 457;
}
);
unicode = 0138;
},
{
glyphname = l;
lastChange = "2015-02-05 02:37:04 +0000";
layers = (
{
anchors = (
{
name = bottom;
position = "{114, 0}";
},
{
name = top;
position = "{114, 686}";
},
{
name = topright;
position = "{218, 526}";
}
);
layerId = UUID0;
name = Regular;
paths = (
{
closed = 1;
nodes = (
"174 723 LINE",
"54 723 LINE",
"54 0 LINE",
"174 0 LINE"
);
}
);
width = 228;
}
);
unicode = 006C;
},
{
glyphname = lacute;
lastChange = "2015-02-05 02:37:04 +0000";
layers = (
{
layerId = UUID0;
name = Regular;
paths = (
{
closed = 1;
nodes = (
"174 723 LINE",
"54 723 LINE",
"54 0 LINE",
"174 0 LINE"
);
},
{
closed = 1;
nodes = (
"251 883 LINE",
"131 883 LINE",
"45 751 LINE",
"145 751 LINE",
"252 880 LINE"
);
}
);
width = 228;
}
);
unicode = 013A;
},
{
glyphname = lcaron;
lastChange = "2015-02-05 02:37:04 +0000";
layers = (
{
layerId = UUID0;
name = Regular;
paths = (
{
closed = 1;
nodes = (
"174 723 LINE",
"54 723 LINE",
"54 0 LINE",
"174 0 LINE"
);
},
{
closed = 1;
nodes = (
"364 686 LINE",
"226 686 LINE",
"226 549 LINE",
"281 549 LINE",
"226 393 LINE",
"298 393 LINE",
"364 561 LINE"
);
}
);
width = 316;
}
);
unicode = 013E;
},
{
glyphname = lcommaaccent;
lastChange = "2015-02-05 02:37:04 +0000";
layers = (
{
layerId = UUID0;
name = Regular;
paths = (
{
closed = 1;
nodes = (
"174 723 LINE",
"54 723 LINE",
"54 0 LINE",
"174 0 LINE"
);
},
{
closed = 1;
nodes = (
"176 -55 LINE",
"53 -55 LINE",
"53 -178 LINE",
"102 -178 LINE",
"66 -263 LINE",
"131 -263 LINE",
"176 -167 LINE"
);
}
);
width = 228;
}
);
unicode = 013C;
},
{
glyphname = ldot;
lastChange = "2015-02-05 02:37:04 +0000";
layers = (
{
layerId = UUID0;
name = Regular;
paths = (
{
closed = 1;
nodes = (
"174 723 LINE",
"54 723 LINE",
"54 0 LINE",
"174 0 LINE"
);
},
{
closed = 1;
nodes = (
"334 409 LINE",
"213 409 LINE",
"213 278 LINE",
"334 278 LINE"
);
}
);
width = 334;
}
);
unicode = 0140;
},
{
glyphname = lslash;
lastChange = "2015-02-05 02:37:04 +0000";
layers = (
{
layerId = UUID0;
name = Regular;
paths = (
{
closed = 1;
nodes = (
"174 723 LINE",
"54 723 LINE",
"54 327 LINE",
"-14 267 LINE",
"-14 171 LINE",
"54 231 LINE",
"54 0 LINE",
"174 0 LINE",
"174 338 LINE",
"253 408 LINE",
"253 505 LINE",
"174 434 LINE"
);
}
);
width = 228;
}
);
unicode = 0142;
},
{
glyphname = m;
lastChange = "2015-02-05 02:37:04 +0000";
layers = (
{
layerId = UUID0;
name = Regular;
paths = (
{
closed = 1;
nodes = (
"484 538 OFFCURVE",
"438 502 OFFCURVE",
"411 461 CURVE",
"390 516 OFFCURVE",
"350 538 OFFCURVE",
"298 538 CURVE SMOOTH",
"240 538 OFFCURVE",
"198 502 OFFCURVE",
"173 461 CURVE",
"167 461 LINE",
"155 526 LINE",
"55 526 LINE",
"55 0 LINE",
"175 0 LINE",
"175 324 LINE SMOOTH",
"175 386 OFFCURVE",
"206 429 OFFCURVE",
"247 429 CURVE SMOOTH",
"287 429 OFFCURVE",
"307 404 OFFCURVE",
"307 336 CURVE SMOOTH",
"307 0 LINE",
"425 0 LINE",
"425 332 LINE SMOOTH",
"425 390 OFFCURVE",
"459 429 OFFCURVE",
"498 429 CURVE SMOOTH",
"538 429 OFFCURVE",
"557 404 OFFCURVE",
"557 336 CURVE SMOOTH",
"557 0 LINE",
"677 0 LINE",
"677 369 LINE SMOOTH",
"677 496 OFFCURVE",
"622 538 OFFCURVE",
"547 538 CURVE SMOOTH"
);
}
);
width = 729;
}
);
unicode = 006D;
},
{
glyphname = n;
lastChange = "2015-02-05 02:37:04 +0000";
layers = (
{
anchors = (
{
name = bottom;
position = "{250, 0}";
},
{
name = top;
position = "{250, 526}";
}
);
layerId = UUID0;
name = Regular;
paths = (
{
closed = 1;
nodes = (
"243 538 OFFCURVE",
"200 502 OFFCURVE",
"173 461 CURVE",
"167 461 LINE",
"155 526 LINE",
"55 526 LINE",
"55 0 LINE",
"175 0 LINE",
"175 324 LINE SMOOTH",
"175 383 OFFCURVE",
"210 429 OFFCURVE",
"257 429 CURVE SMOOTH",
"300 429 OFFCURVE",
"326 404 OFFCURVE",
"326 336 CURVE SMOOTH",
"326 0 LINE",
"446 0 LINE",
"446 369 LINE SMOOTH",
"446 493 OFFCURVE",
"387 538 OFFCURVE",
"306 538 CURVE SMOOTH"
);
}
);
width = 501;
}
);
unicode = 006E;
},
{
glyphname = nacute;
lastChange = "2015-02-05 02:37:04 +0000";
layers = (
{
layerId = UUID0;
name = Regular;
paths = (
{
closed = 1;
nodes = (
"243 538 OFFCURVE",
"200 502 OFFCURVE",
"173 461 CURVE",
"167 461 LINE",
"155 526 LINE",
"55 526 LINE",
"55 0 LINE",
"175 0 LINE",
"175 324 LINE SMOOTH",
"175 383 OFFCURVE",
"210 429 OFFCURVE",
"257 429 CURVE SMOOTH",
"300 429 OFFCURVE",
"326 404 OFFCURVE",
"326 336 CURVE SMOOTH",
"326 0 LINE",
"446 0 LINE",
"446 369 LINE SMOOTH",
"446 493 OFFCURVE",
"387 538 OFFCURVE",
"306 538 CURVE SMOOTH"
);
},
{
closed = 1;
nodes = (
"388 723 LINE",
"268 723 LINE",
"182 591 LINE",
"281 591 LINE",
"389 720 LINE"
);
}
);
width = 501;
}
);
unicode = 0144;
},
{
glyphname = napostrophe;
lastChange = "2015-02-05 02:37:04 +0000";
layers = (
{
layerId = UUID0;
name = Regular;
paths = (
{
closed = 1;
nodes = (
"418 538 OFFCURVE",
"375 502 OFFCURVE",
"348 461 CURVE",
"342 461 LINE",
"330 526 LINE",
"230 526 LINE",
"230 0 LINE",
"350 0 LINE",
"350 324 LINE SMOOTH",
"350 383 OFFCURVE",
"385 429 OFFCURVE",
"432 429 CURVE SMOOTH",
"475 429 OFFCURVE",
"501 404 OFFCURVE",
"501 336 CURVE SMOOTH",
"501 0 LINE",
"621 0 LINE",
"621 369 LINE SMOOTH",
"621 493 OFFCURVE",
"562 538 OFFCURVE",
"481 538 CURVE SMOOTH"
);
},
{
closed = 1;
nodes = (
"191 686 LINE",
"67 686 LINE",
"67 563 LINE",
"116 563 LINE",
"81 479 LINE",
"146 479 LINE",
"191 574 LINE"
);
}
);
width = 676;
}
);
unicode = 0149;
},
{
glyphname = ncaron;
lastChange = "2015-02-05 02:37:04 +0000";
layers = (
{
layerId = UUID0;
name = Regular;
paths = (
{
closed = 1;
nodes = (
"243 538 OFFCURVE",
"200 502 OFFCURVE",
"173 461 CURVE",
"167 461 LINE",
"155 526 LINE",
"55 526 LINE",
"55 0 LINE",
"175 0 LINE",
"175 324 LINE SMOOTH",
"175 383 OFFCURVE",
"210 429 OFFCURVE",
"257 429 CURVE SMOOTH",
"300 429 OFFCURVE",
"326 404 OFFCURVE",
"326 336 CURVE SMOOTH",
"326 0 LINE",
"446 0 LINE",
"446 369 LINE SMOOTH",
"446 493 OFFCURVE",
"387 538 OFFCURVE",
"306 538 CURVE SMOOTH"
);
},
{
closed = 1;
nodes = (
"385 723 LINE",
"295 723 LINE",
"251 654 LINE",
"206 723 LINE",
"116 723 LINE",
"202 588 LINE",
"300 588 LINE"
);
}
);
width = 501;
}
);
unicode = 0148;
},
{
glyphname = ncommaaccent;
lastChange = "2015-02-05 02:37:04 +0000";
layers = (
{
layerId = UUID0;
name = Regular;
paths = (
{
closed = 1;
nodes = (
"243 538 OFFCURVE",
"200 502 OFFCURVE",
"173 461 CURVE",
"167 461 LINE",
"155 526 LINE",
"55 526 LINE",
"55 0 LINE",
"175 0 LINE",
"175 324 LINE SMOOTH",
"175 383 OFFCURVE",
"210 429 OFFCURVE",
"257 429 CURVE SMOOTH",
"300 429 OFFCURVE",
"326 404 OFFCURVE",
"326 336 CURVE SMOOTH",
"326 0 LINE",
"446 0 LINE",
"446 369 LINE SMOOTH",
"446 493 OFFCURVE",
"387 538 OFFCURVE",
"306 538 CURVE SMOOTH"
);
},
{
closed = 1;
nodes = (
"312 -55 LINE",
"189 -55 LINE",
"189 -178 LINE",
"238 -178 LINE",
"202 -263 LINE",
"267 -263 LINE",
"312 -167 LINE"
);
}
);
width = 501;
}
);
unicode = 0146;
},
{
glyphname = eng;
lastChange = "2015-02-05 02:37:04 +0000";
layers = (
{
layerId = UUID0;
name = Regular;
paths = (
{
closed = 1;
nodes = (
"243 538 OFFCURVE",
"200 502 OFFCURVE",
"173 461 CURVE",
"167 461 LINE",
"155 526 LINE",
"55 526 LINE",
"55 0 LINE",
"175 0 LINE",
"175 324 LINE SMOOTH",
"175 383 OFFCURVE",
"210 429 OFFCURVE",
"257 429 CURVE SMOOTH",
"300 429 OFFCURVE",
"326 404 OFFCURVE",
"326 336 CURVE SMOOTH",
"326 -33 LINE",
"326 -64 OFFCURVE",
"310 -81 OFFCURVE",
"279 -81 CURVE SMOOTH",
"235 -81 LINE",
"235 -170 LINE",
"256 -176 OFFCURVE",
"294 -182 OFFCURVE",
"324 -182 CURVE SMOOTH",
"420 -182 OFFCURVE",
"446 -111 OFFCURVE",
"446 -41 CURVE SMOOTH",
"446 369 LINE SMOOTH",
"446 493 OFFCURVE",
"387 538 OFFCURVE",
"306 538 CURVE SMOOTH"
);
}
);
width = 501;
}
);
unicode = 014B;
},
{
glyphname = ntilde;
lastChange = "2015-02-05 02:37:04 +0000";
layers = (
{
layerId = UUID0;
name = Regular;
paths = (
{
closed = 1;
nodes = (
"243 538 OFFCURVE",
"200 502 OFFCURVE",
"173 461 CURVE",
"167 461 LINE",
"155 526 LINE",
"55 526 LINE",
"55 0 LINE",
"175 0 LINE",
"175 324 LINE SMOOTH",
"175 383 OFFCURVE",
"210 429 OFFCURVE",
"257 429 CURVE SMOOTH",
"300 429 OFFCURVE",
"326 404 OFFCURVE",
"326 336 CURVE SMOOTH",
"326 0 LINE",
"446 0 LINE",
"446 369 LINE SMOOTH",
"446 493 OFFCURVE",
"387 538 OFFCURVE",
"306 538 CURVE SMOOTH"
);
},
{
closed = 1;
nodes = (
"353 723 LINE",
"349 695 OFFCURVE",
"335 686 OFFCURVE",
"314 686 CURVE SMOOTH",
"269 686 OFFCURVE",
"230 723 OFFCURVE",
"181 723 CURVE SMOOTH",
"111 723 OFFCURVE",
"83 656 OFFCURVE",
"83 601 CURVE",
"149 601 LINE",
"153 628 OFFCURVE",
"167 638 OFFCURVE",
"188 638 CURVE SMOOTH",
"233 638 OFFCURVE",
"272 601 OFFCURVE",
"320 601 CURVE SMOOTH",
"391 601 OFFCURVE",
"419 668 OFFCURVE",
"419 723 CURVE"
);
}
);
width = 501;
}
);
unicode = 00F1;
},
{
glyphname = o;
lastChange = "2015-02-05 02:37:04 +0000";
layers = (
{
anchors = (
{
name = top;
position = "{250, 526}";
}
);
layerId = UUID0;
name = Regular;
paths = (
{
closed = 1;
nodes = (
"111 538 OFFCURVE",
"41 452 OFFCURVE",
"41 263 CURVE SMOOTH",
"41 74 OFFCURVE",
"111 -12 OFFCURVE",
"251 -12 CURVE SMOOTH",
"391 -12 OFFCURVE",
"461 74 OFFCURVE",
"461 263 CURVE SMOOTH",
"461 452 OFFCURVE",
"391 538 OFFCURVE",
"251 538 CURVE SMOOTH"
);
},
{
closed = 1;
nodes = (
"313 437 OFFCURVE",
"336 383 OFFCURVE",
"336 282 CURVE SMOOTH",
"336 244 LINE",
"336 143 OFFCURVE",
"313 89 OFFCURVE",
"251 89 CURVE SMOOTH",
"189 89 OFFCURVE",
"166 143 OFFCURVE",
"166 244 CURVE SMOOTH",
"166 282 LINE SMOOTH",
"166 383 OFFCURVE",
"189 437 OFFCURVE",
"251 437 CURVE SMOOTH"
);
}
);
width = 501;
}
);
unicode = 006F;
},
{
glyphname = oacute;
lastChange = "2015-02-05 02:37:04 +0000";
layers = (
{
layerId = UUID0;
name = Regular;
paths = (
{
closed = 1;
nodes = (
"111 538 OFFCURVE",
"41 452 OFFCURVE",
"41 263 CURVE SMOOTH",
"41 74 OFFCURVE",
"111 -12 OFFCURVE",
"251 -12 CURVE SMOOTH",
"391 -12 OFFCURVE",
"461 74 OFFCURVE",
"461 263 CURVE SMOOTH",
"461 452 OFFCURVE",
"391 538 OFFCURVE",
"251 538 CURVE SMOOTH"
);
},
{
closed = 1;
nodes = (
"313 437 OFFCURVE",
"336 383 OFFCURVE",
"336 282 CURVE SMOOTH",
"336 244 LINE",
"336 143 OFFCURVE",
"313 89 OFFCURVE",
"251 89 CURVE SMOOTH",
"189 89 OFFCURVE",
"166 143 OFFCURVE",
"166 244 CURVE SMOOTH",
"166 282 LINE SMOOTH",
"166 383 OFFCURVE",
"189 437 OFFCURVE",
"251 437 CURVE SMOOTH"
);
},
{
closed = 1;
nodes = (
"388 723 LINE",
"268 723 LINE",
"182 591 LINE",
"281 591 LINE",
"389 720 LINE"
);
}
);
width = 501;
}
);
unicode = 00F3;
},
{
glyphname = obreve;
lastChange = "2015-02-05 02:37:04 +0000";
layers = (
{
layerId = UUID0;
name = Regular;
paths = (
{
closed = 1;
nodes = (
"111 538 OFFCURVE",
"41 452 OFFCURVE",
"41 263 CURVE SMOOTH",
"41 74 OFFCURVE",
"111 -12 OFFCURVE",
"251 -12 CURVE SMOOTH",
"391 -12 OFFCURVE",
"461 74 OFFCURVE",
"461 263 CURVE SMOOTH",
"461 452 OFFCURVE",
"391 538 OFFCURVE",
"251 538 CURVE SMOOTH"
);
},
{
closed = 1;
nodes = (
"313 437 OFFCURVE",
"336 383 OFFCURVE",
"336 282 CURVE SMOOTH",
"336 244 LINE",
"336 143 OFFCURVE",
"313 89 OFFCURVE",
"251 89 CURVE SMOOTH",
"189 89 OFFCURVE",
"166 143 OFFCURVE",
"166 244 CURVE SMOOTH",
"166 282 LINE SMOOTH",
"166 383 OFFCURVE",
"189 437 OFFCURVE",
"251 437 CURVE SMOOTH"
);
},
{
closed = 1;
nodes = (
"310 723 LINE",
"308 709 OFFCURVE",
"284 690 OFFCURVE",
"250 690 CURVE SMOOTH",
"217 690 OFFCURVE",
"194 709 OFFCURVE",
"191 723 CURVE",
"117 723 LINE",
"117 673 OFFCURVE",
"168 616 OFFCURVE",
"250 616 CURVE SMOOTH",
"333 616 OFFCURVE",
"384 673 OFFCURVE",
"384 723 CURVE"
);
}
);
width = 501;
}
);
unicode = 014F;
},
{
glyphname = ocircumflex;
lastChange = "2015-02-05 02:37:04 +0000";
layers = (
{
layerId = UUID0;
name = Regular;
paths = (
{
closed = 1;
nodes = (
"111 538 OFFCURVE",
"41 452 OFFCURVE",
"41 263 CURVE SMOOTH",
"41 74 OFFCURVE",
"111 -12 OFFCURVE",
"251 -12 CURVE SMOOTH",
"391 -12 OFFCURVE",
"461 74 OFFCURVE",
"461 263 CURVE SMOOTH",
"461 452 OFFCURVE",
"391 538 OFFCURVE",
"251 538 CURVE SMOOTH"
);
},
{
closed = 1;
nodes = (
"313 437 OFFCURVE",
"336 383 OFFCURVE",
"336 282 CURVE SMOOTH",
"336 244 LINE",
"336 143 OFFCURVE",
"313 89 OFFCURVE",
"251 89 CURVE SMOOTH",
"189 89 OFFCURVE",
"166 143 OFFCURVE",
"166 244 CURVE SMOOTH",
"166 282 LINE SMOOTH",
"166 383 OFFCURVE",
"189 437 OFFCURVE",
"251 437 CURVE SMOOTH"
);
},
{
closed = 1;
nodes = (
"300 723 LINE",
"202 723 LINE",
"116 588 LINE",
"206 588 LINE",
"251 657 LINE",
"295 588 LINE",
"385 588 LINE"
);
}
);
width = 501;
}
);
unicode = 00F4;
},
{
glyphname = odieresis;
lastChange = "2015-02-05 02:37:04 +0000";
layers = (
{
layerId = UUID0;
name = Regular;
paths = (
{
closed = 1;
nodes = (
"111 538 OFFCURVE",
"41 452 OFFCURVE",
"41 263 CURVE SMOOTH",
"41 74 OFFCURVE",
"111 -12 OFFCURVE",
"251 -12 CURVE SMOOTH",
"391 -12 OFFCURVE",
"461 74 OFFCURVE",
"461 263 CURVE SMOOTH",
"461 452 OFFCURVE",
"391 538 OFFCURVE",
"251 538 CURVE SMOOTH"
);
},
{
closed = 1;
nodes = (
"313 437 OFFCURVE",
"336 383 OFFCURVE",
"336 282 CURVE SMOOTH",
"336 244 LINE",
"336 143 OFFCURVE",
"313 89 OFFCURVE",
"251 89 CURVE SMOOTH",
"189 89 OFFCURVE",
"166 143 OFFCURVE",
"166 244 CURVE SMOOTH",
"166 282 LINE SMOOTH",
"166 383 OFFCURVE",
"189 437 OFFCURVE",
"251 437 CURVE SMOOTH"
);
},
{
closed = 1;
nodes = (
"213 723 LINE",
"113 723 LINE",
"113 614 LINE",
"213 614 LINE"
);
},
{
closed = 1;
nodes = (
"388 723 LINE",
"288 723 LINE",
"288 614 LINE",
"388 614 LINE"
);
}
);
width = 501;
}
);
unicode = 00F6;
},
{
glyphname = ograve;
lastChange = "2015-02-05 02:37:04 +0000";
layers = (
{
layerId = UUID0;
name = Regular;
paths = (
{
closed = 1;
nodes = (
"111 538 OFFCURVE",
"41 452 OFFCURVE",
"41 263 CURVE SMOOTH",
"41 74 OFFCURVE",
"111 -12 OFFCURVE",
"251 -12 CURVE SMOOTH",
"391 -12 OFFCURVE",
"461 74 OFFCURVE",
"461 263 CURVE SMOOTH",
"461 452 OFFCURVE",
"391 538 OFFCURVE",
"251 538 CURVE SMOOTH"
);
},
{
closed = 1;
nodes = (
"313 437 OFFCURVE",
"336 383 OFFCURVE",
"336 282 CURVE SMOOTH",
"336 244 LINE",
"336 143 OFFCURVE",
"313 89 OFFCURVE",
"251 89 CURVE SMOOTH",
"189 89 OFFCURVE",
"166 143 OFFCURVE",
"166 244 CURVE SMOOTH",
"166 282 LINE SMOOTH",
"166 383 OFFCURVE",
"189 437 OFFCURVE",
"251 437 CURVE SMOOTH"
);
},
{
closed = 1;
nodes = (
"233 723 LINE",
"113 723 LINE",
"112 720 LINE",
"220 591 LINE",
"319 591 LINE"
);
}
);
width = 501;
}
);
unicode = 00F2;
},
{
glyphname = ohungarumlaut;
lastChange = "2015-02-05 02:37:04 +0000";
layers = (
{
layerId = UUID0;
name = Regular;
paths = (
{
closed = 1;
nodes = (
"111 538 OFFCURVE",
"41 452 OFFCURVE",
"41 263 CURVE SMOOTH",
"41 74 OFFCURVE",
"111 -12 OFFCURVE",
"251 -12 CURVE SMOOTH",
"391 -12 OFFCURVE",
"461 74 OFFCURVE",
"461 263 CURVE SMOOTH",
"461 452 OFFCURVE",
"391 538 OFFCURVE",
"251 538 CURVE SMOOTH"
);
},
{
closed = 1;
nodes = (
"313 437 OFFCURVE",
"336 383 OFFCURVE",
"336 282 CURVE SMOOTH",
"336 244 LINE",
"336 143 OFFCURVE",
"313 89 OFFCURVE",
"251 89 CURVE SMOOTH",
"189 89 OFFCURVE",
"166 143 OFFCURVE",
"166 244 CURVE SMOOTH",
"166 282 LINE SMOOTH",
"166 383 OFFCURVE",
"189 437 OFFCURVE",
"251 437 CURVE SMOOTH"
);
},
{
closed = 1;
nodes = (
"300 723 LINE",
"200 723 LINE",
"138 591 LINE",
"217 591 LINE",
"301 720 LINE"
);
},
{
closed = 1;
nodes = (
"440 723 LINE",
"340 723 LINE",
"278 591 LINE",
"357 591 LINE",
"441 720 LINE"
);
}
);
width = 501;
}
);
unicode = 0151;
},
{
glyphname = omacron;
lastChange = "2015-02-05 02:37:04 +0000";
layers = (
{
layerId = UUID0;
name = Regular;
paths = (
{
closed = 1;
nodes = (
"111 538 OFFCURVE",
"41 452 OFFCURVE",
"41 263 CURVE SMOOTH",
"41 74 OFFCURVE",
"111 -12 OFFCURVE",
"251 -12 CURVE SMOOTH",
"391 -12 OFFCURVE",
"461 74 OFFCURVE",
"461 263 CURVE SMOOTH",
"461 452 OFFCURVE",
"391 538 OFFCURVE",
"251 538 CURVE SMOOTH"
);
},
{
closed = 1;
nodes = (
"313 437 OFFCURVE",
"336 383 OFFCURVE",
"336 282 CURVE SMOOTH",
"336 244 LINE",
"336 143 OFFCURVE",
"313 89 OFFCURVE",
"251 89 CURVE SMOOTH",
"189 89 OFFCURVE",
"166 143 OFFCURVE",
"166 244 CURVE SMOOTH",
"166 282 LINE SMOOTH",
"166 383 OFFCURVE",
"189 437 OFFCURVE",
"251 437 CURVE SMOOTH"
);
},
{
closed = 1;
nodes = (
"378 686 LINE",
"123 686 LINE",
"123 599 LINE",
"378 599 LINE"
);
}
);
width = 501;
}
);
unicode = 014D;
},
{
glyphname = oslash;
lastChange = "2015-02-05 02:37:04 +0000";
layers = (
{
anchors = (
{
name = top;
position = "{250, 526}";
}
);
layerId = UUID0;
name = Regular;
paths = (
{
closed = 1;
nodes = (
"448 558 LINE",
"373 558 LINE",
"351 517 LINE",
"323 531 OFFCURVE",
"290 538 OFFCURVE",
"251 538 CURVE SMOOTH",
"111 538 OFFCURVE",
"41 452 OFFCURVE",
"41 263 CURVE SMOOTH",
"41 165 OFFCURVE",
"60 95 OFFCURVE",
"97 50 CURVE",
"52 -32 LINE",
"127 -32 LINE",
"149 9 LINE",
"178 -5 OFFCURVE",
"211 -12 OFFCURVE",
"251 -12 CURVE SMOOTH",
"391 -12 OFFCURVE",
"461 74 OFFCURVE",
"461 263 CURVE SMOOTH",
"461 361 OFFCURVE",
"442 432 OFFCURVE",
"404 477 CURVE"
);
},
{
closed = 1;
nodes = (
"332 345 LINE",
"334 326 OFFCURVE",
"336 305 OFFCURVE",
"336 282 CURVE SMOOTH",
"336 244 LINE SMOOTH",
"336 143 OFFCURVE",
"313 89 OFFCURVE",
"251 89 CURVE SMOOTH",
"231 89 OFFCURVE",
"215 95 OFFCURVE",
"202 106 CURVE"
);
},
{
closed = 1;
nodes = (
"270 437 OFFCURVE",
"286 431 OFFCURVE",
"298 421 CURVE",
"169 183 LINE",
"167 201 OFFCURVE",
"166 221 OFFCURVE",
"166 244 CURVE",
"166 282 LINE SMOOTH",
"166 383 OFFCURVE",
"189 437 OFFCURVE",
"251 437 CURVE SMOOTH"
);
}
);
width = 501;
}
);
unicode = 00F8;
},
{
glyphname = oslashacute;
lastChange = "2015-02-05 02:37:04 +0000";
layers = (
{
layerId = UUID0;
name = Regular;
paths = (
{
closed = 1;
nodes = (
"448 558 LINE",
"373 558 LINE",
"351 517 LINE",
"323 531 OFFCURVE",
"290 538 OFFCURVE",
"251 538 CURVE SMOOTH",
"111 538 OFFCURVE",
"41 452 OFFCURVE",
"41 263 CURVE SMOOTH",
"41 165 OFFCURVE",
"60 95 OFFCURVE",
"97 50 CURVE",
"52 -32 LINE",
"127 -32 LINE",
"149 9 LINE",
"178 -5 OFFCURVE",
"211 -12 OFFCURVE",
"251 -12 CURVE SMOOTH",
"391 -12 OFFCURVE",
"461 74 OFFCURVE",
"461 263 CURVE SMOOTH",
"461 361 OFFCURVE",
"442 432 OFFCURVE",
"404 477 CURVE"
);
},
{
closed = 1;
nodes = (
"332 345 LINE",
"334 326 OFFCURVE",
"336 305 OFFCURVE",
"336 282 CURVE SMOOTH",
"336 244 LINE SMOOTH",
"336 143 OFFCURVE",
"313 89 OFFCURVE",
"251 89 CURVE SMOOTH",
"231 89 OFFCURVE",
"215 95 OFFCURVE",
"202 106 CURVE"
);
},
{
closed = 1;
nodes = (
"270 437 OFFCURVE",
"286 431 OFFCURVE",
"298 421 CURVE",
"169 183 LINE",
"167 201 OFFCURVE",
"166 221 OFFCURVE",
"166 244 CURVE",
"166 282 LINE SMOOTH",
"166 383 OFFCURVE",
"189 437 OFFCURVE",
"251 437 CURVE SMOOTH"
);
},
{
closed = 1;
nodes = (
"388 723 LINE",
"268 723 LINE",
"182 591 LINE",
"281 591 LINE",
"389 720 LINE"
);
}
);
width = 501;
}
);
unicode = 01FF;
},
{
glyphname = otilde;
lastChange = "2015-02-05 02:37:04 +0000";
layers = (
{
layerId = UUID0;
name = Regular;
paths = (
{
closed = 1;
nodes = (
"111 538 OFFCURVE",
"41 452 OFFCURVE",
"41 263 CURVE SMOOTH",
"41 74 OFFCURVE",
"111 -12 OFFCURVE",
"251 -12 CURVE SMOOTH",
"391 -12 OFFCURVE",
"461 74 OFFCURVE",
"461 263 CURVE SMOOTH",
"461 452 OFFCURVE",
"391 538 OFFCURVE",
"251 538 CURVE SMOOTH"
);
},
{
closed = 1;
nodes = (
"313 437 OFFCURVE",
"336 383 OFFCURVE",
"336 282 CURVE SMOOTH",
"336 244 LINE",
"336 143 OFFCURVE",
"313 89 OFFCURVE",
"251 89 CURVE SMOOTH",
"189 89 OFFCURVE",
"166 143 OFFCURVE",
"166 244 CURVE SMOOTH",
"166 282 LINE SMOOTH",
"166 383 OFFCURVE",
"189 437 OFFCURVE",
"251 437 CURVE SMOOTH"
);
},
{
closed = 1;
nodes = (
"353 723 LINE",
"349 695 OFFCURVE",
"335 686 OFFCURVE",
"314 686 CURVE SMOOTH",
"269 686 OFFCURVE",
"230 723 OFFCURVE",
"181 723 CURVE SMOOTH",
"111 723 OFFCURVE",
"83 656 OFFCURVE",
"83 601 CURVE",
"149 601 LINE",
"153 628 OFFCURVE",
"167 638 OFFCURVE",
"188 638 CURVE SMOOTH",
"233 638 OFFCURVE",
"272 601 OFFCURVE",
"320 601 CURVE SMOOTH",
"391 601 OFFCURVE",
"419 668 OFFCURVE",
"419 723 CURVE"
);
}
);
width = 501;
}
);
unicode = 00F5;
},
{
glyphname = oe;
lastChange = "2015-02-05 02:37:04 +0000";
layers = (
{
anchors = (
{
name = top;
position = "{387, 526}";
}
);
layerId = UUID0;
name = Regular;
paths = (
{
closed = 1;
nodes = (
"479 538 OFFCURVE",
"432 517 OFFCURVE",
"398 472 CURVE",
"364 517 OFFCURVE",
"315 538 OFFCURVE",
"251 538 CURVE SMOOTH",
"111 538 OFFCURVE",
"41 452 OFFCURVE",
"41 263 CURVE SMOOTH",
"41 74 OFFCURVE",
"111 -12 OFFCURVE",
"251 -12 CURVE SMOOTH",
"315 -12 OFFCURVE",
"364 9 OFFCURVE",
"399 53 CURVE",
"433 9 OFFCURVE",
"481 -12 OFFCURVE",
"543 -12 CURVE SMOOTH",
"650 -12 OFFCURVE",
"729 51 OFFCURVE",
"729 186 CURVE",
"610 186 LINE",
"610 123 OFFCURVE",
"584 86 OFFCURVE",
"543 86 CURVE SMOOTH",
"484 86 OFFCURVE",
"463 139 OFFCURVE",
"462 233 CURVE",
"729 233 LINE",
"729 263 LINE SMOOTH",
"729 452 OFFCURVE",
"666 538 OFFCURVE",
"539 538 CURVE SMOOTH"
);
},
{
closed = 1;
nodes = (
"313 437 OFFCURVE",
"336 383 OFFCURVE",
"336 282 CURVE SMOOTH",
"336 244 LINE",
"336 143 OFFCURVE",
"313 89 OFFCURVE",
"251 89 CURVE SMOOTH",
"189 89 OFFCURVE",
"166 143 OFFCURVE",
"166 244 CURVE SMOOTH",
"166 282 LINE SMOOTH",
"166 383 OFFCURVE",
"189 437 OFFCURVE",
"251 437 CURVE SMOOTH"
);
},
{
closed = 1;
nodes = (
"583 440 OFFCURVE",
"603 396 OFFCURVE",
"603 320 CURVE",
"463 320 LINE",
"467 396 OFFCURVE",
"488 440 OFFCURVE",
"539 440 CURVE SMOOTH"
);
}
);
width = 774;
}
);
unicode = 0153;
},
{
glyphname = p;
lastChange = "2015-02-05 02:37:04 +0000";
layers = (
{
layerId = UUID0;
name = Regular;
paths = (
{
closed = 1;
nodes = (
"241 538 OFFCURVE",
"198 512 OFFCURVE",
"172 461 CURVE",
"167 461 LINE",
"155 526 LINE",
"55 526 LINE",
"55 -173 LINE",
"175 -173 LINE",
"175 54 LINE",
"180 54 LINE",
"199 12 OFFCURVE",
"244 -12 OFFCURVE",
"297 -12 CURVE SMOOTH",
"390 -12 OFFCURVE",
"460 71 OFFCURVE",
"460 262 CURVE SMOOTH",
"460 453 OFFCURVE",
"395 538 OFFCURVE",
"291 538 CURVE SMOOTH"
);
},
{
closed = 1;
nodes = (
"313 429 OFFCURVE",
"335 377 OFFCURVE",
"335 282 CURVE SMOOTH",
"335 244 LINE SMOOTH",
"335 149 OFFCURVE",
"313 97 OFFCURVE",
"255 97 CURVE SMOOTH",
"197 97 OFFCURVE",
"175 151 OFFCURVE",
"175 246 CURVE SMOOTH",
"175 282 LINE",
"175 377 OFFCURVE",
"197 429 OFFCURVE",
"255 429 CURVE SMOOTH"
);
}
);
width = 501;
}
);
unicode = 0070;
},
{
color = (31,255,0,1);
glyphname = thorn;
lastChange = "2015-02-05 02:37:04 +0000";
layers = (
{
background = {
paths = (
{
closed = 1;
nodes = (
"175 723 LINE",
"55 723 LINE",
"55 -173 LINE",
"175 -173 LINE",
"175 54 LINE",
"180 54 LINE",
"199 12 OFFCURVE",
"244 -12 OFFCURVE",
"297 -12 CURVE SMOOTH",
"390 -12 OFFCURVE",
"460 71 OFFCURVE",
"460 262 CURVE SMOOTH",
"460 453 OFFCURVE",
"395 538 OFFCURVE",
"291 538 CURVE SMOOTH",
"244 538 OFFCURVE",
"206 512 OFFCURVE",
"180 461 CURVE",
"175 461 LINE"
);
},
{
closed = 1;
nodes = (
"313 429 OFFCURVE",
"335 377 OFFCURVE",
"335 282 CURVE SMOOTH",
"335 244 LINE SMOOTH",
"335 149 OFFCURVE",
"313 97 OFFCURVE",
"255 97 CURVE SMOOTH",
"197 97 OFFCURVE",
"175 151 OFFCURVE",
"175 246 CURVE SMOOTH",
"175 282 LINE SMOOTH",
"175 377 OFFCURVE",
"197 429 OFFCURVE",
"255 429 CURVE SMOOTH"
);
}
);
};
layerId = UUID0;
name = Regular;
paths = (
{
closed = 1;
nodes = (
"55 -173 LINE",
"175 -173 LINE",
"175 54 LINE",
"180 54 LINE",
"199 12 OFFCURVE",
"244 -12 OFFCURVE",
"297 -12 CURVE SMOOTH",
"390 -12 OFFCURVE",
"460 71 OFFCURVE",
"460 262 CURVE SMOOTH",
"460 453 OFFCURVE",
"395 538 OFFCURVE",
"291 538 CURVE SMOOTH",
"243 538 OFFCURVE",
"201 514 OFFCURVE",
"175 466 CURVE",
"175 723 LINE",
"55 723 LINE"
);
},
{
closed = 1;
nodes = (
"175 282 LINE",
"175 377 OFFCURVE",
"197 429 OFFCURVE",
"255 429 CURVE SMOOTH",
"313 429 OFFCURVE",
"335 377 OFFCURVE",
"335 282 CURVE SMOOTH",
"335 244 LINE SMOOTH",
"335 149 OFFCURVE",
"313 97 OFFCURVE",
"255 97 CURVE SMOOTH",
"197 97 OFFCURVE",
"175 151 OFFCURVE",
"175 246 CURVE SMOOTH"
);
}
);
width = 501;
}
);
unicode = 00FE;
},
